<svg width="460" height="993" viewBox="0 0 460 993" fill="none" xmlns="http://www.w3.org/2000/svg">
<g opacity="0.3">
<mask id="path-1-outside-1_221_7338" maskUnits="userSpaceOnUse" x="0.158691" y="0.317383" width="459" height="992" fill="black">
<rect fill="white" x="0.158691" y="0.317383" width="459" height="992"/>
<path d="M133.716 176.907L141.36 167.151C143.31 164.663 143.535 161.235 141.929 158.513L141.796 158.287C139.971 155.196 140.64 151.24 143.379 148.92C144.179 148.242 145.115 147.743 146.123 147.456L157.247 144.288L166.18 140.685L169.246 139.638C175.381 137.541 180.419 133.073 183.235 127.233C183.774 126.114 184.399 125.037 185.104 124.013L188.372 119.268C190.444 116.26 192.176 113.031 193.538 109.641L196.7 101.769L201.166 85.1939L203.797 71.1859C204.028 69.9584 204.39 68.7596 204.879 67.6103L207.786 60.7756C208.737 58.5396 210.932 57.088 213.362 57.088C215.494 57.088 217.468 55.968 218.562 54.1386L222.095 48.2313C223.889 45.2318 227.127 43.3953 230.622 43.3953C234.06 43.3953 237.255 41.617 239.066 38.6939L240.619 36.1887L248.063 23.9373L254.018 13.848L256.076 9.53101C257.591 6.35405 260.523 4.08459 263.979 3.41555C267.533 2.72732 271.2 3.81737 273.801 6.3356L275.34 7.82614C276.502 8.95087 277.836 9.88307 279.291 10.5876L286.657 14.1533C289.914 15.7295 291.982 19.0286 291.982 22.6462V23.1352C291.982 25.0492 291.304 26.9014 290.069 28.3633C287.36 31.5687 282.651 32.1739 279.22 29.7578L277.094 28.2613L269.314 23.5537C266.819 22.0442 263.657 22.2044 261.328 23.9584C259.537 25.3065 258.484 27.4174 258.484 29.6586V32.3287C258.484 36.9251 261.009 41.15 265.057 43.3272L265.184 43.3953L267.172 44.7426C270.752 47.1688 273.668 50.4532 275.652 54.2959L275.699 54.3872C276.626 56.1811 277.766 57.8565 279.095 59.3767L279.591 59.9451C283.26 64.1431 285.282 69.5292 285.282 75.1046V87.3559V88.6523C285.282 92.0034 286.469 95.2461 288.632 97.8056C290.795 100.365 291.982 103.608 291.982 106.959V109.187C291.982 111.433 292.355 113.663 293.086 115.786L296.448 125.551L298.038 128.938C299.448 131.94 301.391 134.661 303.774 136.968C306.31 139.423 309.297 141.364 312.57 142.685L316.547 144.288L328.249 149.324C329.373 149.807 330.411 150.469 331.323 151.285L337.793 157.067C338.809 157.975 338.911 159.529 338.022 160.562C336.951 161.806 337.35 163.727 338.828 164.442L347.964 168.865C348.85 169.294 349.67 169.848 350.399 170.51L352.536 172.449C358.118 177.515 365.386 180.322 372.924 180.322H373.412C376.183 180.322 378.942 180.686 381.618 181.406L387.753 183.056C389.905 183.634 392.006 184.386 394.037 185.304C399.385 187.72 405.187 188.97 411.056 188.97H412.573H422.767C427.637 188.97 432.266 186.847 435.443 183.156L436.165 182.317C437.296 181.003 438.703 179.955 440.286 179.248L444.946 177.165C446.525 176.46 448.374 176.786 449.616 177.989C451.027 179.355 451.313 181.514 450.304 183.201L443.837 194.014L437.251 204.314C435.233 207.471 434.16 211.139 434.16 214.886C434.16 219.115 435.526 223.231 438.055 226.621L439.396 228.418C442.3 232.311 444.073 236.931 444.52 241.769L447.559 274.729L451.345 297.331C451.798 300.035 452.026 302.771 452.026 305.513V323.734V348.493C452.026 350.717 452.286 352.933 452.802 355.096C455.095 364.717 452.233 374.838 445.241 381.833L434.16 392.918L426.563 402.9C424.689 405.362 423.16 408.069 422.017 410.944C418.382 420.094 418.889 430.371 423.407 439.119L426.342 444.802C429.05 450.045 430.769 455.741 431.413 461.607L433.744 482.813C434.021 485.337 434.492 487.836 435.153 490.288L447.559 536.331L455.922 590.981C456.302 593.46 456.492 595.964 456.492 598.472V627.868C456.492 634.518 455.153 641.099 452.555 647.219L434.16 690.553L419.08 746.519C417.245 753.331 416.885 760.455 418.027 767.417L422.369 793.898C423.276 799.43 423.237 805.076 422.254 810.594L416.295 844.055L400.663 898.825L402.152 900.96C425.063 933.789 401.574 978.825 361.54 978.825H358.079L112.584 989.619C73.481 989.619 54.6261 941.699 83.2448 915.053L100.674 898.825L104.083 890.903C106.745 884.719 108.118 878.057 108.118 871.325V862.792L101.178 812.407C100.842 809.967 100.325 807.556 99.6302 805.193L71.6425 710.011L60.4767 671.816L52.705 644.613C51.4409 640.189 50.7996 635.61 50.7996 631.009V603.912C50.7996 597.826 51.9215 591.792 54.109 586.112L67.1762 552.185L82.6744 519.319C82.7634 519.13 82.8303 518.931 82.8738 518.727C83.547 515.561 79.1037 514.096 77.7616 517.041L76.8533 519.035L60.4767 547.861L41.867 574.526L18.0465 604.794L12.454 610.479C9.04845 613.941 3.15869 611.529 3.15869 606.673C3.15869 605.456 3.56803 604.274 4.32092 603.317L26.9792 574.526L46.3333 544.258L61.9655 512.549L75.4649 489.024C76.3881 487.415 77.1466 485.717 77.7287 483.956L81.1469 473.615C82.1727 470.511 81.4384 467.096 79.2278 464.688C77.7007 463.025 76.8533 460.849 76.8533 458.591V452.29C76.8533 449.248 77.4044 446.23 78.4799 443.384L88.0191 418.141L100.674 392.918L110.901 373.735C112.005 371.664 113.619 369.91 115.59 368.637L121.877 364.58C125.286 362.379 126.081 357.731 123.595 354.523L123.316 354.163C122.181 352.698 120.432 351.84 118.578 351.84H116.908C114.52 351.84 112.584 349.904 112.584 347.516C112.584 345.128 114.52 343.192 116.908 343.192H124.742C127.013 343.192 129.238 342.556 131.166 341.356L132.686 340.41C136.52 338.024 139.344 334.314 140.622 329.983L142.432 323.85C143.815 319.164 143.266 314.12 140.909 309.84C139.419 307.136 138.638 304.098 138.638 301.01V292.434C138.638 289.777 139.079 287.14 139.944 284.628L142.368 277.586C143.739 273.605 142.819 269.194 139.972 266.093C139.089 265.131 138.376 264.026 137.865 262.824L129.382 242.878C128.615 241.075 127.444 239.472 125.959 238.194C123.139 235.768 121.517 232.232 121.517 228.511V226.041C121.517 222.996 122.282 219.999 123.743 217.328L124.866 215.274C127.064 211.255 128.216 206.748 128.216 202.167V192.842C128.216 187.064 130.153 181.454 133.716 176.907Z"/>
</mask>
<path d="M133.716 176.907L141.36 167.151C143.31 164.663 143.535 161.235 141.929 158.513L141.796 158.287C139.971 155.196 140.64 151.24 143.379 148.92C144.179 148.242 145.115 147.743 146.123 147.456L157.247 144.288L166.18 140.685L169.246 139.638C175.381 137.541 180.419 133.073 183.235 127.233C183.774 126.114 184.399 125.037 185.104 124.013L188.372 119.268C190.444 116.26 192.176 113.031 193.538 109.641L196.7 101.769L201.166 85.1939L203.797 71.1859C204.028 69.9584 204.39 68.7596 204.879 67.6103L207.786 60.7756C208.737 58.5396 210.932 57.088 213.362 57.088C215.494 57.088 217.468 55.968 218.562 54.1386L222.095 48.2313C223.889 45.2318 227.127 43.3953 230.622 43.3953C234.06 43.3953 237.255 41.617 239.066 38.6939L240.619 36.1887L248.063 23.9373L254.018 13.848L256.076 9.53101C257.591 6.35405 260.523 4.08459 263.979 3.41555C267.533 2.72732 271.2 3.81737 273.801 6.3356L275.34 7.82614C276.502 8.95087 277.836 9.88307 279.291 10.5876L286.657 14.1533C289.914 15.7295 291.982 19.0286 291.982 22.6462V23.1352C291.982 25.0492 291.304 26.9014 290.069 28.3633C287.36 31.5687 282.651 32.1739 279.22 29.7578L277.094 28.2613L269.314 23.5537C266.819 22.0442 263.657 22.2044 261.328 23.9584C259.537 25.3065 258.484 27.4174 258.484 29.6586V32.3287C258.484 36.9251 261.009 41.15 265.057 43.3272L265.184 43.3953L267.172 44.7426C270.752 47.1688 273.668 50.4532 275.652 54.2959L275.699 54.3872C276.626 56.1811 277.766 57.8565 279.095 59.3767L279.591 59.9451C283.26 64.1431 285.282 69.5292 285.282 75.1046V87.3559V88.6523C285.282 92.0034 286.469 95.2461 288.632 97.8056C290.795 100.365 291.982 103.608 291.982 106.959V109.187C291.982 111.433 292.355 113.663 293.086 115.786L296.448 125.551L298.038 128.938C299.448 131.94 301.391 134.661 303.774 136.968C306.31 139.423 309.297 141.364 312.57 142.685L316.547 144.288L328.249 149.324C329.373 149.807 330.411 150.469 331.323 151.285L337.793 157.067C338.809 157.975 338.911 159.529 338.022 160.562C336.951 161.806 337.35 163.727 338.828 164.442L347.964 168.865C348.85 169.294 349.67 169.848 350.399 170.51L352.536 172.449C358.118 177.515 365.386 180.322 372.924 180.322H373.412C376.183 180.322 378.942 180.686 381.618 181.406L387.753 183.056C389.905 183.634 392.006 184.386 394.037 185.304C399.385 187.72 405.187 188.97 411.056 188.97H412.573H422.767C427.637 188.97 432.266 186.847 435.443 183.156L436.165 182.317C437.296 181.003 438.703 179.955 440.286 179.248L444.946 177.165C446.525 176.46 448.374 176.786 449.616 177.989C451.027 179.355 451.313 181.514 450.304 183.201L443.837 194.014L437.251 204.314C435.233 207.471 434.16 211.139 434.16 214.886C434.16 219.115 435.526 223.231 438.055 226.621L439.396 228.418C442.3 232.311 444.073 236.931 444.52 241.769L447.559 274.729L451.345 297.331C451.798 300.035 452.026 302.771 452.026 305.513V323.734V348.493C452.026 350.717 452.286 352.933 452.802 355.096C455.095 364.717 452.233 374.838 445.241 381.833L434.16 392.918L426.563 402.9C424.689 405.362 423.16 408.069 422.017 410.944C418.382 420.094 418.889 430.371 423.407 439.119L426.342 444.802C429.05 450.045 430.769 455.741 431.413 461.607L433.744 482.813C434.021 485.337 434.492 487.836 435.153 490.288L447.559 536.331L455.922 590.981C456.302 593.46 456.492 595.964 456.492 598.472V627.868C456.492 634.518 455.153 641.099 452.555 647.219L434.16 690.553L419.08 746.519C417.245 753.331 416.885 760.455 418.027 767.417L422.369 793.898C423.276 799.43 423.237 805.076 422.254 810.594L416.295 844.055L400.663 898.825L402.152 900.96C425.063 933.789 401.574 978.825 361.54 978.825H358.079L112.584 989.619C73.481 989.619 54.6261 941.699 83.2448 915.053L100.674 898.825L104.083 890.903C106.745 884.719 108.118 878.057 108.118 871.325V862.792L101.178 812.407C100.842 809.967 100.325 807.556 99.6302 805.193L71.6425 710.011L60.4767 671.816L52.705 644.613C51.4409 640.189 50.7996 635.61 50.7996 631.009V603.912C50.7996 597.826 51.9215 591.792 54.109 586.112L67.1762 552.185L82.6744 519.319C82.7634 519.13 82.8303 518.931 82.8738 518.727C83.547 515.561 79.1037 514.096 77.7616 517.041L76.8533 519.035L60.4767 547.861L41.867 574.526L18.0465 604.794L12.454 610.479C9.04845 613.941 3.15869 611.529 3.15869 606.673C3.15869 605.456 3.56803 604.274 4.32092 603.317L26.9792 574.526L46.3333 544.258L61.9655 512.549L75.4649 489.024C76.3881 487.415 77.1466 485.717 77.7287 483.956L81.1469 473.615C82.1727 470.511 81.4384 467.096 79.2278 464.688C77.7007 463.025 76.8533 460.849 76.8533 458.591V452.29C76.8533 449.248 77.4044 446.23 78.4799 443.384L88.0191 418.141L100.674 392.918L110.901 373.735C112.005 371.664 113.619 369.91 115.59 368.637L121.877 364.58C125.286 362.379 126.081 357.731 123.595 354.523L123.316 354.163C122.181 352.698 120.432 351.84 118.578 351.84H116.908C114.52 351.84 112.584 349.904 112.584 347.516C112.584 345.128 114.52 343.192 116.908 343.192H124.742C127.013 343.192 129.238 342.556 131.166 341.356L132.686 340.41C136.52 338.024 139.344 334.314 140.622 329.983L142.432 323.85C143.815 319.164 143.266 314.12 140.909 309.84C139.419 307.136 138.638 304.098 138.638 301.01V292.434C138.638 289.777 139.079 287.14 139.944 284.628L142.368 277.586C143.739 273.605 142.819 269.194 139.972 266.093C139.089 265.131 138.376 264.026 137.865 262.824L129.382 242.878C128.615 241.075 127.444 239.472 125.959 238.194C123.139 235.768 121.517 232.232 121.517 228.511V226.041C121.517 222.996 122.282 219.999 123.743 217.328L124.866 215.274C127.064 211.255 128.216 206.748 128.216 202.167V192.842C128.216 187.064 130.153 181.454 133.716 176.907Z" fill="black"/>
<path d="M100.674 900.095H400.663V897.555H100.674V900.095ZM141.36 167.151L139.361 165.585L141.36 167.151ZM133.716 176.907L131.717 175.34L133.716 176.907ZM124.866 215.274L122.638 214.056L124.866 215.274ZM123.743 217.328L121.515 216.109L123.743 217.328ZM129.382 242.878L127.045 243.872L129.382 242.878ZM137.865 262.824L135.528 263.818L137.865 262.824ZM142.368 277.586L139.967 276.759V276.759L142.368 277.586ZM139.944 284.628L142.345 285.455L142.345 285.455L139.944 284.628ZM142.432 323.85L144.868 324.569L142.432 323.85ZM140.622 329.983L138.186 329.264L140.622 329.983ZM132.686 340.41L134.028 342.566H134.028L132.686 340.41ZM131.166 341.356L132.508 343.513L131.166 341.356ZM123.316 354.163L121.309 355.719L121.309 355.719L123.316 354.163ZM123.595 354.523L125.603 352.968L125.603 352.968L123.595 354.523ZM121.877 364.58L123.254 366.714H123.254L121.877 364.58ZM115.59 368.637L116.968 370.771L115.59 368.637ZM110.901 373.735L108.66 372.54L108.659 372.54L110.901 373.735ZM100.674 392.918L98.4327 391.723L98.4179 391.751L98.4037 391.779L100.674 392.918ZM88.0191 418.141L85.7491 417.003L85.69 417.12L85.6434 417.244L88.0191 418.141ZM78.4799 443.384L80.8556 444.282L78.4799 443.384ZM81.1469 473.615L78.7355 472.818L81.1469 473.615ZM77.7287 483.956L75.3174 483.159H75.3174L77.7287 483.956ZM75.4649 489.024L77.6676 490.288H77.6676L75.4649 489.024ZM61.9655 512.549L59.7627 511.285L59.7229 511.354L59.6876 511.426L61.9655 512.549ZM46.3333 544.258L48.473 545.626L48.5489 545.507L48.6112 545.381L46.3333 544.258ZM26.9792 574.526L28.9749 576.096L29.0518 575.999L29.1188 575.894L26.9792 574.526ZM4.32092 603.317L6.31668 604.888H6.31668L4.32092 603.317ZM12.454 610.479L10.6435 608.698L10.6435 608.698L12.454 610.479ZM18.0465 604.794L19.857 606.575L19.9554 606.475L20.0423 606.364L18.0465 604.794ZM41.867 574.526L43.8627 576.096L43.9078 576.039L43.9496 575.979L41.867 574.526ZM60.4767 547.861L62.5593 549.315L62.6267 549.218L62.6849 549.116L60.4767 547.861ZM76.8533 519.035L79.0615 520.289L79.1174 520.191L79.1643 520.088L76.8533 519.035ZM77.7616 517.041L80.0727 518.094H80.0727L77.7616 517.041ZM82.6744 519.319L80.3773 518.236H80.3773L82.6744 519.319ZM67.1762 552.185L64.8791 551.102L64.8396 551.186L64.8062 551.272L67.1762 552.185ZM54.109 586.112L56.479 587.025L54.109 586.112ZM52.705 644.613L50.263 645.311L52.705 644.613ZM60.4767 671.816L58.0347 672.513L58.0369 672.521L58.039 672.528L60.4767 671.816ZM71.6425 710.011L69.2049 710.724L69.206 710.727L71.6425 710.011ZM99.6302 805.193L97.1936 805.909L99.6302 805.193ZM101.178 812.407L98.6625 812.753L101.178 812.407ZM108.118 862.792H110.657V862.618L110.634 862.446L108.118 862.792ZM104.083 890.903L101.751 889.899L104.083 890.903ZM100.674 898.825L102.404 900.684L102.795 900.32L103.007 899.829L100.674 898.825ZM400.663 898.825L398.221 898.128L397.889 899.289L398.58 900.279L400.663 898.825ZM416.295 844.055L418.737 844.752L418.773 844.627L418.795 844.5L416.295 844.055ZM422.254 810.594L424.754 811.039L422.254 810.594ZM422.369 793.898L419.862 794.309L422.369 793.898ZM418.027 767.417L415.521 767.828L418.027 767.417ZM419.08 746.519L416.628 745.858L419.08 746.519ZM434.16 690.553L431.823 689.561L431.754 689.722L431.708 689.892L434.16 690.553ZM452.555 647.219L454.893 648.212L452.555 647.219ZM455.922 590.981L453.412 591.365L455.922 590.981ZM447.559 536.331L450.07 535.946L450.048 535.806L450.012 535.67L447.559 536.331ZM435.153 490.288L437.605 489.627L435.153 490.288ZM433.744 482.813L436.268 482.535L433.744 482.813ZM431.413 461.607L428.889 461.884L431.413 461.607ZM426.342 444.802L428.598 443.636L426.342 444.802ZM423.407 439.119L421.15 440.284L423.407 439.119ZM426.563 402.9L428.584 404.438L428.584 404.438L426.563 402.9ZM434.16 392.918L432.364 391.123L432.243 391.244L432.139 391.38L434.16 392.918ZM445.241 381.833L447.037 383.629L445.241 381.833ZM451.345 297.331L448.84 297.751L451.345 297.331ZM447.559 274.729L445.03 274.962L445.039 275.056L445.055 275.148L447.559 274.729ZM444.52 241.769L441.991 242.002L444.52 241.769ZM439.396 228.418L437.36 229.936V229.936L439.396 228.418ZM438.055 226.621L440.091 225.102V225.102L438.055 226.621ZM437.251 204.314L439.391 205.682V205.682L437.251 204.314ZM443.837 194.014L445.977 195.383L445.998 195.351L446.017 195.318L443.837 194.014ZM450.304 183.201L448.124 181.897L448.124 181.897L450.304 183.201ZM444.946 177.165L445.982 179.484L445.982 179.484L444.946 177.165ZM440.286 179.248L439.25 176.929L440.286 179.248ZM436.165 182.317L434.24 180.66L434.24 180.66L436.165 182.317ZM435.443 183.156L437.368 184.812L437.368 184.812L435.443 183.156ZM387.753 183.056L388.412 180.603L387.753 183.056ZM381.618 181.406L380.959 183.858L381.618 181.406ZM352.536 172.449L350.829 174.33H350.829L352.536 172.449ZM350.399 170.51L352.106 168.629H352.106L350.399 170.51ZM347.964 168.865L346.857 171.151L347.964 168.865ZM338.828 164.442L337.721 166.728L338.828 164.442ZM337.793 157.067L339.486 155.173V155.173L337.793 157.067ZM331.323 151.285L333.016 149.391L331.323 151.285ZM328.249 149.324L329.253 146.991L328.249 149.324ZM316.547 144.288L317.551 141.956L317.524 141.944L317.497 141.933L316.547 144.288ZM312.57 142.685L311.62 145.04L312.57 142.685ZM298.038 128.938L300.337 127.858L298.038 128.938ZM296.448 125.551L294.047 126.378L294.091 126.507L294.149 126.631L296.448 125.551ZM293.086 115.786L295.487 114.959V114.959L293.086 115.786ZM279.591 59.9451L277.679 61.6165L277.679 61.6165L279.591 59.9451ZM279.095 59.3767L281.007 57.7054L281.007 57.7054L279.095 59.3767ZM275.699 54.3872L273.443 55.5521L273.443 55.5526L275.699 54.3872ZM275.652 54.2959L277.909 53.1309L277.909 53.1305L275.652 54.2959ZM267.172 44.7426L265.747 46.8449V46.8449L267.172 44.7426ZM265.184 43.3953L266.609 41.2929L266.501 41.2201L266.387 41.1586L265.184 43.3953ZM265.057 43.3272L263.854 45.5639L263.854 45.564L265.057 43.3272ZM269.314 23.5537L270.629 21.3808V21.3808L269.314 23.5537ZM277.094 28.2613L278.556 26.1847L278.484 26.1341L278.409 26.0885L277.094 28.2613ZM279.22 29.7578L280.682 27.6812V27.6812L279.22 29.7578ZM286.657 14.1533L287.764 11.8673V11.8673L286.657 14.1533ZM279.291 10.5876L278.185 12.8735L279.291 10.5876ZM275.34 7.82614L273.574 9.65081V9.65083L275.34 7.82614ZM273.801 6.3356L275.567 4.51093V4.51093L273.801 6.3356ZM256.076 9.53101L253.784 8.4381V8.4381L256.076 9.53101ZM254.018 13.848L256.205 15.139L256.262 15.0423L256.311 14.9409L254.018 13.848ZM248.063 23.9373L250.233 25.2561L250.242 25.2422L250.25 25.2283L248.063 23.9373ZM240.619 36.1887L242.778 37.5265L242.784 37.517L242.789 37.5074L240.619 36.1887ZM239.066 38.6939L236.908 37.3561L239.066 38.6939ZM222.095 48.2313L224.275 49.5348V49.5348L222.095 48.2313ZM218.562 54.1386L220.742 55.4421V55.442L218.562 54.1386ZM207.786 60.7756L205.449 59.7816V59.7816L207.786 60.7756ZM204.879 67.6103L202.542 66.6162V66.6163L204.879 67.6103ZM203.797 71.1859L201.301 70.7171V70.7171L203.797 71.1859ZM201.166 85.1939L203.619 85.8547L203.644 85.7595L203.662 85.6627L201.166 85.1939ZM196.7 101.769L199.057 102.716L199.113 102.576L199.152 102.43L196.7 101.769ZM193.538 109.641L191.182 108.694V108.694L193.538 109.641ZM188.372 119.268L186.28 117.828V117.828L188.372 119.268ZM185.104 124.013L183.013 122.573V122.573L185.104 124.013ZM169.246 139.638L168.425 137.234L169.246 139.638ZM166.18 140.685L165.359 138.282L165.294 138.304L165.23 138.33L166.18 140.685ZM157.247 144.288L157.943 146.731L158.072 146.694L158.197 146.644L157.247 144.288ZM146.123 147.456L145.428 145.013L145.428 145.013L146.123 147.456ZM141.796 158.287L143.983 156.996L143.983 156.996L141.796 158.287ZM141.929 158.513L139.742 159.803L139.742 159.803L141.929 158.513ZM83.2448 915.053L84.9755 916.912L83.2448 915.053ZM112.584 989.619V992.159H112.64L112.696 992.156L112.584 989.619ZM358.079 978.825V976.286H358.024L357.968 976.288L358.079 978.825ZM402.152 900.96L400.07 902.413L402.152 900.96ZM290.069 28.3633L288.129 26.7239L288.129 26.724L290.069 28.3633ZM261.328 23.9584L262.855 25.9872V25.9872L261.328 23.9584ZM288.632 97.8056L286.692 99.4449V99.4449L288.632 97.8056ZM303.774 136.968L302.008 138.792V138.792L303.774 136.968ZM338.022 160.562L339.947 162.218L339.947 162.218L338.022 160.562ZM394.037 185.304L392.991 187.618H392.991L394.037 185.304ZM449.616 177.989L451.382 176.164L449.616 177.989ZM82.8738 518.727L85.3579 519.255L85.3579 519.255L82.8738 518.727ZM79.2278 464.688L77.3571 466.406H77.3571L79.2278 464.688ZM143.379 148.92L145.02 150.858L145.02 150.858L143.379 148.92ZM183.235 127.233L185.522 128.336L185.522 128.336L183.235 127.233ZM452.802 355.096L455.272 354.507L452.802 355.096ZM140.909 309.84L138.684 311.066L140.909 309.84ZM422.017 410.944L419.657 410.007H419.657L422.017 410.944ZM139.972 266.093L141.843 264.375L139.972 266.093ZM125.959 238.194L124.302 240.119L125.959 238.194ZM263.979 3.41555L263.496 0.922172V0.922174L263.979 3.41555ZM139.361 165.585L131.717 175.34L135.715 178.473L143.359 168.717L139.361 165.585ZM125.676 192.842V202.167H130.756V192.842H125.676ZM122.638 214.056L121.515 216.109L125.972 218.546L127.095 216.493L122.638 214.056ZM118.977 226.041V228.511H124.056V226.041H118.977ZM127.045 243.872L135.528 263.818L140.203 261.83L131.719 241.884L127.045 243.872ZM139.967 276.759L137.542 283.801L142.345 285.455L144.77 278.413L139.967 276.759ZM136.098 292.434V301.01H141.177V292.434H136.098ZM139.996 323.131L138.186 329.264L143.058 330.702L144.868 324.569L139.996 323.131ZM131.344 338.254L129.824 339.2L132.508 343.513L134.028 342.566L131.344 338.254ZM124.742 340.652H116.908V345.732H124.742V340.652ZM116.908 354.38H118.578V349.3H116.908V354.38ZM121.309 355.719L121.588 356.079L125.603 352.968L125.324 352.608L121.309 355.719ZM120.499 362.446L114.213 366.503L116.968 370.771L123.254 366.714L120.499 362.446ZM108.659 372.54L98.4327 391.723L102.915 394.113L113.142 374.93L108.659 372.54ZM98.4037 391.779L85.7491 417.003L90.2891 419.28L102.944 394.057L98.4037 391.779ZM85.6434 417.244L76.1042 442.486L80.8556 444.282L90.3948 419.039L85.6434 417.244ZM74.3136 452.29V458.591H79.393V452.29H74.3136ZM78.7355 472.818L75.3174 483.159L80.1401 484.753L83.5583 474.412L78.7355 472.818ZM73.2621 487.76L59.7627 511.285L64.1682 513.813L77.6676 490.288L73.2621 487.76ZM59.6876 511.426L44.0554 543.135L48.6112 545.381L64.2434 513.672L59.6876 511.426ZM44.1936 542.89L24.8395 573.158L29.1188 575.894L48.473 545.626L44.1936 542.89ZM24.9834 572.955L2.32515 601.746L6.31668 604.888L28.9749 576.096L24.9834 572.955ZM14.2645 612.26L19.857 606.575L16.236 603.013L10.6435 608.698L14.2645 612.26ZM20.0423 606.364L43.8627 576.096L39.8712 572.955L16.0507 603.223L20.0423 606.364ZM43.9496 575.979L62.5593 549.315L58.3941 546.408L39.7843 573.072L43.9496 575.979ZM62.6849 549.116L79.0615 520.289L74.6451 517.78L58.2685 546.607L62.6849 549.116ZM79.1643 520.088L80.0727 518.094L75.4506 515.988L74.5423 517.981L79.1643 520.088ZM80.3773 518.236L64.8791 551.102L69.4733 553.268L84.9715 520.402L80.3773 518.236ZM64.8062 551.272L51.739 585.199L56.479 587.025L69.5462 553.098L64.8062 551.272ZM48.26 603.912V631.009H53.3393V603.912H48.26ZM50.263 645.311L58.0347 672.513L62.9187 671.118L55.1469 643.916L50.263 645.311ZM58.039 672.528L69.2049 710.724L74.0802 709.298L62.9144 671.103L58.039 672.528ZM69.206 710.727L97.1936 805.909L102.067 804.477L74.0791 709.294L69.206 710.727ZM98.6625 812.753L105.602 863.139L110.634 862.446L103.694 812.06L98.6625 812.753ZM105.578 862.792V871.325H110.657V862.792H105.578ZM101.751 889.899L98.341 897.821L103.007 899.829L106.416 891.907L101.751 889.899ZM403.105 899.522L418.737 844.752L413.853 843.358L398.221 898.128L403.105 899.522ZM418.795 844.5L424.754 811.039L419.754 810.149L413.795 843.609L418.795 844.5ZM424.875 793.488L420.533 767.006L415.521 767.828L419.862 794.309L424.875 793.488ZM421.532 747.18L436.613 691.214L431.708 689.892L416.628 745.858L421.532 747.18ZM436.498 691.545L454.893 648.212L450.217 646.227L431.823 689.561L436.498 691.545ZM459.032 627.868V598.472H453.952V627.868H459.032ZM458.433 590.596L450.07 535.946L445.049 536.715L453.412 591.365L458.433 590.596ZM450.012 535.67L437.605 489.627L432.701 490.949L445.107 536.991L450.012 535.67ZM436.268 482.535L433.938 461.33L428.889 461.884L431.219 483.09L436.268 482.535ZM428.598 443.636L425.663 437.953L421.15 440.284L424.085 445.967L428.598 443.636ZM428.584 404.438L436.181 394.456L432.139 391.38L424.542 401.362L428.584 404.438ZM435.957 394.714L447.037 383.629L443.445 380.038L432.364 391.123L435.957 394.714ZM454.565 348.493V323.734H449.486V348.493H454.565ZM454.565 323.734V305.513H449.486V323.734H454.565ZM453.85 296.912L450.064 274.309L445.055 275.148L448.84 297.751L453.85 296.912ZM450.088 274.496L447.049 241.535L441.991 242.002L445.03 274.962L450.088 274.496ZM441.431 226.899L440.091 225.102L436.019 228.139L437.36 229.936L441.431 226.899ZM439.391 205.682L445.977 195.383L441.698 192.646L435.112 202.946L439.391 205.682ZM446.017 195.318L452.484 184.504L448.124 181.897L441.658 192.711L446.017 195.318ZM443.91 174.847L439.25 176.929L441.322 181.566L445.982 179.484L443.91 174.847ZM434.24 180.66L433.518 181.499L437.368 184.812L438.09 183.974L434.24 180.66ZM422.767 186.43H412.573V191.509H422.767V186.43ZM412.573 186.43H411.056V191.509H412.573V186.43ZM388.412 180.603L382.278 178.953L380.959 183.858L387.093 185.508L388.412 180.603ZM373.412 177.782H372.924V182.861H373.412V177.782ZM354.243 170.569L352.106 168.629L348.692 172.39L350.829 174.33L354.243 170.569ZM349.07 166.579L339.934 162.157L337.721 166.728L346.857 171.151L349.07 166.579ZM339.486 155.173L333.016 149.391L329.631 153.178L336.101 158.96L339.486 155.173ZM329.253 146.991L317.551 141.956L315.543 146.621L327.245 151.657L329.253 146.991ZM317.497 141.933L313.521 140.329L311.62 145.04L315.597 146.644L317.497 141.933ZM300.337 127.858L298.747 124.472L294.149 126.631L295.739 130.017L300.337 127.858ZM298.85 124.724L295.487 114.959L290.685 116.613L294.047 126.378L298.85 124.724ZM294.522 109.187V106.959H289.442V109.187H294.522ZM287.822 88.6523V87.3559H282.743V88.6523H287.822ZM287.822 87.3559V75.1046H282.743V87.3559H287.822ZM281.504 58.2738L281.007 57.7054L277.182 61.048L277.679 61.6165L281.504 58.2738ZM277.956 53.2222L277.909 53.1309L273.395 55.4608L273.443 55.5521L277.956 53.2222ZM268.597 42.6402L266.609 41.2929L263.759 45.4977L265.747 46.8449L268.597 42.6402ZM266.387 41.1586L266.26 41.0905L263.854 45.564L263.981 45.6321L266.387 41.1586ZM261.024 32.3287V29.6586H255.945V32.3287H261.024ZM267.999 25.7265L275.779 30.4342L278.409 26.0885L270.629 21.3808L267.999 25.7265ZM275.632 30.3379L277.757 31.8344L280.682 27.6812L278.556 26.1847L275.632 30.3379ZM294.522 23.1352V22.6462H289.442V23.1352H294.522ZM287.764 11.8673L280.398 8.30166L278.185 12.8735L285.551 16.4392L287.764 11.8673ZM277.107 6.00148L275.567 4.51093L272.034 8.16027L273.574 9.65081L277.107 6.00148ZM253.784 8.4381L251.726 12.7551L256.311 14.9409L258.369 10.6239L253.784 8.4381ZM251.831 12.5571L245.876 22.6464L250.25 25.2283L256.205 15.139L251.831 12.5571ZM245.892 22.6186L238.449 34.8699L242.789 37.5074L250.233 25.2561L245.892 22.6186ZM238.46 34.8508L236.908 37.3561L241.225 40.0318L242.778 37.5265L238.46 34.8508ZM219.915 46.9279L216.383 52.8351L220.742 55.442L224.275 49.5348L219.915 46.9279ZM205.449 59.7816L202.542 66.6162L207.216 68.6043L210.123 61.7696L205.449 59.7816ZM201.301 70.7171L198.67 84.7252L203.662 85.6627L206.293 71.6547L201.301 70.7171ZM198.714 84.5331L194.248 101.108L199.152 102.43L203.619 85.8547L198.714 84.5331ZM194.343 100.823L191.182 108.694L195.895 110.587L199.057 102.716L194.343 100.823ZM186.28 117.828L183.013 122.573L187.196 125.454L190.464 120.709L186.28 117.828ZM168.425 137.234L165.359 138.282L167.001 143.088L170.067 142.041L168.425 137.234ZM165.23 138.33L156.297 141.933L158.197 146.644L167.13 143.04L165.23 138.33ZM156.552 141.846L145.428 145.013L146.819 149.899L157.943 146.731L156.552 141.846ZM139.609 159.578L139.742 159.803L144.116 157.222L143.983 156.996L139.609 159.578ZM98.9431 896.966L81.5142 913.194L84.9755 916.912L102.404 900.684L98.9431 896.966ZM112.696 992.156L358.191 981.362L357.968 976.288L112.472 987.082L112.696 992.156ZM358.079 981.365H361.54V976.286H358.079V981.365ZM404.235 899.506L402.745 897.372L398.58 900.279L400.07 902.413L404.235 899.506ZM361.54 981.365C403.627 981.365 428.321 934.019 404.235 899.506L400.07 902.413C421.805 933.559 399.521 976.286 361.54 976.286V981.365ZM277.757 31.8344C282.265 35.0081 288.45 34.2131 292.008 30.0026L288.129 26.724C286.269 28.9243 283.037 29.3397 280.682 27.6812L277.757 31.8344ZM262.855 25.9872C264.356 24.8575 266.392 24.7543 267.999 25.7265L270.629 21.3808C267.246 19.334 262.958 19.5513 259.8 21.9295L262.855 25.9872ZM261.024 29.6586C261.024 28.2151 261.702 26.8555 262.855 25.9872L259.8 21.9295C257.372 23.7575 255.945 26.6197 255.945 29.6586H261.024ZM266.26 41.0905C263.035 39.3561 261.024 35.9904 261.024 32.3287H255.945C255.945 37.8598 258.983 42.9439 263.854 45.5639L266.26 41.0905ZM277.909 53.1305C275.729 48.9109 272.528 45.3044 268.597 42.6402L265.747 46.8449C268.976 49.0332 271.606 51.9955 273.396 55.4613L277.909 53.1305ZM281.007 57.7054C279.813 56.3393 278.788 54.8338 277.956 53.2218L273.443 55.5526C274.463 57.5284 275.719 59.3736 277.182 61.048L281.007 57.7054ZM287.822 75.1046C287.822 68.9146 285.577 62.9346 281.504 58.2738L277.679 61.6165C280.944 65.3516 282.743 70.1439 282.743 75.1046H287.822ZM290.572 96.1663C288.796 94.0652 287.822 91.4032 287.822 88.6523H282.743C282.743 92.6035 284.142 96.4271 286.692 99.4449L290.572 96.1663ZM294.522 106.959C294.522 103.008 293.122 99.1841 290.572 96.1662L286.692 99.4449C288.468 101.546 289.442 104.208 289.442 106.959H294.522ZM295.487 114.959C294.848 113.102 294.522 111.152 294.522 109.187H289.442C289.442 111.714 289.862 114.224 290.685 116.613L295.487 114.959ZM305.541 135.143C303.379 133.05 301.616 130.582 300.337 127.858L295.739 130.017C297.28 133.298 299.404 136.271 302.008 138.792L305.541 135.143ZM313.521 140.329C310.551 139.131 307.841 137.37 305.541 135.143L302.008 138.792C304.779 141.475 308.043 143.597 311.62 145.04L313.521 140.329ZM333.016 149.391C331.899 148.393 330.628 147.583 329.253 146.991L327.245 151.657C328.117 152.032 328.923 152.546 329.631 153.178L333.016 149.391ZM339.947 162.218C341.739 160.137 341.534 157.003 339.486 155.173L336.101 158.96C336.101 158.961 336.1 158.959 336.097 158.956C336.095 158.953 336.093 158.95 336.092 158.947C336.089 158.94 336.088 158.936 336.088 158.933C336.088 158.931 336.088 158.926 336.09 158.92C336.091 158.916 336.092 158.913 336.094 158.909C336.096 158.906 336.098 158.904 336.097 158.905L339.947 162.218ZM339.934 162.157C339.931 162.155 339.932 162.155 339.937 162.159C339.941 162.162 339.945 162.167 339.949 162.171C339.955 162.179 339.956 162.184 339.956 162.184C339.956 162.184 339.957 162.189 339.954 162.199C339.953 162.205 339.951 162.21 339.948 162.215C339.946 162.22 339.944 162.221 339.947 162.218L336.097 158.905C333.938 161.413 334.742 165.286 337.721 166.728L339.934 162.157ZM352.106 168.629C351.197 167.804 350.175 167.114 349.07 166.579L346.857 171.151C347.525 171.474 348.143 171.891 348.692 172.39L352.106 168.629ZM372.924 177.782C366.017 177.782 359.358 175.211 354.243 170.569L350.829 174.33C356.878 179.82 364.755 182.861 372.924 182.861V177.782ZM382.278 178.953C379.387 178.176 376.406 177.782 373.412 177.782V182.861C375.96 182.861 378.498 183.197 380.959 183.858L382.278 178.953ZM395.082 182.989C392.927 182.015 390.696 181.217 388.412 180.603L387.093 185.508C389.113 186.051 391.085 186.757 392.991 187.618L395.082 182.989ZM411.056 186.43C405.548 186.43 400.102 185.257 395.082 182.989L392.991 187.618C398.668 190.183 404.827 191.509 411.056 191.509V186.43ZM433.518 181.499C430.823 184.629 426.898 186.43 422.767 186.43V191.509C428.377 191.509 433.708 189.064 437.368 184.812L433.518 181.499ZM452.484 184.504C454.098 181.805 453.641 178.351 451.382 176.164L447.849 179.813C448.414 180.36 448.528 181.223 448.124 181.897L452.484 184.504ZM424.754 811.039C425.788 805.238 425.828 799.303 424.875 793.488L419.862 794.309C420.723 799.557 420.686 804.913 419.754 810.149L424.754 811.039ZM105.578 871.325C105.578 877.712 104.276 884.032 101.751 889.899L106.416 891.907C109.214 885.406 110.657 878.402 110.657 871.325H105.578ZM97.1936 805.909C97.8528 808.151 98.3438 810.439 98.6625 812.753L103.694 812.06C103.341 809.495 102.797 806.961 102.067 804.477L97.1936 805.909ZM48.26 631.009C48.26 635.846 48.9341 640.66 50.263 645.311L55.1469 643.916C53.9477 639.718 53.3393 635.374 53.3393 631.009H48.26ZM51.739 585.199C49.4393 591.17 48.26 597.514 48.26 603.912H53.3393C53.3393 598.138 54.4036 592.413 56.479 587.025L51.739 585.199ZM80.3896 518.199C80.3869 518.212 80.3828 518.224 80.3773 518.236L84.9715 520.402C85.1441 520.036 85.2737 519.651 85.3579 519.255L80.3896 518.199ZM80.0727 518.094C80.0933 518.049 80.1111 518.021 80.1223 518.005C80.1334 517.989 80.1402 517.983 80.1412 517.982C80.1421 517.981 80.1405 517.982 80.1365 517.985C80.1327 517.987 80.1295 517.989 80.128 517.989C80.1245 517.991 80.1802 517.972 80.278 518.005C80.3758 518.037 80.4097 518.085 80.4077 518.082C80.4068 518.08 80.4051 518.077 80.4035 518.073C80.4017 518.069 80.4014 518.066 80.4016 518.068C80.4018 518.069 80.4034 518.078 80.403 518.097C80.4026 518.117 80.4 518.15 80.3896 518.199L85.3579 519.255C86.6626 513.12 78.0515 510.281 75.4506 515.988L80.0727 518.094ZM0.619009 606.673C0.619009 613.802 9.26515 617.342 14.2645 612.26L10.6435 608.698C8.83175 610.539 5.69837 609.257 5.69837 606.673H0.619009ZM81.5142 913.194C51.2074 941.412 71.1744 992.159 112.584 992.159V987.079C75.7875 987.079 58.0449 941.986 84.9755 916.912L81.5142 913.194ZM77.3571 466.406C78.9449 468.135 79.4723 470.589 78.7355 472.818L83.5583 474.412C84.873 470.434 83.9319 466.056 81.0986 462.971L77.3571 466.406ZM439.25 176.929C437.326 177.789 435.615 179.063 434.24 180.66L438.09 183.974C438.977 182.943 440.081 182.121 441.322 181.566L439.25 176.929ZM141.737 146.983C138.054 150.102 137.155 155.422 139.609 159.578L143.983 156.996C142.787 154.971 143.225 152.378 145.02 150.858L141.737 146.983ZM74.3136 458.591C74.3136 461.485 75.3997 464.274 77.3571 466.406L81.0986 462.971C80.0016 461.776 79.393 460.213 79.393 458.591H74.3136ZM451.382 176.164C449.395 174.24 446.436 173.718 443.91 174.847L445.982 179.484C446.613 179.202 447.353 179.332 447.849 179.813L451.382 176.164ZM145.428 145.013C144.071 145.4 142.813 146.071 141.737 146.983L145.02 150.858C145.545 150.414 146.158 150.087 146.819 149.899L145.428 145.013ZM76.1042 442.486C74.9203 445.619 74.3136 448.941 74.3136 452.29H79.393C79.393 449.554 79.8885 446.841 80.8556 444.282L76.1042 442.486ZM436.7 214.886C436.7 211.624 437.634 208.431 439.391 205.682L435.112 202.946C432.832 206.511 431.621 210.655 431.621 214.886H436.7ZM180.947 126.131C178.427 131.358 173.917 135.358 168.425 137.234L170.067 142.041C176.845 139.725 182.412 134.788 185.522 128.336L180.947 126.131ZM114.213 366.503C111.878 368.01 109.967 370.088 108.66 372.54L113.142 374.93C114.042 373.241 115.359 371.809 116.968 370.771L114.213 366.503ZM440.091 225.102C437.889 222.151 436.7 218.568 436.7 214.886H431.621C431.621 219.662 433.164 224.311 436.019 228.139L440.091 225.102ZM183.013 122.573C182.234 123.704 181.543 124.893 180.947 126.131L185.522 128.336C186.005 127.334 186.565 126.37 187.196 125.454L183.013 122.573ZM121.588 356.079C123.161 358.11 122.658 361.053 120.499 362.446L123.254 366.714C127.914 363.706 129 357.353 125.603 352.968L121.588 356.079ZM447.049 241.535C446.559 236.232 444.616 231.168 441.431 226.899L437.36 229.936C439.985 233.455 441.587 237.63 441.991 242.002L447.049 241.535ZM191.182 108.694C189.89 111.91 188.246 114.973 186.28 117.828L190.464 120.709C192.642 117.546 194.463 114.151 195.895 110.587L191.182 108.694ZM118.578 354.38C119.646 354.38 120.654 354.874 121.309 355.719L125.324 352.608C123.708 350.522 121.217 349.3 118.578 349.3V354.38ZM110.044 347.516C110.044 351.307 113.117 354.38 116.908 354.38V349.3C115.923 349.3 115.124 348.502 115.124 347.516H110.044ZM454.565 305.513C454.565 302.631 454.326 299.754 453.85 296.912L448.84 297.751C449.27 300.316 449.486 302.912 449.486 305.513H454.565ZM116.908 340.652C113.117 340.652 110.044 343.725 110.044 347.516H115.124C115.124 346.531 115.923 345.732 116.908 345.732V340.652ZM202.542 66.6163C201.982 67.9344 201.565 69.3094 201.301 70.7171L206.293 71.6547C206.49 70.6075 206.799 69.5847 207.216 68.6043L202.542 66.6163ZM129.824 339.2C128.299 340.149 126.538 340.652 124.742 340.652V345.732C127.487 345.732 130.177 344.963 132.508 343.513L129.824 339.2ZM455.272 354.507C454.803 352.537 454.565 350.518 454.565 348.493H449.486C449.486 350.915 449.77 353.329 450.331 355.685L455.272 354.507ZM213.362 54.5483C209.914 54.5483 206.799 56.6084 205.449 59.7816L210.123 61.7697C210.676 60.4708 211.951 59.6276 213.362 59.6276V54.5483ZM138.186 329.264C137.084 332.998 134.649 336.197 131.344 338.254L134.028 342.566C138.39 339.852 141.603 335.63 143.058 330.702L138.186 329.264ZM447.037 383.629C454.652 376.01 457.77 364.986 455.272 354.507L450.331 355.685C452.42 364.448 449.813 373.667 443.445 380.038L447.037 383.629ZM216.383 52.8351C215.747 53.8977 214.6 54.5483 213.362 54.5483V59.6276C216.387 59.6276 219.189 58.0382 220.742 55.4421L216.383 52.8351ZM138.684 311.066C140.715 314.751 141.187 319.096 139.996 323.131L144.868 324.569C146.442 319.233 145.818 313.488 143.133 308.615L138.684 311.066ZM230.622 40.8556C226.233 40.8556 222.168 43.1615 219.915 46.9279L224.275 49.5348C225.61 47.302 228.02 45.935 230.622 45.935V40.8556ZM136.098 301.01C136.098 304.527 136.988 307.986 138.684 311.066L143.133 308.615C141.85 306.286 141.177 303.67 141.177 301.01H136.098ZM424.378 411.882C425.435 409.221 426.85 406.717 428.584 404.438L424.542 401.362C422.528 404.008 420.885 406.916 419.657 410.007L424.378 411.882ZM236.908 37.3561C235.559 39.5319 233.181 40.8556 230.622 40.8556V45.935C234.94 45.935 238.95 43.702 241.225 40.0318L236.908 37.3561ZM137.542 283.801C136.586 286.579 136.098 289.496 136.098 292.434H141.177C141.177 290.059 141.572 287.7 142.345 285.455L137.542 283.801ZM425.663 437.953C421.483 429.858 421.014 420.349 424.378 411.882L419.657 410.007C415.751 419.84 416.295 430.883 421.15 440.284L425.663 437.953ZM138.101 267.81C140.318 270.225 141.034 273.66 139.967 276.759L144.77 278.413C146.444 273.551 145.32 268.163 141.843 264.375L138.101 267.81ZM433.938 461.33C433.259 455.154 431.449 449.156 428.598 443.636L424.085 445.967C426.65 450.933 428.279 456.329 428.889 461.884L433.938 461.33ZM135.528 263.818C136.153 265.286 137.023 266.636 138.101 267.81L141.843 264.375C141.155 263.626 140.6 262.766 140.203 261.83L135.528 263.818ZM437.605 489.627C436.978 487.301 436.531 484.93 436.268 482.535L431.219 483.09C431.511 485.744 432.006 488.371 432.701 490.949L437.605 489.627ZM124.302 240.119C125.492 241.143 126.43 242.427 127.045 243.872L131.719 241.884C130.8 239.722 129.396 237.801 127.615 236.269L124.302 240.119ZM2.32516 601.746C1.21993 603.151 0.619009 604.886 0.619009 606.673H5.69837C5.69837 606.025 5.91614 605.397 6.31668 604.888L2.32516 601.746ZM263.496 0.922174C259.249 1.74443 255.645 4.5336 253.784 8.4381L258.369 10.6239C259.536 8.17449 261.797 6.42475 264.461 5.90892L263.496 0.922174ZM118.977 228.511C118.977 232.971 120.921 237.21 124.302 240.119L127.615 236.269C125.356 234.325 124.056 231.492 124.056 228.511H118.977ZM459.032 598.472C459.032 595.835 458.831 593.203 458.433 590.596L453.412 591.365C453.772 593.717 453.952 596.092 453.952 598.472H459.032ZM275.567 4.51093C272.37 1.41602 267.864 0.0763466 263.496 0.922172L264.461 5.90892C267.202 5.3783 270.029 6.21873 272.034 8.16027L275.567 4.51093ZM121.515 216.109C119.85 219.155 118.977 222.57 118.977 226.041H124.056C124.056 223.422 124.715 220.844 125.972 218.546L121.515 216.109ZM454.893 648.212C457.624 641.777 459.032 634.859 459.032 627.868H453.952C453.952 634.177 452.682 640.42 450.217 646.227L454.893 648.212ZM280.398 8.30166C279.186 7.71481 278.075 6.93832 277.107 6.00146L273.574 9.65083C274.93 10.9634 276.486 12.0513 278.185 12.8735L280.398 8.30166ZM125.676 202.167C125.676 206.322 124.632 210.41 122.638 214.056L127.095 216.493C129.497 212.1 130.756 207.173 130.756 202.167H125.676ZM294.522 22.6462C294.522 18.0549 291.897 13.8678 287.764 11.8673L285.551 16.4392C287.931 17.5912 289.442 20.0023 289.442 22.6462H294.522ZM131.717 175.34C127.803 180.335 125.676 186.497 125.676 192.842H130.756C130.756 187.632 132.502 182.573 135.715 178.473L131.717 175.34ZM75.3174 483.159C74.7889 484.758 74.1003 486.299 73.2621 487.76L77.6676 490.288C78.6759 488.531 79.5043 486.677 80.1401 484.753L75.3174 483.159ZM420.533 767.006C419.45 760.401 419.791 753.642 421.532 747.18L416.628 745.858C414.698 753.019 414.321 760.509 415.521 767.828L420.533 767.006ZM292.008 30.0026C293.631 28.0823 294.522 25.6494 294.522 23.1352H289.442C289.442 24.4491 288.977 25.7205 288.129 26.7239L292.008 30.0026ZM143.359 168.717C145.954 165.407 146.254 160.844 144.116 157.222L139.742 159.803C140.817 161.625 140.666 163.92 139.361 165.585L143.359 168.717Z" fill="#FFC909" mask="url(#path-1-outside-1_221_7338)"/>
</g>
</svg>
