<svg width="172" height="48" viewBox="0 0 172 48" fill="none" xmlns="http://www.w3.org/2000/svg">
<mask id="mask0_1613_5215" style="mask-type:alpha" maskUnits="userSpaceOnUse" x="0" y="0" width="48" height="48">
<rect x="1.5" y="1.5" width="45" height="45" rx="21.5" fill="#FFC909" stroke="white" stroke-width="3"/>
</mask>
<g mask="url(#mask0_1613_5215)">
<rect x="1.5" y="1.5" width="45" height="45" rx="21.5" fill="#FFC909" stroke="white" stroke-width="3"/>
<path d="M24 24V18.75C24 15.4363 21.3137 12.75 18 12.75H17.625C14.5184 12.75 12 10.2316 12 7.125V7.125C12 4.0184 14.5184 1.5 17.625 1.5H24M24 24H17.625C14.5184 24 12 26.5184 12 29.625V30C12 32.8995 9.64949 35.25 6.75 35.25V35.25C3.85051 35.25 1.5 32.8995 1.5 30V24M24 24H29.625C32.7316 24 35.25 21.4816 35.25 18.375V18.375C35.25 15.2684 37.7684 12.75 40.875 12.75V12.75C43.9816 12.75 46.5 15.2684 46.5 18.375V24M24 24V29.625C24 32.7316 26.5184 35.25 29.625 35.25V35.25C32.7316 35.25 35.25 37.7684 35.25 40.875V40.875C35.25 43.9816 32.7316 46.5 29.625 46.5H24" stroke="white" stroke-width="3"/>
</g>
<path d="M78.536 11.512C78.44 12.616 78.368 13.696 78.32 14.752C78.296 15.784 78.284 16.576 78.284 17.128C78.284 17.68 78.296 18.196 78.32 18.676C78.344 19.156 78.368 19.576 78.392 19.936H77.564C77.228 18.016 76.82 16.516 76.34 15.436C75.86 14.332 75.224 13.54 74.432 13.06C73.664 12.58 72.644 12.34 71.372 12.34H70.22V32.86C70.22 33.844 70.304 34.576 70.472 35.056C70.664 35.536 71.036 35.86 71.588 36.028C72.14 36.172 72.944 36.256 74 36.28V37C73.28 36.952 72.344 36.928 71.192 36.928C70.04 36.904 68.864 36.892 67.664 36.892C66.416 36.892 65.24 36.904 64.136 36.928C63.056 36.928 62.18 36.952 61.508 37V36.28C62.54 36.256 63.332 36.172 63.884 36.028C64.436 35.86 64.808 35.536 65 35.056C65.192 34.576 65.288 33.844 65.288 32.86V12.34H64.1C62.852 12.34 61.832 12.58 61.04 13.06C60.248 13.54 59.612 14.332 59.132 15.436C58.652 16.516 58.256 18.016 57.944 19.936H57.116C57.164 19.576 57.188 19.156 57.188 18.676C57.212 18.196 57.224 17.68 57.224 17.128C57.224 16.576 57.2 15.784 57.152 14.752C57.128 13.696 57.068 12.616 56.972 11.512C58.028 11.536 59.192 11.56 60.464 11.584C61.736 11.608 63.008 11.62 64.28 11.62C65.552 11.62 66.716 11.62 67.772 11.62C68.804 11.62 69.956 11.62 71.228 11.62C72.5 11.62 73.772 11.608 75.044 11.584C76.316 11.56 77.48 11.536 78.536 11.512ZM103.532 11.512V12.232C103.052 12.4 102.548 12.784 102.02 13.384C101.516 13.984 100.94 14.884 100.292 16.084L92.2644 32.14L91.5444 32.248L81.5004 14.392C81.0444 13.576 80.6244 13.024 80.2404 12.736C79.8804 12.448 79.5444 12.292 79.2324 12.268V11.512C79.5444 11.536 79.9404 11.56 80.4204 11.584C80.9244 11.584 81.4404 11.596 81.9684 11.62C82.4964 11.62 82.9884 11.62 83.4444 11.62C83.9964 11.62 84.6084 11.62 85.2804 11.62C85.9764 11.62 86.6484 11.608 87.2964 11.584C87.9684 11.56 88.5324 11.536 88.9884 11.512V12.268C88.4844 12.268 88.0404 12.352 87.6564 12.52C87.2724 12.688 87.0204 12.976 86.9004 13.384C86.8044 13.768 86.9364 14.32 87.2964 15.04L94.1364 27.424L92.9844 29.08L98.3124 18.46C99.1044 16.852 99.5124 15.604 99.5364 14.716C99.5604 13.828 99.2964 13.204 98.7444 12.844C98.1924 12.46 97.4244 12.256 96.4404 12.232V11.512C97.2324 11.536 97.9764 11.56 98.6724 11.584C99.3924 11.608 100.112 11.62 100.832 11.62C101.384 11.62 101.876 11.608 102.308 11.584C102.764 11.56 103.172 11.536 103.532 11.512ZM92.3724 30.376L93.0204 30.628L91.3284 34.048C91.0164 34.672 90.7404 35.164 90.5004 35.524C90.2604 35.884 90.0084 36.196 89.7444 36.46C89.3604 36.844 88.9044 37.108 88.3764 37.252C87.8724 37.42 87.3684 37.504 86.8644 37.504C85.7844 37.504 84.9324 37.252 84.3084 36.748C83.6844 36.244 83.3724 35.584 83.3724 34.768C83.3724 34 83.6364 33.4 84.1644 32.968C84.7164 32.512 85.3644 32.284 86.1084 32.284C86.9004 32.284 87.5364 32.464 88.0164 32.824C88.5204 33.184 88.7724 33.688 88.7724 34.336C88.7724 34.936 88.5804 35.428 88.1964 35.812C87.8364 36.196 87.3924 36.484 86.8644 36.676C86.9364 36.724 87.0204 36.76 87.1164 36.784C87.2124 36.784 87.3084 36.784 87.4044 36.784C88.1004 36.784 88.7004 36.544 89.2044 36.064C89.7084 35.584 90.1764 34.9 90.6084 34.012L92.3724 30.376ZM127.122 11.512V12.232C126.642 12.4 126.138 12.784 125.61 13.384C125.106 13.984 124.53 14.884 123.882 16.084L115.854 32.14L115.134 32.248L105.09 14.392C104.634 13.576 104.214 13.024 103.83 12.736C103.47 12.448 103.134 12.292 102.822 12.268V11.512C103.134 11.536 103.53 11.56 104.01 11.584C104.514 11.584 105.03 11.596 105.558 11.62C106.086 11.62 106.578 11.62 107.034 11.62C107.586 11.62 108.198 11.62 108.87 11.62C109.566 11.62 110.238 11.608 110.886 11.584C111.558 11.56 112.122 11.536 112.578 11.512V12.268C112.074 12.268 111.63 12.352 111.246 12.52C110.862 12.688 110.61 12.976 110.49 13.384C110.394 13.768 110.526 14.32 110.886 15.04L117.726 27.424L116.574 29.08L121.902 18.46C122.694 16.852 123.102 15.604 123.126 14.716C123.15 13.828 122.886 13.204 122.334 12.844C121.782 12.46 121.014 12.256 120.03 12.232V11.512C120.822 11.536 121.566 11.56 122.262 11.584C122.982 11.608 123.702 11.62 124.422 11.62C124.974 11.62 125.466 11.608 125.898 11.584C126.354 11.56 126.762 11.536 127.122 11.512ZM115.962 30.376L116.61 30.628L114.918 34.048C114.606 34.672 114.33 35.164 114.09 35.524C113.85 35.884 113.598 36.196 113.334 36.46C112.95 36.844 112.494 37.108 111.966 37.252C111.462 37.42 110.958 37.504 110.454 37.504C109.374 37.504 108.522 37.252 107.898 36.748C107.274 36.244 106.962 35.584 106.962 34.768C106.962 34 107.226 33.4 107.754 32.968C108.306 32.512 108.954 32.284 109.698 32.284C110.49 32.284 111.126 32.464 111.606 32.824C112.11 33.184 112.362 33.688 112.362 34.336C112.362 34.936 112.17 35.428 111.786 35.812C111.426 36.196 110.982 36.484 110.454 36.676C110.526 36.724 110.61 36.76 110.706 36.784C110.802 36.784 110.898 36.784 110.994 36.784C111.69 36.784 112.29 36.544 112.794 36.064C113.298 35.584 113.766 34.9 114.198 34.012L115.962 30.376ZM127.96 11.512C128.56 11.536 129.328 11.56 130.264 11.584C131.2 11.608 132.136 11.62 133.072 11.62C134.248 11.62 135.364 11.608 136.42 11.584C137.476 11.56 138.22 11.548 138.652 11.548C141.868 11.548 144.256 12.208 145.816 13.528C147.4 14.848 148.192 16.552 148.192 18.64C148.192 19.504 148.036 20.416 147.724 21.376C147.412 22.312 146.872 23.188 146.104 24.004C145.336 24.796 144.28 25.444 142.936 25.948C141.616 26.452 139.924 26.704 137.86 26.704H134.26V25.984H137.5C139.012 25.984 140.164 25.66 140.956 25.012C141.772 24.364 142.312 23.512 142.576 22.456C142.864 21.4 143.008 20.26 143.008 19.036C143.008 16.756 142.636 15.052 141.892 13.924C141.148 12.796 139.864 12.232 138.04 12.232C137.056 12.232 136.408 12.436 136.096 12.844C135.808 13.252 135.664 14.08 135.664 15.328V33.04C135.664 33.952 135.76 34.636 135.952 35.092C136.144 35.548 136.516 35.848 137.068 35.992C137.62 36.136 138.412 36.22 139.444 36.244V37C138.748 36.952 137.848 36.928 136.744 36.928C135.64 36.904 134.5 36.892 133.324 36.892C132.316 36.892 131.344 36.904 130.408 36.928C129.472 36.928 128.656 36.952 127.96 37V36.28C128.752 36.232 129.34 36.136 129.724 35.992C130.132 35.848 130.396 35.56 130.516 35.128C130.66 34.696 130.732 34.048 130.732 33.184V15.328C130.732 14.44 130.66 13.792 130.516 13.384C130.396 12.952 130.132 12.664 129.724 12.52C129.34 12.352 128.752 12.256 127.96 12.232V11.512ZM161.157 11.512V12.232C160.269 12.256 159.585 12.352 159.105 12.52C158.649 12.664 158.337 12.952 158.169 13.384C158.025 13.792 157.953 14.44 157.953 15.328V33.184C157.953 34.024 158.013 34.672 158.133 35.128C158.253 35.56 158.469 35.86 158.781 36.028C159.093 36.196 159.573 36.28 160.221 36.28C161.541 36.28 162.549 35.992 163.245 35.416C163.965 34.84 164.457 34.048 164.721 33.04C165.009 32.008 165.153 30.844 165.153 29.548C165.153 28.108 164.985 26.86 164.649 25.804C164.337 24.748 163.797 23.944 163.029 23.392C162.261 22.816 161.181 22.528 159.789 22.528C159.333 22.528 158.853 22.54 158.349 22.564C157.845 22.564 157.365 22.564 156.909 22.564C156.453 22.564 156.069 22.564 155.757 22.564L155.685 21.88C156.621 21.88 157.521 21.88 158.385 21.88C159.273 21.856 159.969 21.844 160.473 21.844C162.273 21.844 163.797 22.036 165.045 22.42C166.293 22.78 167.301 23.284 168.069 23.932C168.861 24.58 169.437 25.348 169.797 26.236C170.157 27.1 170.337 28.048 170.337 29.08C170.337 30.064 170.157 31.024 169.797 31.96C169.461 32.896 168.897 33.748 168.105 34.516C167.337 35.26 166.317 35.86 165.045 36.316C163.773 36.772 162.201 37 160.329 37C159.777 37 159.081 36.988 158.241 36.964C157.425 36.916 156.489 36.892 155.433 36.892C154.449 36.892 153.489 36.904 152.553 36.928C151.617 36.928 150.849 36.952 150.249 37V36.28C151.041 36.232 151.629 36.136 152.013 35.992C152.421 35.848 152.685 35.56 152.805 35.128C152.949 34.696 153.021 34.048 153.021 33.184V15.328C153.021 14.44 152.949 13.792 152.805 13.384C152.685 12.952 152.421 12.664 152.013 12.52C151.629 12.352 151.041 12.256 150.249 12.232V11.512C150.849 11.536 151.617 11.56 152.553 11.584C153.489 11.608 154.497 11.62 155.577 11.62C156.633 11.62 157.665 11.608 158.673 11.584C159.681 11.56 160.509 11.536 161.157 11.512Z" fill="#252223"/>
</svg>
