<svg width="168" height="48" viewBox="0 0 168 48" fill="none" xmlns="http://www.w3.org/2000/svg">
<g clip-path="url(#clip0_641_2271)">
<path d="M17.3844 5.18987C13.7559 5.53287 10.0732 7.02218 7.23899 9.28774L6.58008 9.82028L11.2285 14.4687L15.877 19.1172L16.4998 18.8193C18.1064 18.0792 20.0019 18.0972 21.6266 18.8645L22.1321 19.1082L26.7806 14.4687L31.42 9.8293L31.0319 9.48631C30.5806 9.08916 29.2627 8.15044 28.7663 7.86161L28.4233 7.67206L23.7568 12.3386C21.1934 14.902 19.0452 17.0051 19 17.0051C18.8466 17.0051 12.4561 10.5604 12.4561 10.416C12.4561 10.1272 14.7397 9.35994 16.4637 9.06208C17.6912 8.85448 18.3231 8.8274 18.3231 8.98987C18.3231 9.05306 17.8988 9.53144 17.3753 10.055L16.4276 11.0027L17.7183 12.2934L19 13.5751L22.5202 10.055C24.4518 8.12336 26.0133 6.51671 25.9772 6.48964C25.8779 6.39035 24.3977 5.91196 23.5131 5.68631C21.6357 5.21695 19.1806 5.01838 17.3844 5.18987Z" fill="url(#paint0_linear_641_2271)"/>
<path d="M4.28757 12.2389C2.64482 14.2969 1.39018 16.8062 0.722251 19.3876C0.000161254 22.2128 -0.0359432 25.4442 0.63199 28.2693C0.848617 29.181 1.44434 30.9952 1.52558 30.9952C1.55265 30.9952 3.15028 29.4247 5.08187 27.4931L8.57498 24L7.28424 22.7092L6.00253 21.4275L5.05479 22.3753C4.53128 22.8988 4.05289 23.323 3.98068 23.323C3.71892 23.323 4.07997 20.8769 4.56738 19.3244C4.88329 18.3316 5.28947 17.456 5.43389 17.456C5.56928 17.456 12.0049 23.8646 12.0049 24C12.0049 24.0451 9.90182 26.1933 7.3384 28.7567L2.67189 33.4232L2.96976 33.9016C3.33983 34.5064 4.15218 35.6256 4.5403 36.0769L4.82914 36.4199L9.46857 31.7715L14.117 27.123L13.8192 26.5002C13.3949 25.5795 13.2415 24.713 13.3047 23.6841C13.3588 22.6912 13.4491 22.3392 13.8372 21.4907L14.117 20.8769L9.46857 16.2285L4.82011 11.58L4.28757 12.2389Z" fill="url(#paint1_linear_641_2271)"/>
<path d="M28.5318 16.2195L23.9014 20.8589L24.1812 21.4456C24.9303 23.0252 24.9123 25.1463 24.1451 26.6717L23.9014 27.1411L28.5408 31.7805L33.1712 36.4199L33.5593 35.9867C34.155 35.3278 35.3375 33.5225 35.87 32.4484C38.1717 27.8541 38.5147 22.7814 36.8539 17.8803L36.5199 16.9054L32.9726 20.4527L29.4254 24L30.7071 25.2817L31.9978 26.5724L32.9455 25.6247C33.4691 25.1012 33.9474 24.6769 34.0106 24.6769C34.1731 24.6769 34.146 25.4803 33.9474 26.6807C33.6586 28.3506 32.8914 30.5439 32.6026 30.5439C32.3769 30.5439 26.0857 24.2256 26.0857 24C26.0857 23.8826 27.7014 22.2038 30.7071 19.1981L35.3375 14.5677L35.175 14.2788C34.9584 13.8727 33.9745 12.5097 33.5322 11.9952L33.1712 11.58L28.5318 16.2195Z" fill="url(#paint2_linear_641_2271)"/>
<path d="M18.3231 20.3805C16.5811 20.7596 15.3354 22.2669 15.3354 23.9909C15.3354 25.8142 16.6533 27.3396 18.4946 27.6645C20.345 27.9985 22.3036 26.5453 22.6647 24.5686C22.8633 23.5035 22.4932 22.3572 21.6718 21.4907C21.1122 20.8949 20.5074 20.561 19.7041 20.3895C18.991 20.236 18.973 20.236 18.3231 20.3805Z" fill="url(#paint3_linear_641_2271)"/>
<path d="M11.2105 33.5497L6.58008 38.1892L7.21191 38.7037C7.90692 39.2633 9.41428 40.2923 9.54065 40.2923C9.57675 40.2923 11.7069 38.1982 14.2613 35.6438C16.8157 33.0894 18.9459 30.9953 19 30.9953C19.1535 30.9953 25.544 37.44 25.544 37.6025C25.544 37.9094 22.8722 38.7849 21.1663 39.0286C20.2817 39.155 19.677 39.1459 19.677 39.0105C19.677 38.9474 20.1012 38.469 20.6247 37.9455L21.5725 36.9977L20.2817 35.707L19 34.4253L15.4798 37.9455C13.5482 39.8771 11.9867 41.4837 12.0228 41.5108C12.1131 41.6101 13.5934 42.0885 14.496 42.3231C18.7563 43.3972 23.2243 42.9189 27.2228 40.9782C28.4594 40.3735 30.2556 39.2181 30.9867 38.5592L31.42 38.1711L26.7896 33.5407L22.1502 28.9103L21.5454 29.1901C20.5706 29.6324 19.8756 29.7588 18.7292 29.7046C17.7183 29.6595 17.1497 29.5151 16.3554 29.1089C16.1568 29.0096 15.9492 28.9193 15.9131 28.9193C15.868 28.9193 13.7559 31.0044 11.2105 33.5497Z" fill="url(#paint4_linear_641_2271)"/>
</g>
<path d="M73.112 13.512C73.016 14.736 72.944 15.912 72.896 17.04C72.872 18.168 72.86 19.032 72.86 19.632C72.86 20.16 72.872 20.664 72.896 21.144C72.92 21.624 72.944 22.032 72.968 22.368H72.14C71.756 20.352 71.264 18.756 70.664 17.58C70.088 16.404 69.392 15.576 68.576 15.096C67.76 14.592 66.8 14.34 65.696 14.34H64.868V34.896C64.868 35.856 64.964 36.576 65.156 37.056C65.372 37.536 65.756 37.86 66.308 38.028C66.86 38.172 67.664 38.256 68.72 38.28V39C67.976 38.976 66.98 38.952 65.732 38.928C64.508 38.904 63.224 38.892 61.88 38.892C60.56 38.892 59.312 38.904 58.136 38.928C56.96 38.952 56.012 38.976 55.292 39V38.28C56.372 38.256 57.188 38.172 57.74 38.028C58.292 37.86 58.664 37.536 58.856 37.056C59.048 36.576 59.144 35.856 59.144 34.896V14.34H58.352C57.248 14.34 56.288 14.592 55.472 15.096C54.656 15.576 53.96 16.404 53.384 17.58C52.808 18.732 52.304 20.328 51.872 22.368H51.044C51.092 22.032 51.116 21.624 51.116 21.144C51.14 20.664 51.152 20.16 51.152 19.632C51.152 19.032 51.128 18.168 51.08 17.04C51.056 15.912 50.996 14.736 50.9 13.512C52.004 13.536 53.204 13.56 54.5 13.584C55.82 13.608 57.14 13.62 58.46 13.62C59.78 13.62 60.968 13.62 62.024 13.62C63.104 13.62 64.292 13.62 65.588 13.62C66.908 13.62 68.228 13.608 69.548 13.584C70.868 13.56 72.056 13.536 73.112 13.512ZM98.3469 13.512V14.232C97.8189 14.424 97.2909 14.844 96.7629 15.492C96.2349 16.14 95.6229 17.1 94.9269 18.372L87.0789 34.14L86.2509 34.32L76.0629 16.428C75.6069 15.636 75.1869 15.084 74.8029 14.772C74.4189 14.46 74.0469 14.28 73.6869 14.232V13.512C74.0229 13.536 74.4669 13.56 75.0189 13.584C75.5949 13.584 76.1949 13.596 76.8189 13.62C77.4429 13.62 77.9949 13.62 78.4749 13.62C79.0269 13.62 79.6629 13.62 80.3829 13.62C81.1269 13.596 81.8469 13.584 82.5429 13.584C83.2389 13.56 83.7909 13.536 84.1989 13.512V14.232C83.7429 14.256 83.3349 14.352 82.9749 14.52C82.6389 14.688 82.4349 14.988 82.3629 15.42C82.2909 15.828 82.4229 16.392 82.7589 17.112L89.3109 28.74L87.7989 31.08L92.7669 21.036C93.6549 19.308 94.1229 17.952 94.1709 16.968C94.2189 15.984 93.9669 15.288 93.4149 14.88C92.8629 14.472 92.0949 14.256 91.1109 14.232V13.512C91.9269 13.536 92.6949 13.56 93.4149 13.584C94.1349 13.608 94.8549 13.62 95.5749 13.62C96.1269 13.62 96.6309 13.608 97.0869 13.584C97.5669 13.56 97.9869 13.536 98.3469 13.512ZM87.1509 32.34L87.8349 32.628L86.1429 36.048C85.8309 36.672 85.5549 37.164 85.3149 37.524C85.0749 37.884 84.8229 38.196 84.5589 38.46C84.1749 38.844 83.7069 39.108 83.1549 39.252C82.6269 39.42 82.0869 39.504 81.5349 39.504C80.3109 39.504 79.3389 39.216 78.6189 38.64C77.8989 38.064 77.5389 37.356 77.5389 36.516C77.5389 35.652 77.8509 34.968 78.4749 34.464C79.0989 33.936 79.8549 33.672 80.7429 33.672C81.6549 33.672 82.3989 33.876 82.9749 34.284C83.5509 34.668 83.8389 35.232 83.8389 35.976C83.8389 36.648 83.5989 37.212 83.1189 37.668C82.6629 38.124 82.0989 38.46 81.4269 38.676C81.4989 38.724 81.5949 38.76 81.7149 38.784C81.8349 38.784 81.9789 38.784 82.1469 38.784C82.8429 38.784 83.4429 38.544 83.9469 38.064C84.4749 37.56 84.9549 36.864 85.3869 35.976L87.1509 32.34ZM122.113 13.512V14.232C121.585 14.424 121.057 14.844 120.529 15.492C120.001 16.14 119.389 17.1 118.693 18.372L110.845 34.14L110.017 34.32L99.8285 16.428C99.3725 15.636 98.9525 15.084 98.5685 14.772C98.1845 14.46 97.8125 14.28 97.4525 14.232V13.512C97.7885 13.536 98.2325 13.56 98.7845 13.584C99.3605 13.584 99.9605 13.596 100.585 13.62C101.209 13.62 101.761 13.62 102.241 13.62C102.793 13.62 103.429 13.62 104.149 13.62C104.893 13.596 105.613 13.584 106.309 13.584C107.005 13.56 107.557 13.536 107.965 13.512V14.232C107.509 14.256 107.101 14.352 106.741 14.52C106.405 14.688 106.201 14.988 106.129 15.42C106.057 15.828 106.189 16.392 106.525 17.112L113.077 28.74L111.565 31.08L116.533 21.036C117.421 19.308 117.889 17.952 117.937 16.968C117.985 15.984 117.733 15.288 117.181 14.88C116.629 14.472 115.861 14.256 114.877 14.232V13.512C115.693 13.536 116.461 13.56 117.181 13.584C117.901 13.608 118.621 13.62 119.341 13.62C119.893 13.62 120.397 13.608 120.853 13.584C121.333 13.56 121.753 13.536 122.113 13.512ZM110.917 32.34L111.601 32.628L109.909 36.048C109.597 36.672 109.321 37.164 109.081 37.524C108.841 37.884 108.589 38.196 108.325 38.46C107.941 38.844 107.473 39.108 106.921 39.252C106.393 39.42 105.853 39.504 105.301 39.504C104.077 39.504 103.105 39.216 102.385 38.64C101.665 38.064 101.305 37.356 101.305 36.516C101.305 35.652 101.617 34.968 102.241 34.464C102.865 33.936 103.621 33.672 104.509 33.672C105.421 33.672 106.165 33.876 106.741 34.284C107.317 34.668 107.605 35.232 107.605 35.976C107.605 36.648 107.365 37.212 106.885 37.668C106.429 38.124 105.865 38.46 105.193 38.676C105.265 38.724 105.361 38.76 105.481 38.784C105.601 38.784 105.745 38.784 105.913 38.784C106.609 38.784 107.209 38.544 107.713 38.064C108.241 37.56 108.721 36.864 109.153 35.976L110.917 32.34ZM122.802 13.512C123.402 13.536 124.206 13.56 125.214 13.584C126.246 13.608 127.266 13.62 128.274 13.62C129.426 13.62 130.542 13.608 131.622 13.584C132.702 13.56 133.47 13.548 133.926 13.548C137.262 13.548 139.758 14.208 141.414 15.528C143.07 16.848 143.898 18.552 143.898 20.64C143.898 21.504 143.73 22.416 143.394 23.376C143.058 24.312 142.482 25.188 141.666 26.004C140.874 26.796 139.782 27.444 138.39 27.948C136.998 28.452 135.246 28.704 133.134 28.704H129.462V27.984H132.774C134.19 27.984 135.258 27.66 135.978 27.012C136.722 26.364 137.226 25.512 137.49 24.456C137.778 23.4 137.922 22.26 137.922 21.036C137.922 18.756 137.586 17.052 136.914 15.924C136.242 14.796 135.09 14.232 133.458 14.232C132.522 14.232 131.91 14.436 131.622 14.844C131.358 15.252 131.226 16.08 131.226 17.328V34.968C131.226 35.904 131.322 36.6 131.514 37.056C131.706 37.512 132.078 37.812 132.63 37.956C133.182 38.1 133.998 38.184 135.078 38.208V39C134.334 38.976 133.374 38.952 132.198 38.928C131.022 38.904 129.786 38.892 128.49 38.892C127.458 38.892 126.45 38.904 125.466 38.928C124.482 38.952 123.594 38.976 122.802 39V38.28C123.57 38.232 124.146 38.136 124.53 37.992C124.914 37.848 125.166 37.56 125.286 37.128C125.43 36.696 125.502 36.048 125.502 35.184V17.328C125.502 16.44 125.43 15.792 125.286 15.384C125.166 14.952 124.902 14.664 124.494 14.52C124.11 14.352 123.546 14.256 122.802 14.232V13.512ZM157.101 13.512V14.232C156.261 14.256 155.625 14.352 155.193 14.52C154.761 14.664 154.473 14.952 154.329 15.384C154.185 15.792 154.113 16.44 154.113 17.328V35.184C154.113 36 154.161 36.636 154.257 37.092C154.353 37.524 154.557 37.836 154.869 38.028C155.181 38.196 155.625 38.28 156.201 38.28C157.377 38.28 158.289 38.004 158.937 37.452C159.585 36.9 160.041 36.132 160.305 35.148C160.569 34.14 160.701 32.952 160.701 31.584C160.701 30.216 160.545 29.004 160.233 27.948C159.945 26.868 159.441 26.028 158.721 25.428C158.001 24.828 156.981 24.528 155.661 24.528C155.229 24.528 154.773 24.528 154.293 24.528C153.837 24.528 153.381 24.54 152.925 24.564C152.493 24.564 152.109 24.564 151.773 24.564V23.844C152.589 23.844 153.393 23.844 154.185 23.844C155.001 23.82 155.685 23.808 156.237 23.808C158.181 23.808 159.825 24 161.169 24.384C162.513 24.768 163.581 25.296 164.373 25.968C165.189 26.64 165.777 27.42 166.137 28.308C166.497 29.172 166.677 30.096 166.677 31.08C166.677 32.112 166.485 33.108 166.101 34.068C165.717 35.028 165.105 35.88 164.265 36.624C163.449 37.344 162.393 37.92 161.097 38.352C159.801 38.76 158.241 38.964 156.417 38.964C155.865 38.964 155.133 38.952 154.221 38.928C153.333 38.904 152.289 38.892 151.089 38.892C150.129 38.892 149.133 38.904 148.101 38.928C147.093 38.928 146.289 38.952 145.689 39V38.28C146.433 38.232 146.997 38.136 147.381 37.992C147.789 37.848 148.053 37.56 148.173 37.128C148.317 36.696 148.389 36.048 148.389 35.184V17.328C148.389 16.44 148.317 15.792 148.173 15.384C148.053 14.952 147.789 14.664 147.381 14.52C146.997 14.352 146.433 14.256 145.689 14.232V13.512C146.289 13.536 147.093 13.56 148.101 13.584C149.133 13.608 150.225 13.62 151.377 13.62C152.433 13.62 153.477 13.608 154.509 13.584C155.565 13.56 156.429 13.536 157.101 13.512Z" fill="white"/>
<defs>
<linearGradient id="paint0_linear_641_2271" x1="19" y1="19.1172" x2="19" y2="5.12897" gradientUnits="userSpaceOnUse">
<stop stop-color="#FFC909"/>
<stop offset="1" stop-color="#7C7AC8" stop-opacity="0.56"/>
</linearGradient>
<linearGradient id="paint1_linear_641_2271" x1="7.1359" y1="36.4199" x2="7.1359" y2="11.58" gradientUnits="userSpaceOnUse">
<stop stop-color="#FFC909"/>
<stop offset="1" stop-color="#7C7AC8" stop-opacity="0.56"/>
</linearGradient>
<linearGradient id="paint2_linear_641_2271" x1="30.8954" y1="36.4199" x2="30.8954" y2="11.58" gradientUnits="userSpaceOnUse">
<stop stop-color="#FFC909"/>
<stop offset="1" stop-color="#7C7AC8" stop-opacity="0.56"/>
</linearGradient>
<linearGradient id="paint3_linear_641_2271" x1="19.0264" y1="27.7124" x2="19.0264" y2="20.2732" gradientUnits="userSpaceOnUse">
<stop stop-color="#FFC909"/>
<stop offset="1" stop-color="#7C7AC8" stop-opacity="0.56"/>
</linearGradient>
<linearGradient id="paint4_linear_641_2271" x1="19" y1="42.8843" x2="19" y2="28.9103" gradientUnits="userSpaceOnUse">
<stop stop-color="#FFC909"/>
<stop offset="1" stop-color="#7C7AC8" stop-opacity="0.56"/>
</linearGradient>
<clipPath id="clip0_641_2271">
<rect width="38" height="38" fill="white" transform="translate(0 5)"/>
</clipPath>
</defs>
</svg>
