<svg width="519" height="116" viewBox="0 0 519 116" fill="none" xmlns="http://www.w3.org/2000/svg">
<g filter="url(#filter0_d_221_7344)">
<path d="M9.67111 37.3174V12.7333L11.1746 14.2367H0.609524V8.87294H25.2749V14.2367H14.7098L16.1727 12.7333V37.3174H9.67111ZM38.0794 37.3174V25.6958L39.5829 29.678L27.0267 8.87294H34.0565L43.6057 24.8425H39.6235L49.254 8.87294H55.6743L43.1994 29.678L44.6622 25.6958V37.3174H38.0794ZM68.4365 37.3174V25.6958L69.94 29.678L57.3838 8.87294H64.4137L73.9629 24.8425H69.9806L79.6111 8.87294H86.0314L73.5565 29.678L75.0194 25.6958V37.3174H68.4365ZM87.6041 8.87294H95.2029L101.095 17.4875L106.987 8.87294H114.708L105.24 22.4856L115.48 37.3174H107.718L101.095 27.8901L94.5527 37.3174H86.954L97.1127 22.7701L87.6041 8.87294ZM119.289 43.5752L121.971 33.8228L122.865 37.4799C121.7 37.4799 120.738 37.1413 119.98 36.464C119.248 35.7868 118.883 34.8522 118.883 33.6602C118.883 32.4683 119.262 31.5201 120.02 30.8158C120.779 30.1115 121.713 29.7593 122.824 29.7593C123.962 29.7593 124.897 30.125 125.628 30.8564C126.359 31.5608 126.725 32.4954 126.725 33.6602C126.725 34.0124 126.698 34.3646 126.644 34.7167C126.59 35.0418 126.481 35.4482 126.319 35.9358C126.183 36.3963 125.953 36.9923 125.628 37.7237L123.312 43.5752H119.289ZM159.763 37.805C157.569 37.805 155.524 37.4528 153.627 36.7485C151.758 36.0171 150.133 34.9876 148.751 33.6602C147.37 32.3328 146.286 30.7752 145.5 28.9872C144.742 27.1993 144.363 25.2353 144.363 23.0952C144.363 20.9551 144.742 18.991 145.5 17.2031C146.286 15.4152 147.37 13.8575 148.751 12.5301C150.16 11.2027 151.799 10.1868 153.668 9.48246C155.537 8.75103 157.582 8.38532 159.804 8.38532C162.269 8.38532 164.49 8.81876 166.468 9.68564C168.473 10.5254 170.152 11.7716 171.507 13.424L167.281 17.325C166.305 16.2143 165.222 15.3881 164.03 14.8463C162.838 14.2774 161.538 13.9929 160.129 13.9929C158.801 13.9929 157.582 14.2097 156.472 14.6431C155.361 15.0765 154.399 15.6996 153.587 16.5123C152.774 17.325 152.137 18.2867 151.677 19.3974C151.243 20.5081 151.027 21.7407 151.027 23.0952C151.027 24.4497 151.243 25.6822 151.677 26.7929C152.137 27.9036 152.774 28.8653 153.587 29.678C154.399 30.4907 155.361 31.1138 156.472 31.5472C157.582 31.9807 158.801 32.1974 160.129 32.1974C161.538 32.1974 162.838 31.9265 164.03 31.3847C165.222 30.8158 166.305 29.9625 167.281 28.8247L171.507 32.7256C170.152 34.3781 168.473 35.6378 166.468 36.5047C164.49 37.3716 162.255 37.805 159.763 37.805ZM190.402 37.805C188.153 37.805 186.068 37.4393 184.144 36.7079C182.248 35.9764 180.595 34.947 179.187 33.6196C177.805 32.2922 176.721 30.7345 175.936 28.9466C175.177 27.1587 174.798 25.2082 174.798 23.0952C174.798 20.9821 175.177 19.0317 175.936 17.2437C176.721 15.4558 177.819 13.8981 179.227 12.5707C180.636 11.2433 182.288 10.2139 184.185 9.48246C186.081 8.75103 188.14 8.38532 190.361 8.38532C192.61 8.38532 194.669 8.75103 196.538 9.48246C198.434 10.2139 200.073 11.2433 201.455 12.5707C202.863 13.8981 203.96 15.4558 204.746 17.2437C205.532 19.0046 205.924 20.9551 205.924 23.0952C205.924 25.2082 205.532 27.1722 204.746 28.9872C203.96 30.7752 202.863 32.3328 201.455 33.6602C200.073 34.9606 198.434 35.9764 196.538 36.7079C194.669 37.4393 192.623 37.805 190.402 37.805ZM190.361 32.1974C191.634 32.1974 192.799 31.9807 193.856 31.5472C194.939 31.1138 195.888 30.4907 196.7 29.678C197.513 28.8653 198.136 27.9036 198.57 26.7929C199.03 25.6822 199.26 24.4497 199.26 23.0952C199.26 21.7407 199.03 20.5081 198.57 19.3974C198.136 18.2867 197.513 17.325 196.7 16.5123C195.915 15.6996 194.98 15.0765 193.897 14.6431C192.813 14.2097 191.634 13.9929 190.361 13.9929C189.088 13.9929 187.91 14.2097 186.826 14.6431C185.77 15.0765 184.835 15.6996 184.022 16.5123C183.21 17.325 182.573 18.2867 182.112 19.3974C181.679 20.5081 181.462 21.7407 181.462 23.0952C181.462 24.4226 181.679 25.6552 182.112 26.7929C182.573 27.9036 183.196 28.8653 183.982 29.678C184.794 30.4907 185.742 31.1138 186.826 31.5472C187.91 31.9807 189.088 32.1974 190.361 32.1974ZM218.637 20.332H232.331V25.452H218.637V20.332ZM219.125 32.0348H234.607V37.3174H212.583V8.87294H234.079V14.1555H219.125V32.0348ZM227.455 6.35357C226.67 6.35357 226.006 6.09622 225.464 5.58151C224.922 5.0668 224.651 4.38955 224.651 3.54976C224.651 2.70997 224.922 2.03272 225.464 1.51801C226.006 1.00331 226.67 0.745952 227.455 0.745952C228.241 0.745952 228.905 1.00331 229.446 1.51801C230.015 2.03272 230.3 2.70997 230.3 3.54976C230.3 4.38955 230.015 5.0668 229.446 5.58151C228.905 6.09622 228.241 6.35357 227.455 6.35357ZM219.247 6.35357C218.461 6.35357 217.784 6.09622 217.215 5.58151C216.673 5.0668 216.403 4.38955 216.403 3.54976C216.403 2.70997 216.673 2.03272 217.215 1.51801C217.784 1.00331 218.461 0.745952 219.247 0.745952C220.033 0.745952 220.696 1.00331 221.238 1.51801C221.78 2.03272 222.051 2.70997 222.051 3.54976C222.051 4.38955 221.78 5.0668 221.238 5.58151C220.696 6.09622 220.033 6.35357 219.247 6.35357ZM241.796 37.7644C241.308 37.7644 240.794 37.7237 240.252 37.6425C239.737 37.5612 239.168 37.4528 238.545 37.3174L238.951 31.7504C239.331 31.8588 239.723 31.9129 240.13 31.9129C241.241 31.9129 242.107 31.466 242.73 30.572C243.354 29.6509 243.801 28.3371 244.071 26.6304C244.342 24.9237 244.518 22.8514 244.6 20.4133L245.006 8.87294H266.868V37.3174H260.366V12.7333L261.87 14.2367H249.313L250.654 12.652L250.41 20.1694C250.329 22.9597 250.14 25.4384 249.842 27.6056C249.544 29.7728 249.083 31.6149 248.46 33.132C247.837 34.649 246.984 35.8003 245.9 36.586C244.816 37.3716 243.448 37.7644 241.796 37.7644ZM289.172 37.805C286.923 37.805 284.837 37.4393 282.914 36.7079C281.018 35.9764 279.365 34.947 277.957 33.6196C276.575 32.2922 275.491 30.7345 274.706 28.9466C273.947 27.1587 273.568 25.2082 273.568 23.0952C273.568 20.9821 273.947 19.0317 274.706 17.2437C275.491 15.4558 276.588 13.8981 277.997 12.5707C279.406 11.2433 281.058 10.2139 282.955 9.48246C284.851 8.75103 286.91 8.38532 289.131 8.38532C291.38 8.38532 293.438 8.75103 295.308 9.48246C297.204 10.2139 298.843 11.2433 300.224 12.5707C301.633 13.8981 302.73 15.4558 303.516 17.2437C304.302 19.0046 304.694 20.9551 304.694 23.0952C304.694 25.2082 304.302 27.1722 303.516 28.9872C302.73 30.7752 301.633 32.3328 300.224 33.6602C298.843 34.9606 297.204 35.9764 295.308 36.7079C293.438 37.4393 291.393 37.805 289.172 37.805ZM289.131 32.1974C290.404 32.1974 291.569 31.9807 292.626 31.5472C293.709 31.1138 294.657 30.4907 295.47 29.678C296.283 28.8653 296.906 27.9036 297.339 26.7929C297.8 25.6822 298.03 24.4497 298.03 23.0952C298.03 21.7407 297.8 20.5081 297.339 19.3974C296.906 18.2867 296.283 17.325 295.47 16.5123C294.685 15.6996 293.75 15.0765 292.666 14.6431C291.583 14.2097 290.404 13.9929 289.131 13.9929C287.858 13.9929 286.679 14.2097 285.596 14.6431C284.539 15.0765 283.605 15.6996 282.792 16.5123C281.979 17.325 281.343 18.2867 280.882 19.3974C280.449 20.5081 280.232 21.7407 280.232 23.0952C280.232 24.4226 280.449 25.6552 280.882 26.7929C281.343 27.9036 281.966 28.8653 282.751 29.678C283.564 30.4907 284.512 31.1138 285.596 31.5472C286.679 31.9807 287.858 32.1974 289.131 32.1974ZM324.965 37.805C322.717 37.805 320.631 37.4393 318.708 36.7079C316.811 35.9764 315.159 34.947 313.75 33.6196C312.369 32.2922 311.285 30.7345 310.499 28.9466C309.741 27.1587 309.362 25.2082 309.362 23.0952C309.362 20.9821 309.741 19.0317 310.499 17.2437C311.285 15.4558 312.382 13.8981 313.791 12.5707C315.199 11.2433 316.852 10.2139 318.748 9.48246C320.645 8.75103 322.703 8.38532 324.925 8.38532C327.173 8.38532 329.232 8.75103 331.101 9.48246C332.998 10.2139 334.637 11.2433 336.018 12.5707C337.427 13.8981 338.524 15.4558 339.31 17.2437C340.095 19.0046 340.488 20.9551 340.488 23.0952C340.488 25.2082 340.095 27.1722 339.31 28.9872C338.524 30.7752 337.427 32.3328 336.018 33.6602C334.637 34.9606 332.998 35.9764 331.101 36.7079C329.232 37.4393 327.187 37.805 324.965 37.805ZM324.925 32.1974C326.198 32.1974 327.363 31.9807 328.419 31.5472C329.503 31.1138 330.451 30.4907 331.264 29.678C332.077 28.8653 332.7 27.9036 333.133 26.7929C333.594 25.6822 333.824 24.4497 333.824 23.0952C333.824 21.7407 333.594 20.5081 333.133 19.3974C332.7 18.2867 332.077 17.325 331.264 16.5123C330.478 15.6996 329.544 15.0765 328.46 14.6431C327.376 14.2097 326.198 13.9929 324.925 13.9929C323.652 13.9929 322.473 14.2097 321.39 14.6431C320.333 15.0765 319.398 15.6996 318.586 16.5123C317.773 17.325 317.136 18.2867 316.676 19.3974C316.242 20.5081 316.026 21.7407 316.026 23.0952C316.026 24.4226 316.242 25.6552 316.676 26.7929C317.136 27.9036 317.759 28.8653 318.545 29.678C319.358 30.4907 320.306 31.1138 321.39 31.5472C322.473 31.9807 323.652 32.1974 324.925 32.1974ZM366.377 37.3174V12.7333L367.881 14.2367H357.316V8.87294H381.981V14.2367H371.416L372.879 12.7333V37.3174H366.377ZM383.063 37.3174L395.741 8.87294H402.243L414.962 37.3174H408.054L397.651 12.205H400.252L389.809 37.3174H383.063ZM389.402 31.2221L391.15 26.224H405.778L407.566 31.2221H389.402ZM439.826 8.87294H446.409V37.3174H439.826V8.87294ZM426.904 37.3174H420.321V8.87294H426.904V37.3174ZM440.313 25.6552H426.416V20.0882H440.313V25.6552ZM455.123 37.3174V8.87294H461.665V27.4025L475.237 8.87294H481.413V37.3174H474.912V18.8285L461.34 37.3174H455.123ZM509.588 8.87294H516.17V37.3174H509.588V8.87294ZM496.666 37.3174H490.083V8.87294H496.666V37.3174ZM510.075 25.6552H496.178V20.0882H510.075V25.6552ZM3.53524 107.317V78.8729H8.98032L21.0895 98.9466H18.2044L30.1105 78.8729H35.5556L35.5962 107.317H29.4197L29.3791 88.3409H30.5575L21.0083 104.31H18.0825L8.33016 88.3409H9.71175V107.317H3.53524ZM49.6133 95.452V90.4133H63.673V95.452H49.6133ZM53.3517 78.3853C55.4919 78.3853 57.4559 78.751 59.2438 79.4825C61.0317 80.1868 62.5894 81.2027 63.9168 82.5301C65.2442 83.8575 66.2737 85.4152 67.0051 87.2031C67.7365 88.991 68.1022 90.9551 68.1022 93.0952C68.1022 95.2353 67.7365 97.1993 67.0051 98.9872C66.2737 100.775 65.2442 102.333 63.9168 103.66C62.5894 104.988 61.0317 106.017 59.2438 106.748C57.4559 107.453 55.4919 107.805 53.3517 107.805C50.8324 107.805 48.5568 107.372 46.5251 106.505C44.5204 105.638 42.8408 104.378 41.4864 102.726L45.6717 98.8247C46.6741 99.9625 47.7848 100.816 49.0038 101.385C50.2229 101.926 51.5638 102.197 53.0267 102.197C54.2457 102.197 55.3699 101.981 56.3994 101.547C57.4559 101.087 58.3498 100.464 59.0813 99.678C59.8398 98.8653 60.4087 97.9036 60.7879 96.7929C61.1943 95.6822 61.3975 94.4497 61.3975 93.0952C61.3975 91.7407 61.1943 90.5081 60.7879 89.3974C60.4087 88.2867 59.8398 87.3385 59.0813 86.5529C58.3498 85.7402 57.4559 85.1172 56.3994 84.6837C55.3699 84.2232 54.2457 83.9929 53.0267 83.9929C51.5638 83.9929 50.2229 84.2774 49.0038 84.8463C47.7848 85.3881 46.6741 86.2279 45.6717 87.3656L41.4864 83.4647C42.8408 81.8122 44.5204 80.5525 46.5251 79.6856C48.5568 78.8188 50.8324 78.3853 53.3517 78.3853ZM92.9057 104.392V84.2367H83.1533L83.0314 88.3815C82.9502 90.1424 82.8283 91.8084 82.6657 93.3796C82.5303 94.9508 82.3135 96.3866 82.0156 97.6869C81.7176 98.9601 81.3248 100.044 80.8371 100.938C80.3766 101.832 79.7942 102.468 79.0898 102.848L72.06 101.954C73.0352 101.981 73.8344 101.642 74.4575 100.938C75.1076 100.233 75.6223 99.2446 76.0016 97.9714C76.3809 96.671 76.6518 95.154 76.8143 93.4202C77.0039 91.6865 77.1394 89.8037 77.2206 87.772L77.5457 78.8729H99.4073V104.392H92.9057ZM71.1254 113.209L71.166 101.954H103.39V113.209H97.2943V107.317H77.2206V113.209H71.1254ZM114.772 95.452V90.4133H128.832V95.452H114.772ZM118.51 78.3853C120.651 78.3853 122.615 78.751 124.403 79.4825C126.19 80.1868 127.748 81.2027 129.076 82.5301C130.403 83.8575 131.432 85.4152 132.164 87.2031C132.895 88.991 133.261 90.9551 133.261 93.0952C133.261 95.2353 132.895 97.1993 132.164 98.9872C131.432 100.775 130.403 102.333 129.076 103.66C127.748 104.988 126.19 106.017 124.403 106.748C122.615 107.453 120.651 107.805 118.51 107.805C115.991 107.805 113.716 107.372 111.684 106.505C109.679 105.638 108 104.378 106.645 102.726L110.83 98.8247C111.833 99.9625 112.943 100.816 114.163 101.385C115.382 101.926 116.723 102.197 118.185 102.197C119.404 102.197 120.529 101.981 121.558 101.547C122.615 101.087 123.509 100.464 124.24 99.678C124.999 98.8653 125.567 97.9036 125.947 96.7929C126.353 95.6822 126.556 94.4497 126.556 93.0952C126.556 91.7407 126.353 90.5081 125.947 89.3974C125.567 88.2867 124.999 87.3385 124.24 86.5529C123.509 85.7402 122.615 85.1172 121.558 84.6837C120.529 84.2232 119.404 83.9929 118.185 83.9929C116.723 83.9929 115.382 84.2774 114.163 84.8463C112.943 85.3881 111.833 86.2279 110.83 87.3656L106.645 83.4647C108 81.8122 109.679 80.5525 111.684 79.6856C113.716 78.8188 115.991 78.3853 118.51 78.3853ZM140.004 107.317V78.8729H146.546V101.954H159.224V78.8729H165.766V107.317H140.004ZM163.775 113.331V105.773L165.197 107.317H159.224V101.954H169.83V113.331H163.775ZM175.757 107.317V78.8729H195.831L195.79 84.2367H180.756L182.259 82.7333L182.3 107.317H175.757ZM206.796 95.452V90.4133H220.856V95.452H206.796ZM210.534 78.3853C212.674 78.3853 214.638 78.751 216.426 79.4825C218.214 80.1868 219.772 81.2027 221.099 82.5301C222.427 83.8575 223.456 85.4152 224.188 87.2031C224.919 88.991 225.285 90.9551 225.285 93.0952C225.285 95.2353 224.919 97.1993 224.188 98.9872C223.456 100.775 222.427 102.333 221.099 103.66C219.772 104.988 218.214 106.017 216.426 106.748C214.638 107.453 212.674 107.805 210.534 107.805C208.015 107.805 205.739 107.372 203.708 106.505C201.703 105.638 200.023 104.378 198.669 102.726L202.854 98.8247C203.857 99.9625 204.967 100.816 206.186 101.385C207.405 101.926 208.746 102.197 210.209 102.197C211.428 102.197 212.552 101.981 213.582 101.547C214.638 101.087 215.532 100.464 216.264 99.678C217.022 98.8653 217.591 97.9036 217.97 96.7929C218.377 95.6822 218.58 94.4497 218.58 93.0952C218.58 91.7407 218.377 90.5081 217.97 89.3974C217.591 88.2867 217.022 87.3385 216.264 86.5529C215.532 85.7402 214.638 85.1172 213.582 84.6837C212.552 84.2232 211.428 83.9929 210.209 83.9929C208.746 83.9929 207.405 84.2774 206.186 84.8463C204.967 85.3881 203.857 86.2279 202.854 87.3656L198.669 83.4647C200.023 81.8122 201.703 80.5525 203.708 79.6856C205.739 78.8188 208.015 78.3853 210.534 78.3853ZM236.597 95.452V90.4133H250.657V95.452H236.597ZM240.336 78.3853C242.476 78.3853 244.44 78.751 246.228 79.4825C248.016 80.1868 249.574 81.2027 250.901 82.5301C252.228 83.8575 253.258 85.4152 253.989 87.2031C254.721 88.991 255.086 90.9551 255.086 93.0952C255.086 95.2353 254.721 97.1993 253.989 98.9872C253.258 100.775 252.228 102.333 250.901 103.66C249.574 104.988 248.016 106.017 246.228 106.748C244.44 107.453 242.476 107.805 240.336 107.805C237.817 107.805 235.541 107.372 233.509 106.505C231.505 105.638 229.825 104.378 228.47 102.726L232.656 98.8247C233.658 99.9625 234.769 100.816 235.988 101.385C237.207 101.926 238.548 102.197 240.011 102.197C241.23 102.197 242.354 101.981 243.384 101.547C244.44 101.087 245.334 100.464 246.065 99.678C246.824 98.8653 247.393 97.9036 247.772 96.7929C248.178 95.6822 248.382 94.4497 248.382 93.0952C248.382 91.7407 248.178 90.5081 247.772 89.3974C247.393 88.2867 246.824 87.3385 246.065 86.5529C245.334 85.7402 244.44 85.1172 243.384 84.6837C242.354 84.2232 241.23 83.9929 240.011 83.9929C238.548 83.9929 237.207 84.2774 235.988 84.8463C234.769 85.3881 233.658 86.2279 232.656 87.3656L228.47 83.4647C229.825 81.8122 231.505 80.5525 233.509 79.6856C235.541 78.8188 237.817 78.3853 240.336 78.3853ZM267.884 90.332H281.577V95.452H267.884V90.332ZM268.371 102.035H283.853V107.317H261.829V78.8729H283.325V84.1555H268.371V102.035ZM290.595 97.4431L289.335 78.8729H296.893L295.634 97.4431H290.595ZM293.114 107.642C291.977 107.642 291.042 107.277 290.31 106.545C289.579 105.814 289.213 104.947 289.213 103.945C289.213 102.915 289.579 102.062 290.31 101.385C291.042 100.68 291.977 100.328 293.114 100.328C294.279 100.328 295.214 100.68 295.918 101.385C296.65 102.062 297.015 102.915 297.015 103.945C297.015 104.947 296.65 105.814 295.918 106.545C295.214 107.277 294.279 107.642 293.114 107.642Z" fill="white"/>
<path d="M9.67111 37.3174H8.40127V38.5872H9.67111V37.3174ZM9.67111 12.7333L10.569 11.8353L8.40127 9.66759V12.7333H9.67111ZM11.1746 14.2367V15.5066H14.2403L12.0725 13.3388L11.1746 14.2367ZM0.609524 14.2367H-0.660317V15.5066H0.609524V14.2367ZM0.609524 8.87294V7.60309H-0.660317V8.87294H0.609524ZM25.2749 8.87294H26.5448V7.60309H25.2749V8.87294ZM25.2749 14.2367V15.5066H26.5448V14.2367H25.2749ZM14.7098 14.2367L13.7997 13.3512L11.7026 15.5066H14.7098V14.2367ZM16.1727 12.7333H17.4425V9.6072L15.2626 11.8477L16.1727 12.7333ZM16.1727 37.3174V38.5872H17.4425V37.3174H16.1727ZM10.941 37.3174V12.7333H8.40127V37.3174H10.941ZM8.7732 13.6312L10.2767 15.1347L12.0725 13.3388L10.569 11.8353L8.7732 13.6312ZM11.1746 12.9669H0.609524V15.5066H11.1746V12.9669ZM1.87937 14.2367V8.87294H-0.660317V14.2367H1.87937ZM0.609524 10.1428H25.2749V7.60309H0.609524V10.1428ZM24.0051 8.87294V14.2367H26.5448V8.87294H24.0051ZM25.2749 12.9669H14.7098V15.5066H25.2749V12.9669ZM15.62 15.1223L17.0828 13.6188L15.2626 11.8477L13.7997 13.3512L15.62 15.1223ZM14.9029 12.7333V37.3174H17.4425V12.7333H14.9029ZM16.1727 36.0475H9.67111V38.5872H16.1727V36.0475ZM38.0794 37.3174H36.8095V38.5872H38.0794V37.3174ZM38.0794 25.6958L39.2674 25.2473L36.8095 25.6958H38.0794ZM39.5829 29.678L38.4957 30.3342L40.7708 29.2295L39.5829 29.678ZM27.0267 8.87294V7.60309H24.7771L25.9395 9.52907L27.0267 8.87294ZM34.0565 8.87294L35.1464 8.22124L34.7767 7.60309H34.0565V8.87294ZM43.6057 24.8425V26.1123H45.8446L44.6956 24.1908L43.6057 24.8425ZM39.6235 24.8425L38.5361 24.1867L37.3748 26.1123H39.6235V24.8425ZM49.254 8.87294V7.60309H48.5369L48.1666 8.21717L49.254 8.87294ZM55.6743 8.87294L56.7634 9.52595L57.9163 7.60309H55.6743V8.87294ZM43.1994 29.678L42.0074 29.2402L44.2884 30.331L43.1994 29.678ZM44.6622 25.6958H45.9321L43.4703 25.2579L44.6622 25.6958ZM44.6622 37.3174V38.5872H45.9321V37.3174H44.6622ZM39.3492 37.3174V25.6958H36.8095V37.3174H39.3492ZM36.8914 26.1443L38.3949 30.1265L40.7708 29.2295L39.2674 25.2473L36.8914 26.1443ZM40.67 29.0219L28.1139 8.2168L25.9395 9.52907L38.4957 30.3342L40.67 29.0219ZM27.0267 10.1428H34.0565V7.60309H27.0267V10.1428ZM32.9667 9.52463L42.5159 25.4942L44.6956 24.1908L35.1464 8.22124L32.9667 9.52463ZM43.6057 23.5726H39.6235V26.1123H43.6057V23.5726ZM40.7109 25.4982L50.3414 9.5287L48.1666 8.21717L38.5361 24.1867L40.7109 25.4982ZM49.254 10.1428H55.6743V7.60309H49.254V10.1428ZM54.5852 8.21992L42.1103 29.025L44.2884 30.331L56.7634 9.52595L54.5852 8.21992ZM44.3913 30.1159L45.8542 26.1337L43.4703 25.2579L42.0074 29.2402L44.3913 30.1159ZM43.3924 25.6958V37.3174H45.9321V25.6958H43.3924ZM44.6622 36.0475H38.0794V38.5872H44.6622V36.0475ZM68.4365 37.3174H67.1667V38.5872H68.4365V37.3174ZM68.4365 25.6958L69.6245 25.2473L67.1667 25.6958H68.4365ZM69.94 29.678L68.8528 30.3342L71.128 29.2295L69.94 29.678ZM57.3838 8.87294V7.60309H55.1343L56.2966 9.52907L57.3838 8.87294ZM64.4137 8.87294L65.5035 8.22124L65.1339 7.60309H64.4137V8.87294ZM73.9629 24.8425V26.1123H76.2017L75.0527 24.1908L73.9629 24.8425ZM69.9806 24.8425L68.8932 24.1867L67.732 26.1123H69.9806V24.8425ZM79.6111 8.87294V7.60309H78.894L78.5237 8.21717L79.6111 8.87294ZM86.0314 8.87294L87.1205 9.52595L88.2735 7.60309H86.0314V8.87294ZM73.5565 29.678L72.3645 29.2402L74.6456 30.331L73.5565 29.678ZM75.0194 25.6958H76.2892L73.8274 25.2579L75.0194 25.6958ZM75.0194 37.3174V38.5872H76.2892V37.3174H75.0194ZM69.7064 37.3174V25.6958H67.1667V37.3174H69.7064ZM67.2485 26.1443L68.752 30.1265L71.128 29.2295L69.6245 25.2473L67.2485 26.1443ZM71.0272 29.0219L58.471 8.2168L56.2966 9.52907L68.8528 30.3342L71.0272 29.0219ZM57.3838 10.1428H64.4137V7.60309H57.3838V10.1428ZM63.3238 9.52463L72.873 25.4942L75.0527 24.1908L65.5035 8.22124L63.3238 9.52463ZM73.9629 23.5726H69.9806V26.1123H73.9629V23.5726ZM71.068 25.4982L80.6985 9.5287L78.5237 8.21717L68.8932 24.1867L71.068 25.4982ZM79.6111 10.1428H86.0314V7.60309H79.6111V10.1428ZM84.9424 8.21992L72.4674 29.025L74.6456 30.331L87.1205 9.52595L84.9424 8.21992ZM74.7485 30.1159L76.2113 26.1337L73.8274 25.2579L72.3645 29.2402L74.7485 30.1159ZM73.7495 25.6958V37.3174H76.2892V25.6958H73.7495ZM75.0194 36.0475H68.4365V38.5872H75.0194V36.0475ZM87.6041 8.87294V7.60309H85.1967L86.5561 9.58999L87.6041 8.87294ZM95.2029 8.87294L96.251 8.15605L95.8728 7.60309H95.2029V8.87294ZM101.095 17.4875L100.047 18.2044L101.095 19.7369L102.143 18.2044L101.095 17.4875ZM106.987 8.87294V7.60309H106.317L105.939 8.15605L106.987 8.87294ZM114.708 8.87294L115.75 9.59801L117.138 7.60309H114.708V8.87294ZM105.24 22.4856L104.197 21.7606L103.695 22.483L104.195 23.2071L105.24 22.4856ZM115.48 37.3174V38.5872H117.899L116.525 36.5959L115.48 37.3174ZM107.718 37.3174L106.679 38.0474L107.059 38.5872H107.718V37.3174ZM101.095 27.8901L102.134 27.1601L101.088 25.6721L100.052 27.1661L101.095 27.8901ZM94.5527 37.3174V38.5872H95.2171L95.5959 38.0414L94.5527 37.3174ZM86.954 37.3174L85.9129 36.5903L84.5184 38.5872H86.954V37.3174ZM97.1127 22.7701L98.1538 23.4971L98.6564 22.7775L98.1607 22.053L97.1127 22.7701ZM87.6041 10.1428H95.2029V7.60309H87.6041V10.1428ZM94.1547 9.58982L100.047 18.2044L102.143 16.7707L96.251 8.15605L94.1547 9.58982ZM102.143 18.2044L108.035 9.58982L105.939 8.15605L100.047 16.7707L102.143 18.2044ZM106.987 10.1428H114.708V7.60309H106.987V10.1428ZM113.665 8.14787L104.197 21.7606L106.282 23.2107L115.75 9.59801L113.665 8.14787ZM104.195 23.2071L114.435 38.0388L116.525 36.5959L106.285 21.7642L104.195 23.2071ZM115.48 36.0475H107.718V38.5872H115.48V36.0475ZM108.757 36.5874L102.134 27.1601L100.056 28.6201L106.679 38.0474L108.757 36.5874ZM100.052 27.1661L93.5095 36.5934L95.5959 38.0414L102.138 28.6141L100.052 27.1661ZM94.5527 36.0475H86.954V38.5872H94.5527V36.0475ZM87.9951 38.0444L98.1538 23.4971L96.0716 22.043L85.9129 36.5903L87.9951 38.0444ZM98.1607 22.053L88.6521 8.15588L86.5561 9.58999L96.0647 23.4871L98.1607 22.053ZM119.289 43.5752L118.065 43.2385L117.623 44.845H119.289V43.5752ZM121.971 33.8228L123.204 33.5213L122.043 28.7708L120.746 33.4861L121.971 33.8228ZM122.865 37.4799V38.7498H124.482L124.098 37.1784L122.865 37.4799ZM119.98 36.464L119.117 37.3958L119.125 37.4036L119.134 37.4113L119.98 36.464ZM120.02 30.8158L119.156 29.8853L119.156 29.8853L120.02 30.8158ZM125.628 30.8564L124.73 31.7543L124.738 31.7628L124.747 31.7711L125.628 30.8564ZM126.644 34.7167L127.896 34.9255L127.898 34.9177L127.899 34.9098L126.644 34.7167ZM126.319 35.9358L125.114 35.5342L125.107 35.5557L125.1 35.5775L126.319 35.9358ZM125.628 37.7237L124.468 37.208L124.457 37.232L124.447 37.2564L125.628 37.7237ZM123.312 43.5752V44.845H124.175L124.492 44.0425L123.312 43.5752ZM120.513 43.9119L123.195 34.1595L120.746 33.4861L118.065 43.2385L120.513 43.9119ZM120.737 34.1243L121.631 37.7815L124.098 37.1784L123.204 33.5213L120.737 34.1243ZM122.865 36.2101C121.963 36.2101 121.317 35.9561 120.825 35.5168L119.134 37.4113C120.159 38.3265 121.436 38.7498 122.865 38.7498V36.2101ZM120.842 35.5323C120.421 35.1421 120.152 34.5736 120.152 33.6602H117.613C117.613 35.1308 118.076 36.4315 119.117 37.3958L120.842 35.5323ZM120.152 33.6602C120.152 32.7627 120.425 32.1732 120.884 31.7463L119.156 29.8853C118.099 30.8671 117.613 32.1739 117.613 33.6602H120.152ZM120.884 31.7463C121.39 31.2769 122.008 31.0291 122.824 31.0291V28.4894C121.419 28.4894 120.168 28.946 119.156 29.8853L120.884 31.7463ZM122.824 31.0291C123.662 31.0291 124.262 31.286 124.73 31.7543L126.526 29.9585C125.531 28.964 124.262 28.4894 122.824 28.4894V31.0291ZM124.747 31.7711C125.193 32.2002 125.455 32.785 125.455 33.6602H127.995C127.995 32.2057 127.526 30.9214 126.509 29.9417L124.747 31.7711ZM125.455 33.6602C125.455 33.947 125.433 34.2346 125.389 34.5237L127.899 34.9098C127.963 34.4945 127.995 34.0778 127.995 33.6602H125.455ZM125.391 34.508C125.352 34.7421 125.266 35.0789 125.114 35.5342L127.523 36.3374C127.697 35.8175 127.827 35.3416 127.896 34.9255L125.391 34.508ZM125.1 35.5775C124.988 35.9607 124.783 36.4988 124.468 37.208L126.788 38.2395C127.123 37.4858 127.379 36.8319 127.537 36.2941L125.1 35.5775ZM124.447 37.2564L122.131 43.1078L124.492 44.0425L126.809 38.1911L124.447 37.2564ZM123.312 42.3053H119.289V44.845H123.312V42.3053ZM153.627 36.7485L153.165 37.931L153.175 37.935L153.185 37.9389L153.627 36.7485ZM148.751 33.6602L147.871 34.5759L147.871 34.5759L148.751 33.6602ZM145.5 28.9872L144.331 29.4832L144.334 29.4906L144.338 29.498L145.5 28.9872ZM145.5 17.2031L144.338 16.6923L144.334 16.6997L144.331 16.7072L145.5 17.2031ZM148.751 12.5301L147.88 11.6059L147.871 11.6144L148.751 12.5301ZM153.668 9.48246L154.116 10.6707L154.123 10.6679L154.131 10.665L153.668 9.48246ZM166.468 9.68564L165.958 10.8486L165.968 10.8528L165.977 10.8569L166.468 9.68564ZM171.507 13.424L172.368 14.3571L173.248 13.545L172.489 12.6191L171.507 13.424ZM167.281 17.325L166.326 18.1628L167.185 19.1411L168.142 18.2581L167.281 17.325ZM164.03 14.8463L163.483 15.9923L163.494 15.9974L163.504 16.0023L164.03 14.8463ZM153.587 16.5123L154.485 17.4102L154.485 17.4102L153.587 16.5123ZM151.677 19.3974L150.504 18.911L150.499 18.9233L150.494 18.9357L151.677 19.3974ZM151.677 26.7929L150.494 27.2546L150.499 27.267L150.504 27.2793L151.677 26.7929ZM153.587 29.678L152.689 30.5759L152.689 30.5759L153.587 29.678ZM164.03 31.3847L164.555 32.5407L164.566 32.5358L164.577 32.5307L164.03 31.3847ZM167.281 28.8247L168.142 27.8916L167.174 26.998L166.317 27.9983L167.281 28.8247ZM171.507 32.7256L172.489 33.5306L173.248 32.6047L172.368 31.7926L171.507 32.7256ZM166.468 36.5047L165.964 35.3391L165.958 35.3417L166.468 36.5047ZM159.763 36.5352C157.707 36.5352 155.813 36.2056 154.069 35.5581L153.185 37.9389C155.234 38.7001 157.431 39.0748 159.763 39.0748V36.5352ZM154.09 35.566C152.368 34.8923 150.887 33.951 149.631 32.7446L147.871 34.5759C149.379 36.0243 151.148 37.1418 153.165 37.931L154.09 35.566ZM149.631 32.7446C148.372 31.5345 147.383 30.1152 146.663 28.4764L144.338 29.498C145.189 31.4351 146.368 33.1311 147.871 34.5759L149.631 32.7446ZM146.669 28.4913C145.984 26.8755 145.632 25.0823 145.632 23.0952H143.093C143.093 25.3882 143.5 27.5231 144.331 29.4832L146.669 28.4913ZM145.632 23.0952C145.632 21.108 145.984 19.3148 146.669 17.699L144.331 16.7072C143.5 18.6673 143.093 20.8021 143.093 23.0952H145.632ZM146.663 17.7139C147.383 16.0751 148.372 14.6558 149.631 13.4458L147.871 11.6144C146.368 13.0592 145.189 14.7552 144.338 16.6923L146.663 17.7139ZM149.622 13.4543C150.905 12.2457 152.398 11.3178 154.116 10.6707L153.22 8.29418C151.199 9.05578 149.415 10.1597 147.88 11.6059L149.622 13.4543ZM154.131 10.665C155.837 9.99711 157.724 9.65516 159.804 9.65516V7.11548C157.441 7.11548 155.237 7.50495 153.205 8.29993L154.131 10.665ZM159.804 9.65516C162.118 9.65516 164.163 10.0615 165.958 10.8486L166.978 8.52263C164.818 7.57598 162.42 7.11548 159.804 7.11548V9.65516ZM165.977 10.8569C167.794 11.618 169.304 12.7398 170.525 14.229L172.489 12.6191C171 10.8033 169.151 9.43289 166.959 8.51441L165.977 10.8569ZM170.645 12.491L166.419 16.3919L168.142 18.2581L172.368 14.3571L170.645 12.491ZM168.235 16.4872C167.156 15.2587 165.931 14.3156 164.555 13.6902L163.504 16.0023C164.513 16.4606 165.455 17.1699 166.326 18.1628L168.235 16.4872ZM164.577 13.7003C163.203 13.0445 161.714 12.7231 160.129 12.7231V15.2628C161.361 15.2628 162.473 15.5103 163.483 15.9923L164.577 13.7003ZM160.129 12.7231C158.661 12.7231 157.284 12.9631 156.01 13.4601L156.933 15.8261C157.881 15.4562 158.942 15.2628 160.129 15.2628V12.7231ZM156.01 13.4601C154.742 13.955 153.63 14.6729 152.689 15.6144L154.485 17.4102C155.168 16.7263 155.98 16.1981 156.933 15.8261L156.01 13.4601ZM152.689 15.6144C151.753 16.5503 151.025 17.6537 150.504 18.911L152.85 19.8837C153.25 18.9197 153.795 18.0997 154.485 17.4102L152.689 15.6144ZM150.494 18.9357C149.996 20.2122 149.757 21.604 149.757 23.0952H152.297C152.297 21.8773 152.491 20.8039 152.86 19.859L150.494 18.9357ZM149.757 23.0952C149.757 24.5863 149.996 25.9781 150.494 27.2546L152.86 26.3313C152.491 25.3864 152.297 24.313 152.297 23.0952H149.757ZM150.504 27.2793C151.025 28.5367 151.753 29.64 152.689 30.5759L154.485 28.7801C153.795 28.0906 153.25 27.2706 152.85 26.3066L150.504 27.2793ZM152.689 30.5759C153.63 31.5174 154.742 32.2353 156.01 32.7302L156.933 30.3643C155.98 29.9922 155.168 29.464 154.485 28.7801L152.689 30.5759ZM156.01 32.7302C157.284 33.2272 158.661 33.4672 160.129 33.4672V30.9275C158.942 30.9275 157.881 30.7341 156.933 30.3643L156.01 32.7302ZM160.129 33.4672C161.705 33.4672 163.186 33.1631 164.555 32.5407L163.504 30.2287C162.49 30.6899 161.37 30.9275 160.129 30.9275V33.4672ZM164.577 32.5307C165.949 31.8759 167.17 30.9052 168.245 29.6511L166.317 27.9983C165.441 29.0197 164.495 29.7557 163.483 30.2387L164.577 32.5307ZM166.419 29.7578L170.645 33.6587L172.368 31.7926L168.142 27.8916L166.419 29.7578ZM170.525 31.9206C169.301 33.413 167.787 34.5508 165.964 35.3392L166.972 37.6702C169.158 36.7248 171.003 35.3432 172.489 33.5306L170.525 31.9206ZM165.958 35.3417C164.164 36.1281 162.107 36.5352 159.763 36.5352V39.0748C162.404 39.0748 164.817 38.6151 166.978 37.6677L165.958 35.3417ZM184.144 36.7079L183.687 37.8926L183.693 37.8948L184.144 36.7079ZM179.187 33.6196L178.307 34.5353L178.316 34.5438L179.187 33.6196ZM175.936 28.9466L174.767 29.4425L174.77 29.45L174.773 29.4574L175.936 28.9466ZM175.936 17.2437L174.773 16.7329L174.77 16.7403L174.767 16.7478L175.936 17.2437ZM179.227 12.5707L178.356 11.6465L178.356 11.6465L179.227 12.5707ZM184.185 9.48246L183.728 8.29769L183.728 8.29769L184.185 9.48246ZM196.538 9.48246L196.075 10.665L196.081 10.6672L196.538 9.48246ZM201.455 12.5707L200.575 13.4864L200.584 13.4949L201.455 12.5707ZM204.746 17.2437L203.583 17.7546L203.586 17.7611L204.746 17.2437ZM204.746 28.9872L205.909 29.4981L205.911 29.4916L204.746 28.9872ZM201.455 33.6602L202.325 34.5849L202.325 34.5844L201.455 33.6602ZM196.538 36.7079L196.081 35.5231L196.075 35.5253L196.538 36.7079ZM193.856 31.5472L193.384 30.3682L193.374 30.3724L193.856 31.5472ZM196.7 29.678L195.802 28.7801L195.802 28.7801L196.7 29.678ZM198.57 26.7929L197.397 26.3066L197.391 26.3189L197.387 26.3313L198.57 26.7929ZM198.57 19.3974L197.387 19.859L197.391 19.8714L197.397 19.8838L198.57 19.3974ZM196.7 16.5123L195.787 17.3949L195.795 17.4026L195.802 17.4102L196.7 16.5123ZM193.897 14.6431L193.425 15.8221L193.425 15.8221L193.897 14.6431ZM186.826 14.6431L186.354 13.464L186.344 13.4683L186.826 14.6431ZM184.022 16.5123L184.92 17.4102L184.92 17.4102L184.022 16.5123ZM182.112 19.3974L180.939 18.911L180.934 18.9233L180.929 18.9357L182.112 19.3974ZM182.112 26.7929L180.926 27.245L180.932 27.2623L180.939 27.2793L182.112 26.7929ZM183.982 29.678L183.069 30.5606L183.076 30.5683L183.084 30.5759L183.982 29.678ZM186.826 31.5472L187.298 30.3682L187.298 30.3682L186.826 31.5472ZM190.402 36.5352C188.293 36.5352 186.362 36.1927 184.595 35.5209L183.693 37.8948C185.773 38.6859 188.014 39.0748 190.402 39.0748V36.5352ZM184.601 35.5231C182.851 34.8479 181.34 33.9044 180.058 32.6954L178.316 34.5438C179.85 35.9897 181.645 37.105 183.687 37.8926L184.601 35.5231ZM180.066 32.7039C178.807 31.4939 177.819 30.0746 177.098 28.4358L174.773 29.4574C175.624 31.3945 176.803 33.0905 178.307 34.5353L180.066 32.7039ZM177.105 28.4507C176.419 26.8329 176.068 25.0529 176.068 23.0952H173.528C173.528 25.3635 173.936 27.4844 174.767 29.4425L177.105 28.4507ZM176.068 23.0952C176.068 21.1374 176.419 19.3574 177.105 17.7397L174.767 16.7478C173.936 18.7059 173.528 20.8269 173.528 23.0952H176.068ZM177.098 17.7546C177.816 16.1211 178.815 14.7044 180.098 13.4949L178.356 11.6465C176.823 13.0918 175.627 14.7905 174.773 16.7329L177.098 17.7546ZM180.098 13.4949C181.381 12.2859 182.891 11.3424 184.642 10.6672L183.728 8.29769C181.686 9.08533 179.891 10.2007 178.356 11.6465L180.098 13.4949ZM184.642 10.6672C186.379 9.99704 188.282 9.65516 190.361 9.65516V7.11548C187.998 7.11548 185.783 7.50502 183.728 8.29769L184.642 10.6672ZM190.361 9.65516C192.47 9.65516 194.37 9.99779 196.075 10.665L197.001 8.29993C194.967 7.50428 192.749 7.11548 190.361 7.11548V9.65516ZM196.081 10.6672C197.829 11.3417 199.322 12.2829 200.575 13.4864L202.334 11.655C200.824 10.2037 199.039 9.08609 196.995 8.29769L196.081 10.6672ZM200.584 13.4949C201.867 14.7044 202.866 16.1211 203.583 17.7546L205.909 16.7329C205.055 14.7905 203.859 13.0918 202.325 11.6465L200.584 13.4949ZM203.586 17.7611C204.292 19.3421 204.655 21.1136 204.655 23.0952H207.194C207.194 20.7965 206.772 18.6671 205.906 16.7263L203.586 17.7611ZM204.655 23.0952C204.655 25.0467 204.293 26.8377 203.581 28.4828L205.911 29.4916C206.771 27.5067 207.194 25.3696 207.194 23.0952H204.655ZM203.583 28.4764C202.866 30.1098 201.867 31.5266 200.584 32.7361L202.325 34.5844C203.859 33.1391 205.055 31.4405 205.909 29.498L203.583 28.4764ZM200.584 32.7355C199.331 33.9154 197.835 34.8465 196.081 35.5231L196.995 37.8926C199.033 37.1063 200.815 36.0057 202.325 34.5849L200.584 32.7355ZM196.075 35.5253C194.368 36.1932 192.482 36.5352 190.402 36.5352V39.0748C192.765 39.0748 194.969 38.6854 197.001 37.8904L196.075 35.5253ZM190.361 33.4672C191.781 33.4672 193.112 33.2251 194.338 32.722L193.374 30.3724C192.487 30.7363 191.488 30.9275 190.361 30.9275V33.4672ZM194.327 32.7262C195.568 32.2299 196.662 31.5121 197.598 30.5759L195.802 28.7801C195.113 29.4693 194.311 29.9976 193.384 30.3682L194.327 32.7262ZM197.598 30.5759C198.54 29.6344 199.258 28.5226 199.752 27.2546L197.387 26.3313C197.015 27.2847 196.486 28.0962 195.802 28.7801L197.598 30.5759ZM199.743 27.2793C200.275 25.9961 200.53 24.5955 200.53 23.0952H197.99C197.99 24.3038 197.786 25.3684 197.397 26.3066L199.743 27.2793ZM200.53 23.0952C200.53 21.5948 200.275 20.1942 199.743 18.911L197.397 19.8838C197.786 20.8219 197.99 21.8865 197.99 23.0952H200.53ZM199.752 18.9357C199.258 17.6677 198.54 16.5559 197.598 15.6144L195.802 17.4102C196.486 18.0941 197.015 18.9056 197.387 19.859L199.752 18.9357ZM197.613 15.6297C196.699 14.6839 195.613 13.9619 194.368 13.4641L193.425 15.8221C194.348 16.1912 195.13 16.7153 195.787 17.3949L197.613 15.6297ZM194.368 13.4641C193.121 12.9654 191.781 12.7231 190.361 12.7231V15.2628C191.488 15.2628 192.504 15.4539 193.425 15.8221L194.368 13.4641ZM190.361 12.7231C188.941 12.7231 187.601 12.9654 186.354 13.4641L187.298 15.8221C188.218 15.4539 189.235 15.2628 190.361 15.2628V12.7231ZM186.344 13.4683C185.131 13.966 184.055 14.6835 183.124 15.6144L184.92 17.4102C185.615 16.7157 186.408 16.1871 187.308 15.8179L186.344 13.4683ZM183.124 15.6144C182.188 16.5503 181.461 17.6537 180.939 18.911L183.285 19.8837C183.685 18.9197 184.231 18.0997 184.92 17.4102L183.124 15.6144ZM180.929 18.9357C180.431 20.2122 180.192 21.604 180.192 23.0952H182.732C182.732 21.8773 182.927 20.8039 183.295 19.859L180.929 18.9357ZM180.192 23.0952C180.192 24.5631 180.433 25.9503 180.926 27.245L183.299 26.3409C182.925 25.36 182.732 24.282 182.732 23.0952H180.192ZM180.939 27.2793C181.457 28.5277 182.165 29.6261 183.069 30.5606L184.895 28.7954C184.227 28.1045 183.689 27.2795 183.285 26.3066L180.939 27.2793ZM183.084 30.5759C184.02 31.5121 185.114 32.2299 186.354 32.7262L187.298 30.3682C186.371 29.9976 185.569 29.4693 184.88 28.7801L183.084 30.5759ZM186.354 32.7262C187.601 33.2249 188.941 33.4672 190.361 33.4672V30.9275C189.235 30.9275 188.218 30.7364 187.298 30.3682L186.354 32.7262ZM218.637 20.332V19.0621H217.368V20.332H218.637ZM232.331 20.332H233.601V19.0621H232.331V20.332ZM232.331 25.452V26.7218H233.601V25.452H232.331ZM218.637 25.452H217.368V26.7218H218.637V25.452ZM219.125 32.0348H217.855V33.3047H219.125V32.0348ZM234.607 32.0348H235.877V30.765H234.607V32.0348ZM234.607 37.3174V38.5872H235.877V37.3174H234.607ZM212.583 37.3174H211.313V38.5872H212.583V37.3174ZM212.583 8.87294V7.60309H211.313V8.87294H212.583ZM234.079 8.87294H235.349V7.60309H234.079V8.87294ZM234.079 14.1555V15.4253H235.349V14.1555H234.079ZM219.125 14.1555V12.8856H217.855V14.1555H219.125ZM225.464 5.58151L224.59 6.50214L225.464 5.58151ZM225.464 1.51801L226.339 2.43865L225.464 1.51801ZM229.446 1.51801L228.572 2.43865L228.583 2.44929L228.594 2.45965L229.446 1.51801ZM229.446 5.58151L228.594 4.63988L228.583 4.65024L228.572 4.66087L229.446 5.58151ZM217.215 5.58151L216.341 6.50214L216.352 6.51278L216.363 6.52314L217.215 5.58151ZM217.215 1.51801L216.363 0.576382L216.352 0.586743L216.341 0.597381L217.215 1.51801ZM221.238 5.58151L222.113 6.50214L221.238 5.58151ZM218.637 21.6018H232.331V19.0621H218.637V21.6018ZM231.062 20.332V25.452H233.601V20.332H231.062ZM232.331 24.1821H218.637V26.7218H232.331V24.1821ZM219.907 25.452V20.332H217.368V25.452H219.907ZM219.125 33.3047H234.607V30.765H219.125V33.3047ZM233.337 32.0348V37.3174H235.877V32.0348H233.337ZM234.607 36.0475H212.583V38.5872H234.607V36.0475ZM213.853 37.3174V8.87294H211.313V37.3174H213.853ZM212.583 10.1428H234.079V7.60309H212.583V10.1428ZM232.809 8.87294V14.1555H235.349V8.87294H232.809ZM234.079 12.8856H219.125V15.4253H234.079V12.8856ZM217.855 14.1555V32.0348H220.395V14.1555H217.855ZM227.455 5.08373C226.977 5.08373 226.632 4.93901 226.339 4.66087L224.59 6.50214C225.38 7.25342 226.363 7.62341 227.455 7.62341V5.08373ZM226.339 4.66087C226.082 4.41671 225.921 4.08889 225.921 3.54976H223.382C223.382 4.69021 223.763 5.71688 224.59 6.50214L226.339 4.66087ZM225.921 3.54976C225.921 3.01063 226.082 2.68281 226.339 2.43865L224.59 0.59738C223.763 1.38264 223.382 2.40932 223.382 3.54976H225.921ZM226.339 2.43865C226.632 2.16051 226.977 2.01579 227.455 2.01579V-0.52389C226.363 -0.52389 225.38 -0.153897 224.59 0.59738L226.339 2.43865ZM227.455 2.01579C227.934 2.01579 228.279 2.16051 228.572 2.43865L230.321 0.59738C229.53 -0.153897 228.548 -0.52389 227.455 -0.52389V2.01579ZM228.594 2.45965C228.87 2.70926 229.03 3.03082 229.03 3.54976H231.57C231.57 2.38913 231.16 1.35618 230.298 0.576383L228.594 2.45965ZM229.03 3.54976C229.03 4.06871 228.87 4.39026 228.594 4.63988L230.298 6.52314C231.16 5.74334 231.57 4.71039 231.57 3.54976H229.03ZM228.572 4.66087C228.279 4.93901 227.934 5.08373 227.455 5.08373V7.62341C228.548 7.62341 229.53 7.25342 230.321 6.50214L228.572 4.66087ZM219.247 5.08373C218.768 5.08373 218.396 4.93781 218.067 4.63987L216.363 6.52314C217.172 7.25462 218.155 7.62341 219.247 7.62341V5.08373ZM218.09 4.66087C217.833 4.41672 217.672 4.08889 217.672 3.54976H215.133C215.133 4.69021 215.514 5.71688 216.341 6.50214L218.09 4.66087ZM217.672 3.54976C217.672 3.01063 217.833 2.68281 218.09 2.43865L216.341 0.597381C215.514 1.38264 215.133 2.40932 215.133 3.54976H217.672ZM218.067 2.45965C218.396 2.16171 218.768 2.01579 219.247 2.01579V-0.52389C218.155 -0.52389 217.172 -0.1551 216.363 0.576382L218.067 2.45965ZM219.247 2.01579C219.725 2.01579 220.071 2.16051 220.363 2.43865L222.113 0.59738C221.322 -0.153897 220.34 -0.52389 219.247 -0.52389V2.01579ZM220.363 2.43865C220.621 2.68281 220.781 3.01063 220.781 3.54976H223.321C223.321 2.40932 222.939 1.38264 222.113 0.59738L220.363 2.43865ZM220.781 3.54976C220.781 4.08889 220.621 4.41671 220.363 4.66087L222.113 6.50214C222.939 5.71688 223.321 4.69021 223.321 3.54976H220.781ZM220.363 4.66087C220.071 4.93901 219.725 5.08373 219.247 5.08373V7.62341C220.34 7.62341 221.322 7.25342 222.113 6.50214L220.363 4.66087ZM240.252 37.6425L240.054 38.8968L240.063 38.8983L240.252 37.6425ZM238.545 37.3174L237.279 37.2249L237.198 38.3241L238.275 38.5582L238.545 37.3174ZM238.951 31.7504L239.3 30.5294L237.799 30.1004L237.685 31.658L238.951 31.7504ZM242.73 30.572L243.772 31.2981L243.777 31.2908L243.782 31.2835L242.73 30.572ZM244.071 26.6304L242.817 26.4313L242.817 26.4313L244.071 26.6304ZM244.6 20.4133L243.331 20.3686L243.331 20.371L244.6 20.4133ZM245.006 8.87294V7.60309H243.78L243.737 8.82825L245.006 8.87294ZM266.868 8.87294H268.137V7.60309H266.868V8.87294ZM266.868 37.3174V38.5872H268.137V37.3174H266.868ZM260.366 37.3174H259.096V38.5872H260.366V37.3174ZM260.366 12.7333L261.264 11.8353L259.096 9.66759V12.7333H260.366ZM261.87 14.2367V15.5066H264.935L262.767 13.3388L261.87 14.2367ZM249.313 14.2367L248.344 13.4165L246.575 15.5066H249.313V14.2367ZM250.654 12.652L251.923 12.6931L252.042 9.0464L249.685 11.8317L250.654 12.652ZM250.41 20.1694L249.141 20.1283L249.141 20.1325L250.41 20.1694ZM249.842 27.6056L251.1 27.7786L251.1 27.7786L249.842 27.6056ZM248.46 33.132L247.285 32.6495L247.285 32.6495L248.46 33.132ZM245.9 36.586L245.155 35.5579L245.9 36.586ZM241.796 36.4945C241.378 36.4945 240.927 36.4597 240.44 36.3867L240.063 38.8983C240.66 38.9878 241.238 39.0342 241.796 39.0342V36.4945ZM240.45 36.3882C239.964 36.3114 239.419 36.2079 238.815 36.0765L238.275 38.5582C238.917 38.6978 239.51 38.811 240.054 38.8968L240.45 36.3882ZM239.812 37.4098L240.218 31.8428L237.685 31.658L237.279 37.2249L239.812 37.4098ZM238.603 32.9714C239.099 33.1131 239.609 33.1828 240.13 33.1828V30.6431C239.838 30.6431 239.563 30.6044 239.3 30.5294L238.603 32.9714ZM240.13 33.1828C241.646 33.1828 242.906 32.5405 243.772 31.2981L241.689 29.8459C241.309 30.3914 240.835 30.6431 240.13 30.6431V33.1828ZM243.782 31.2835C244.551 30.1468 245.04 28.6283 245.326 26.8295L242.817 26.4313C242.561 28.0458 242.156 29.155 241.679 29.8605L243.782 31.2835ZM245.326 26.8295C245.607 25.0547 245.786 22.9267 245.869 20.4556L243.331 20.371C243.25 22.776 243.077 24.7928 242.817 26.4313L245.326 26.8295ZM245.869 20.4579L246.275 8.91762L243.737 8.82825L243.331 20.3686L245.869 20.4579ZM245.006 10.1428H266.868V7.60309H245.006V10.1428ZM265.598 8.87294V37.3174H268.137V8.87294H265.598ZM266.868 36.0475H260.366V38.5872H266.868V36.0475ZM261.636 37.3174V12.7333H259.096V37.3174H261.636ZM259.468 13.6312L260.972 15.1347L262.767 13.3388L261.264 11.8353L259.468 13.6312ZM261.87 12.9669H249.313V15.5066H261.87V12.9669ZM250.283 15.057L251.624 13.4722L249.685 11.8317L248.344 13.4165L250.283 15.057ZM249.385 12.6108L249.141 20.1283L251.68 20.2106L251.923 12.6931L249.385 12.6108ZM249.141 20.1325C249.061 22.889 248.874 25.3209 248.584 27.4327L251.1 27.7786C251.405 25.556 251.598 23.0305 251.68 20.2064L249.141 20.1325ZM248.584 27.4327C248.296 29.5266 247.857 31.2584 247.285 32.6495L249.635 33.6144C250.309 31.9715 250.792 30.0191 251.1 27.7786L248.584 27.4327ZM247.285 32.6495C246.732 33.9976 246.008 34.939 245.155 35.5579L246.645 37.614C247.959 36.6617 248.942 35.3005 249.635 33.6144L247.285 32.6495ZM245.155 35.5579C244.334 36.1526 243.244 36.4945 241.796 36.4945V39.0342C243.652 39.0342 245.299 38.5905 246.645 37.614L245.155 35.5579ZM282.914 36.7079L282.457 37.8926L282.463 37.8948L282.914 36.7079ZM277.957 33.6196L277.077 34.5353L277.086 34.5438L277.957 33.6196ZM274.706 28.9466L273.537 29.4425L273.54 29.45L273.543 29.4574L274.706 28.9466ZM274.706 17.2437L273.543 16.7329L273.54 16.7403L273.537 16.7478L274.706 17.2437ZM277.997 12.5707L277.126 11.6465L277.126 11.6465L277.997 12.5707ZM282.955 9.48246L282.498 8.29769L282.498 8.29769L282.955 9.48246ZM295.308 9.48246L294.845 10.665L294.851 10.6672L295.308 9.48246ZM300.224 12.5707L299.345 13.4864L299.354 13.4949L300.224 12.5707ZM303.516 17.2437L302.353 17.7546L302.356 17.7611L303.516 17.2437ZM303.516 28.9872L304.678 29.4981L304.681 29.4916L303.516 28.9872ZM300.224 33.6602L301.095 34.5849L301.095 34.5844L300.224 33.6602ZM295.308 36.7079L294.851 35.5231L294.845 35.5253L295.308 36.7079ZM292.626 31.5472L292.154 30.3682L292.144 30.3724L292.626 31.5472ZM295.47 29.678L294.572 28.7801L294.572 28.7801L295.47 29.678ZM297.339 26.7929L296.166 26.3066L296.161 26.3189L296.156 26.3313L297.339 26.7929ZM297.339 19.3974L296.156 19.859L296.161 19.8714L296.166 19.8838L297.339 19.3974ZM295.47 16.5123L294.557 17.3949L294.565 17.4026L294.572 17.4102L295.47 16.5123ZM292.666 14.6431L292.195 15.8221L292.195 15.8221L292.666 14.6431ZM285.596 14.6431L285.124 13.464L285.114 13.4683L285.596 14.6431ZM282.792 16.5123L283.69 17.4102L283.69 17.4102L282.792 16.5123ZM280.882 19.3974L279.709 18.911L279.704 18.9233L279.699 18.9357L280.882 19.3974ZM280.882 26.7929L279.696 27.245L279.702 27.2623L279.709 27.2793L280.882 26.7929ZM282.751 29.678L281.838 30.5606L281.846 30.5683L281.854 30.5759L282.751 29.678ZM285.596 31.5472L286.068 30.3682L286.068 30.3682L285.596 31.5472ZM289.172 36.5352C287.063 36.5352 285.132 36.1927 283.365 35.5209L282.463 37.8948C284.543 38.6859 286.783 39.0748 289.172 39.0748V36.5352ZM283.371 35.5231C281.62 34.8479 280.11 33.9044 278.827 32.6954L277.086 34.5438C278.62 35.9897 280.415 37.105 282.457 37.8926L283.371 35.5231ZM278.836 32.7039C277.577 31.4939 276.588 30.0746 275.868 28.4358L273.543 29.4574C274.394 31.3945 275.573 33.0905 277.077 34.5353L278.836 32.7039ZM275.875 28.4507C275.188 26.8329 274.838 25.0529 274.838 23.0952H272.298C272.298 25.3635 272.706 27.4844 273.537 29.4425L275.875 28.4507ZM274.838 23.0952C274.838 21.1374 275.188 19.3574 275.875 17.7397L273.537 16.7478C272.706 18.7059 272.298 20.8269 272.298 23.0952H274.838ZM275.868 17.7546C276.586 16.1211 277.584 14.7044 278.868 13.4949L277.126 11.6465C275.593 13.0918 274.397 14.7905 273.543 16.7329L275.868 17.7546ZM278.868 13.4949C280.151 12.2859 281.661 11.3424 283.412 10.6672L282.498 8.29769C280.456 9.08533 278.661 10.2007 277.126 11.6465L278.868 13.4949ZM283.412 10.6672C285.149 9.99704 287.051 9.65516 289.131 9.65516V7.11548C286.768 7.11548 284.553 7.50502 282.498 8.29769L283.412 10.6672ZM289.131 9.65516C291.24 9.65516 293.14 9.99779 294.845 10.665L295.77 8.29993C293.737 7.50428 291.519 7.11548 289.131 7.11548V9.65516ZM294.851 10.6672C296.599 11.3417 298.092 12.2829 299.345 13.4864L301.104 11.655C299.594 10.2037 297.809 9.08609 295.765 8.29769L294.851 10.6672ZM299.354 13.4949C300.637 14.7044 301.636 16.1211 302.353 17.7546L304.678 16.7329C303.825 14.7905 302.629 13.0918 301.095 11.6465L299.354 13.4949ZM302.356 17.7611C303.062 19.3421 303.424 21.1136 303.424 23.0952H305.964C305.964 20.7965 305.541 18.6671 304.676 16.7263L302.356 17.7611ZM303.424 23.0952C303.424 25.0467 303.063 26.8377 302.351 28.4828L304.681 29.4916C305.54 27.5067 305.964 25.3696 305.964 23.0952H303.424ZM302.353 28.4764C301.636 30.1098 300.637 31.5266 299.354 32.7361L301.095 34.5844C302.629 33.1391 303.825 31.4405 304.678 29.498L302.353 28.4764ZM299.354 32.7355C298.101 33.9154 296.605 34.8465 294.851 35.5231L295.765 37.8926C297.803 37.1063 299.585 36.0057 301.095 34.5849L299.354 32.7355ZM294.845 35.5253C293.138 36.1932 291.252 36.5352 289.172 36.5352V39.0748C291.535 39.0748 293.739 38.6854 295.77 37.8904L294.845 35.5253ZM289.131 33.4672C290.551 33.4672 291.882 33.2251 293.108 32.722L292.144 30.3724C291.257 30.7363 290.258 30.9275 289.131 30.9275V33.4672ZM293.097 32.7262C294.338 32.2299 295.432 31.5121 296.368 30.5759L294.572 28.7801C293.883 29.4693 293.081 29.9976 292.154 30.3682L293.097 32.7262ZM296.368 30.5759C297.31 29.6344 298.028 28.5226 298.522 27.2546L296.156 26.3313C295.784 27.2847 295.256 28.0962 294.572 28.7801L296.368 30.5759ZM298.512 27.2793C299.044 25.9961 299.3 24.5955 299.3 23.0952H296.76C296.76 24.3038 296.555 25.3684 296.166 26.3066L298.512 27.2793ZM299.3 23.0952C299.3 21.5948 299.044 20.1942 298.512 18.911L296.166 19.8838C296.555 20.8219 296.76 21.8865 296.76 23.0952H299.3ZM298.522 18.9357C298.028 17.6677 297.31 16.5559 296.368 15.6144L294.572 17.4102C295.256 18.0941 295.784 18.9056 296.156 19.859L298.522 18.9357ZM296.383 15.6297C295.469 14.6839 294.382 13.9619 293.138 13.4641L292.195 15.8221C293.118 16.1912 293.9 16.7153 294.557 17.3949L296.383 15.6297ZM293.138 13.4641C291.891 12.9654 290.551 12.7231 289.131 12.7231V15.2628C290.258 15.2628 291.274 15.4539 292.195 15.8221L293.138 13.4641ZM289.131 12.7231C287.711 12.7231 286.371 12.9654 285.124 13.4641L286.068 15.8221C286.988 15.4539 288.005 15.2628 289.131 15.2628V12.7231ZM285.114 13.4683C283.901 13.966 282.825 14.6835 281.894 15.6144L283.69 17.4102C284.385 16.7157 285.178 16.1871 286.078 15.8179L285.114 13.4683ZM281.894 15.6144C280.958 16.5503 280.231 17.6537 279.709 18.911L282.055 19.8837C282.455 18.9197 283.001 18.0997 283.69 17.4102L281.894 15.6144ZM279.699 18.9357C279.201 20.2122 278.962 21.604 278.962 23.0952H281.502C281.502 21.8773 281.696 20.8039 282.065 19.859L279.699 18.9357ZM278.962 23.0952C278.962 24.5631 279.202 25.9503 279.696 27.245L282.069 26.3409C281.695 25.36 281.502 24.282 281.502 23.0952H278.962ZM279.709 27.2793C280.227 28.5277 280.935 29.6261 281.838 30.5606L283.664 28.7954C282.997 28.1045 282.459 27.2795 282.055 26.3066L279.709 27.2793ZM281.854 30.5759C282.79 31.5121 283.884 32.2299 285.124 32.7262L286.068 30.3682C285.141 29.9976 284.339 29.4693 283.649 28.7801L281.854 30.5759ZM285.124 32.7262C286.371 33.2249 287.711 33.4672 289.131 33.4672V30.9275C288.005 30.9275 286.988 30.7364 286.068 30.3682L285.124 32.7262ZM318.708 36.7079L318.251 37.8926L318.256 37.8948L318.708 36.7079ZM313.75 33.6196L312.87 34.5353L312.879 34.5438L313.75 33.6196ZM310.499 28.9466L309.33 29.4425L309.334 29.45L309.337 29.4574L310.499 28.9466ZM310.499 17.2437L309.337 16.7329L309.334 16.7403L309.33 16.7478L310.499 17.2437ZM313.791 12.5707L312.92 11.6465L312.92 11.6465L313.791 12.5707ZM318.748 9.48246L318.291 8.29769L318.291 8.29769L318.748 9.48246ZM331.101 9.48246L330.639 10.665L330.644 10.6672L331.101 9.48246ZM336.018 12.5707L335.138 13.4864L335.147 13.4949L336.018 12.5707ZM339.31 17.2437L338.147 17.7546L338.15 17.7611L339.31 17.2437ZM339.31 28.9872L340.472 29.4981L340.475 29.4916L339.31 28.9872ZM336.018 33.6602L336.888 34.5849L336.889 34.5844L336.018 33.6602ZM331.101 36.7079L330.644 35.5231L330.639 35.5253L331.101 36.7079ZM328.419 31.5472L327.948 30.3682L327.937 30.3724L328.419 31.5472ZM331.264 29.678L330.366 28.7801L330.366 28.7801L331.264 29.678ZM333.133 26.7929L331.96 26.3066L331.955 26.3189L331.95 26.3313L333.133 26.7929ZM333.133 19.3974L331.95 19.859L331.955 19.8714L331.96 19.8838L333.133 19.3974ZM331.264 16.5123L330.351 17.3949L330.358 17.4026L330.366 17.4102L331.264 16.5123ZM328.46 14.6431L327.988 15.8221L327.988 15.8221L328.46 14.6431ZM321.39 14.6431L320.918 13.464L320.908 13.4683L321.39 14.6431ZM318.586 16.5123L319.484 17.4102L319.484 17.4102L318.586 16.5123ZM316.676 19.3974L315.503 18.911L315.498 18.9233L315.493 18.9357L316.676 19.3974ZM316.676 26.7929L315.489 27.245L315.496 27.2623L315.503 27.2793L316.676 26.7929ZM318.545 29.678L317.632 30.5606L317.64 30.5683L317.647 30.5759L318.545 29.678ZM321.39 31.5472L321.861 30.3682L321.861 30.3682L321.39 31.5472ZM324.965 36.5352C322.857 36.5352 320.925 36.1927 319.159 35.5209L318.256 37.8948C320.337 38.6859 322.577 39.0748 324.965 39.0748V36.5352ZM319.165 35.5231C317.414 34.8479 315.904 33.9044 314.621 32.6954L312.879 34.5438C314.414 35.9897 316.209 37.105 318.251 37.8926L319.165 35.5231ZM314.63 32.7039C313.371 31.4939 312.382 30.0746 311.662 28.4358L309.337 29.4574C310.188 31.3945 311.367 33.0905 312.87 34.5353L314.63 32.7039ZM311.668 28.4507C310.982 26.8329 310.631 25.0529 310.631 23.0952H308.092C308.092 25.3635 308.5 27.4844 309.33 29.4425L311.668 28.4507ZM310.631 23.0952C310.631 21.1374 310.982 19.3574 311.668 17.7397L309.33 16.7478C308.5 18.7059 308.092 20.8269 308.092 23.0952H310.631ZM311.662 17.7546C312.38 16.1211 313.378 14.7044 314.662 13.4949L312.92 11.6465C311.386 13.0918 310.19 14.7905 309.337 16.7329L311.662 17.7546ZM314.662 13.4949C315.945 12.2859 317.455 11.3424 319.205 10.6672L318.291 8.29769C316.249 9.08533 314.454 10.2007 312.92 11.6465L314.662 13.4949ZM319.205 10.6672C320.943 9.99704 322.845 9.65516 324.925 9.65516V7.11548C322.562 7.11548 320.346 7.50502 318.291 8.29769L319.205 10.6672ZM324.925 9.65516C327.034 9.65516 328.933 9.99779 330.639 10.665L331.564 8.29993C329.531 7.50428 327.313 7.11548 324.925 7.11548V9.65516ZM330.644 10.6672C332.393 11.3417 333.886 12.2829 335.138 13.4864L336.898 11.655C335.387 10.2037 333.602 9.08609 331.558 8.29769L330.644 10.6672ZM335.147 13.4949C336.431 14.7044 337.429 16.1211 338.147 17.7546L340.472 16.7329C339.619 14.7905 338.423 13.0918 336.889 11.6465L335.147 13.4949ZM338.15 17.7611C338.855 19.3421 339.218 21.1136 339.218 23.0952H341.758C341.758 20.7965 341.335 18.6671 340.469 16.7263L338.15 17.7611ZM339.218 23.0952C339.218 25.0467 338.856 26.8377 338.144 28.4828L340.475 29.4916C341.334 27.5067 341.758 25.3696 341.758 23.0952H339.218ZM338.147 28.4764C337.429 30.1098 336.431 31.5266 335.147 32.7361L336.889 34.5844C338.423 33.1391 339.619 31.4405 340.472 29.498L338.147 28.4764ZM335.148 32.7355C333.894 33.9154 332.398 34.8465 330.644 35.5231L331.558 37.8926C333.597 37.1063 335.379 36.0057 336.888 34.5849L335.148 32.7355ZM330.639 35.5253C328.932 36.1932 327.045 36.5352 324.965 36.5352V39.0748C327.328 39.0748 329.532 38.6854 331.564 37.8904L330.639 35.5253ZM324.925 33.4672C326.344 33.4672 327.675 33.2251 328.901 32.722L327.937 30.3724C327.05 30.7363 326.052 30.9275 324.925 30.9275V33.4672ZM328.891 32.7262C330.132 32.2299 331.226 31.5121 332.162 30.5759L330.366 28.7801C329.677 29.4693 328.874 29.9976 327.948 30.3682L328.891 32.7262ZM332.162 30.5759C333.103 29.6344 333.821 28.5226 334.316 27.2546L331.95 26.3313C331.578 27.2847 331.05 28.0962 330.366 28.7801L332.162 30.5759ZM334.306 27.2793C334.838 25.9961 335.094 24.5955 335.094 23.0952H332.554C332.554 24.3038 332.349 25.3684 331.96 26.3066L334.306 27.2793ZM335.094 23.0952C335.094 21.5948 334.838 20.1942 334.306 18.911L331.96 19.8838C332.349 20.8219 332.554 21.8865 332.554 23.0952H335.094ZM334.316 18.9357C333.821 17.6677 333.103 16.5559 332.162 15.6144L330.366 17.4102C331.05 18.0941 331.578 18.9056 331.95 19.859L334.316 18.9357ZM332.177 15.6297C331.263 14.6839 330.176 13.9619 328.932 13.4641L327.988 15.8221C328.911 16.1912 329.694 16.7153 330.351 17.3949L332.177 15.6297ZM328.932 13.4641C327.685 12.9654 326.345 12.7231 324.925 12.7231V15.2628C326.051 15.2628 327.068 15.4539 327.988 15.8221L328.932 13.4641ZM324.925 12.7231C323.505 12.7231 322.165 12.9654 320.918 13.4641L321.861 15.8221C322.782 15.4539 323.798 15.2628 324.925 15.2628V12.7231ZM320.908 13.4683C319.694 13.966 318.619 14.6835 317.688 15.6144L319.484 17.4102C320.178 16.7157 320.972 16.1871 321.872 15.8179L320.908 13.4683ZM317.688 15.6144C316.752 16.5503 316.024 17.6537 315.503 18.911L317.849 19.8837C318.249 18.9197 318.794 18.0997 319.484 17.4102L317.688 15.6144ZM315.493 18.9357C314.995 20.2122 314.756 21.604 314.756 23.0952H317.296C317.296 21.8773 317.49 20.8039 317.859 19.859L315.493 18.9357ZM314.756 23.0952C314.756 24.5631 314.996 25.9503 315.489 27.245L317.863 26.3409C317.489 25.36 317.296 24.282 317.296 23.0952H314.756ZM315.503 27.2793C316.021 28.5277 316.729 29.6261 317.632 30.5606L319.458 28.7954C318.79 28.1045 318.252 27.2795 317.849 26.3066L315.503 27.2793ZM317.647 30.5759C318.583 31.5121 319.677 32.2299 320.918 32.7262L321.861 30.3682C320.935 29.9976 320.132 29.4693 319.443 28.7801L317.647 30.5759ZM320.918 32.7262C322.165 33.2249 323.505 33.4672 324.925 33.4672V30.9275C323.798 30.9275 322.782 30.7364 321.861 30.3682L320.918 32.7262ZM366.377 37.3174H365.108V38.5872H366.377V37.3174ZM366.377 12.7333L367.275 11.8353L365.108 9.66759V12.7333H366.377ZM367.881 14.2367V15.5066H370.947L368.779 13.3388L367.881 14.2367ZM357.316 14.2367H356.046V15.5066H357.316V14.2367ZM357.316 8.87294V7.60309H356.046V8.87294H357.316ZM381.981 8.87294H383.251V7.60309H381.981V8.87294ZM381.981 14.2367V15.5066H383.251V14.2367H381.981ZM371.416 14.2367L370.506 13.3512L368.409 15.5066H371.416V14.2367ZM372.879 12.7333H374.149V9.6072L371.969 11.8477L372.879 12.7333ZM372.879 37.3174V38.5872H374.149V37.3174H372.879ZM367.647 37.3174V12.7333H365.108V37.3174H367.647ZM365.48 13.6312L366.983 15.1347L368.779 13.3388L367.275 11.8353L365.48 13.6312ZM367.881 12.9669H357.316V15.5066H367.881V12.9669ZM358.586 14.2367V8.87294H356.046V14.2367H358.586ZM357.316 10.1428H381.981V7.60309H357.316V10.1428ZM380.711 8.87294V14.2367H383.251V8.87294H380.711ZM381.981 12.9669H371.416V15.5066H381.981V12.9669ZM372.326 15.1223L373.789 13.6188L371.969 11.8477L370.506 13.3512L372.326 15.1223ZM371.609 12.7333V37.3174H374.149V12.7333H371.609ZM372.879 36.0475H366.377V38.5872H372.879V36.0475ZM383.063 37.3174L381.903 36.8004L381.107 38.5872H383.063V37.3174ZM395.741 8.87294V7.60309H394.917L394.581 8.35597L395.741 8.87294ZM402.243 8.87294L403.402 8.35459L403.066 7.60309H402.243V8.87294ZM414.962 37.3174V38.5872H416.92L416.121 36.799L414.962 37.3174ZM408.054 37.3174L406.88 37.8034L407.205 38.5872H408.054V37.3174ZM397.651 12.205V10.9352H395.751L396.478 12.691L397.651 12.205ZM400.252 12.205L401.424 12.6926L402.155 10.9352H400.252V12.205ZM389.809 37.3174V38.5872H390.656L390.981 37.805L389.809 37.3174ZM389.402 31.2221L388.204 30.8031L387.613 32.492H389.402V31.2221ZM391.15 26.224V24.9542H390.248L389.951 25.805L391.15 26.224ZM405.778 26.224L406.974 25.7963L406.672 24.9542H405.778V26.224ZM407.566 31.2221V32.492H409.369L408.762 30.7944L407.566 31.2221ZM384.223 37.8343L396.901 9.3899L394.581 8.35597L381.903 36.8004L384.223 37.8343ZM395.741 10.1428H402.243V7.60309H395.741V10.1428ZM401.084 9.39128L413.802 37.8357L416.121 36.799L403.402 8.35459L401.084 9.39128ZM414.962 36.0475H408.054V38.5872H414.962V36.0475ZM409.227 36.8314L398.824 11.719L396.478 12.691L406.88 37.8034L409.227 36.8314ZM397.651 13.4748H400.252V10.9352H397.651V13.4748ZM399.079 11.7174L388.636 36.8298L390.981 37.805L401.424 12.6926L399.079 11.7174ZM389.809 36.0475H383.063V38.5872H389.809V36.0475ZM390.601 31.6412L392.348 26.6431L389.951 25.805L388.204 30.8031L390.601 31.6412ZM391.15 27.4939H405.778V24.9542H391.15V27.4939ZM404.582 26.6518L406.37 31.6499L408.762 30.7944L406.974 25.7963L404.582 26.6518ZM407.566 29.9523H389.402V32.492H407.566V29.9523ZM439.826 8.87294V7.60309H438.556V8.87294H439.826ZM446.409 8.87294H447.678V7.60309H446.409V8.87294ZM446.409 37.3174V38.5872H447.678V37.3174H446.409ZM439.826 37.3174H438.556V38.5872H439.826V37.3174ZM426.904 37.3174V38.5872H428.174V37.3174H426.904ZM420.321 37.3174H419.051V38.5872H420.321V37.3174ZM420.321 8.87294V7.60309H419.051V8.87294H420.321ZM426.904 8.87294H428.174V7.60309H426.904V8.87294ZM440.313 25.6552V26.925H441.583V25.6552H440.313ZM426.416 25.6552H425.146V26.925H426.416V25.6552ZM426.416 20.0882V18.8183H425.146V20.0882H426.416ZM440.313 20.0882H441.583V18.8183H440.313V20.0882ZM439.826 10.1428H446.409V7.60309H439.826V10.1428ZM445.139 8.87294V37.3174H447.678V8.87294H445.139ZM446.409 36.0475H439.826V38.5872H446.409V36.0475ZM441.096 37.3174V8.87294H438.556V37.3174H441.096ZM426.904 36.0475H420.321V38.5872H426.904V36.0475ZM421.591 37.3174V8.87294H419.051V37.3174H421.591ZM420.321 10.1428H426.904V7.60309H420.321V10.1428ZM425.634 8.87294V37.3174H428.174V8.87294H425.634ZM440.313 24.3853H426.416V26.925H440.313V24.3853ZM427.686 25.6552V20.0882H425.146V25.6552H427.686ZM426.416 21.358H440.313V18.8183H426.416V21.358ZM439.044 20.0882V25.6552H441.583V20.0882H439.044ZM455.123 37.3174H453.853V38.5872H455.123V37.3174ZM455.123 8.87294V7.60309H453.853V8.87294H455.123ZM461.665 8.87294H462.935V7.60309H461.665V8.87294ZM461.665 27.4025H460.395V31.2851L462.689 28.1528L461.665 27.4025ZM475.237 8.87294V7.60309H474.593L474.212 8.12258L475.237 8.87294ZM481.413 8.87294H482.683V7.60309H481.413V8.87294ZM481.413 37.3174V38.5872H482.683V37.3174H481.413ZM474.912 37.3174H473.642V38.5872H474.912V37.3174ZM474.912 18.8285H476.182V14.9527L473.888 18.0771L474.912 18.8285ZM461.34 37.3174V38.5872H461.983L462.363 38.0688L461.34 37.3174ZM456.392 37.3174V8.87294H453.853V37.3174H456.392ZM455.123 10.1428H461.665V7.60309H455.123V10.1428ZM460.395 8.87294V27.4025H462.935V8.87294H460.395ZM462.689 28.1528L476.261 9.62329L474.212 8.12258L460.64 26.6521L462.689 28.1528ZM475.237 10.1428H481.413V7.60309H475.237V10.1428ZM480.144 8.87294V37.3174H482.683V8.87294H480.144ZM481.413 36.0475H474.912V38.5872H481.413V36.0475ZM476.182 37.3174V18.8285H473.642V37.3174H476.182ZM473.888 18.0771L460.316 36.566L462.363 38.0688L475.935 19.5799L473.888 18.0771ZM461.34 36.0475H455.123V38.5872H461.34V36.0475ZM509.588 8.87294V7.60309H508.318V8.87294H509.588ZM516.17 8.87294H517.44V7.60309H516.17V8.87294ZM516.17 37.3174V38.5872H517.44V37.3174H516.17ZM509.588 37.3174H508.318V38.5872H509.588V37.3174ZM496.666 37.3174V38.5872H497.936V37.3174H496.666ZM490.083 37.3174H488.813V38.5872H490.083V37.3174ZM490.083 8.87294V7.60309H488.813V8.87294H490.083ZM496.666 8.87294H497.936V7.60309H496.666V8.87294ZM510.075 25.6552V26.925H511.345V25.6552H510.075ZM496.178 25.6552H494.908V26.925H496.178V25.6552ZM496.178 20.0882V18.8183H494.908V20.0882H496.178ZM510.075 20.0882H511.345V18.8183H510.075V20.0882ZM509.588 10.1428H516.17V7.60309H509.588V10.1428ZM514.901 8.87294V37.3174H517.44V8.87294H514.901ZM516.17 36.0475H509.588V38.5872H516.17V36.0475ZM510.857 37.3174V8.87294H508.318V37.3174H510.857ZM496.666 36.0475H490.083V38.5872H496.666V36.0475ZM491.353 37.3174V8.87294H488.813V37.3174H491.353ZM490.083 10.1428H496.666V7.60309H490.083V10.1428ZM495.396 8.87294V37.3174H497.936V8.87294H495.396ZM510.075 24.3853H496.178V26.925H510.075V24.3853ZM497.448 25.6552V20.0882H494.908V25.6552H497.448ZM496.178 21.358H510.075V18.8183H496.178V21.358ZM508.805 20.0882V25.6552H511.345V20.0882H508.805ZM3.53524 107.317H2.2654V108.587H3.53524V107.317ZM3.53524 78.8729V77.6031H2.2654V78.8729H3.53524ZM8.98032 78.8729L10.0676 78.217L9.6973 77.6031H8.98032V78.8729ZM21.0895 98.9466V100.216H23.3385L22.1768 98.2907L21.0895 98.9466ZM18.2044 98.9466L17.1123 98.2988L15.9749 100.216H18.2044V98.9466ZM30.1105 78.8729V77.6031H29.3872L29.0183 78.2251L30.1105 78.8729ZM35.5556 78.8729L36.8254 78.8711L36.8236 77.6031H35.5556V78.8729ZM35.5962 107.317V108.587H36.8679L36.866 107.316L35.5962 107.317ZM29.4197 107.317L28.1498 107.32L28.1526 108.587H29.4197V107.317ZM29.3791 88.3409V87.071H28.1065L28.1092 88.3436L29.3791 88.3409ZM30.5575 88.3409L31.6473 88.9926L32.7963 87.071H30.5575V88.3409ZM21.0083 104.31V105.58H21.7285L22.0981 104.962L21.0083 104.31ZM18.0825 104.31L16.9988 104.972L17.3701 105.58H18.0825V104.31ZM8.33016 88.3409V87.071H6.06678L7.24642 89.0027L8.33016 88.3409ZM9.71175 88.3409H10.9816V87.071H9.71175V88.3409ZM9.71175 107.317V108.587H10.9816V107.317H9.71175ZM4.80508 107.317V78.8729H2.2654V107.317H4.80508ZM3.53524 80.1428H8.98032V77.6031H3.53524V80.1428ZM7.893 79.5289L20.0022 99.6025L22.1768 98.2907L10.0676 78.217L7.893 79.5289ZM21.0895 97.6767H18.2044V100.216H21.0895V97.6767ZM19.2966 99.5944L31.2027 79.5207L29.0183 78.2251L17.1123 98.2988L19.2966 99.5944ZM30.1105 80.1428H35.5556V77.6031H30.1105V80.1428ZM34.2857 78.8747L34.3264 107.319L36.866 107.316L36.8254 78.8711L34.2857 78.8747ZM35.5962 106.048H29.4197V108.587H35.5962V106.048ZM30.6895 107.315L30.6489 88.3382L28.1092 88.3436L28.1498 107.32L30.6895 107.315ZM29.3791 89.6107H30.5575V87.071H29.3791V89.6107ZM29.4676 87.6892L19.9184 103.659L22.0981 104.962L31.6473 88.9926L29.4676 87.6892ZM21.0083 103.041H18.0825V105.58H21.0083V103.041ZM19.1663 103.649L9.4139 87.679L7.24642 89.0027L16.9988 104.972L19.1663 103.649ZM8.33016 89.6107H9.71175V87.071H8.33016V89.6107ZM8.44191 88.3409V107.317H10.9816V88.3409H8.44191ZM9.71175 106.048H3.53524V108.587H9.71175V106.048ZM49.6133 95.452H48.3435V96.7218H49.6133V95.452ZM49.6133 90.4133V89.1434H48.3435V90.4133H49.6133ZM63.673 90.4133H64.9429V89.1434H63.673V90.4133ZM63.673 95.452V96.7218H64.9429V95.452H63.673ZM59.2438 79.4825L58.763 80.6578L58.7707 80.6609L58.7784 80.6639L59.2438 79.4825ZM67.0051 98.9872L68.1804 99.468L68.1804 99.468L67.0051 98.9872ZM63.9168 103.66L64.8147 104.558L64.8147 104.558L63.9168 103.66ZM59.2438 106.748L59.7092 107.93L59.7169 107.927L59.7246 107.924L59.2438 106.748ZM46.5251 106.505L46.0211 107.67L46.0267 107.673L46.5251 106.505ZM41.4864 102.726L40.6206 101.797L39.7489 102.609L40.5043 103.531L41.4864 102.726ZM45.6717 98.8247L46.6246 97.9853L45.7613 97.0053L44.806 97.8958L45.6717 98.8247ZM49.0038 101.385L48.4668 102.535L48.4774 102.54L48.4881 102.545L49.0038 101.385ZM56.3994 101.547L56.8921 102.718L56.8995 102.714L56.9068 102.711L56.3994 101.547ZM59.0813 99.678L58.1529 98.8116L58.1519 98.8127L59.0813 99.678ZM60.7879 96.7929L59.5954 96.3566L59.5907 96.3696L59.5862 96.3826L60.7879 96.7929ZM60.7879 89.3974L59.5862 89.8077L59.5907 89.8207L59.5954 89.8337L60.7879 89.3974ZM59.0813 86.5529L58.1374 87.4024L58.1523 87.419L58.1677 87.435L59.0813 86.5529ZM56.3994 84.6837L55.8808 85.8429L55.899 85.851L55.9174 85.8585L56.3994 84.6837ZM49.0038 84.8463L49.5195 86.0067L49.5302 86.0019L49.5408 85.997L49.0038 84.8463ZM45.6717 87.3656L44.806 88.2946L45.7613 89.185L46.6246 88.205L45.6717 87.3656ZM41.4864 83.4647L40.5043 82.6597L39.7489 83.5812L40.6206 84.3936L41.4864 83.4647ZM46.5251 79.6856L46.0267 78.5176L46.0211 78.5201L46.5251 79.6856ZM50.8832 95.452V90.4133H48.3435V95.452H50.8832ZM49.6133 91.6831H63.673V89.1434H49.6133V91.6831ZM62.4032 90.4133V95.452H64.9429V90.4133H62.4032ZM63.673 94.1821H49.6133V96.7218H63.673V94.1821ZM53.3517 79.6552C55.3448 79.6552 57.1433 79.9952 58.763 80.6578L59.7246 78.3072C57.7684 77.5069 55.6389 77.1155 53.3517 77.1155V79.6552ZM58.7784 80.6639C60.4082 81.306 61.8176 82.2267 63.0189 83.428L64.8147 81.6322C63.3612 80.1786 61.6553 79.0676 59.7092 78.301L58.7784 80.6639ZM63.0189 83.428C64.2236 84.6327 65.1603 86.0474 65.8298 87.6839L68.1804 86.7223C67.387 84.7829 66.2649 83.0823 64.8147 81.6322L63.0189 83.428ZM65.8298 87.6839C66.4924 89.3036 66.8324 91.1021 66.8324 93.0952H69.3721C69.3721 90.808 68.9806 88.6785 68.1804 86.7223L65.8298 87.6839ZM66.8324 93.0952C66.8324 95.0882 66.4924 96.8867 65.8298 98.5064L68.1804 99.468C68.9806 97.5118 69.3721 95.3823 69.3721 93.0952H66.8324ZM65.8298 98.5064C65.1603 100.143 64.2236 101.558 63.0189 102.762L64.8147 104.558C66.2649 103.108 67.387 101.407 68.1804 99.468L65.8298 98.5064ZM63.0189 102.762C61.8142 103.967 60.3995 104.904 58.763 105.573L59.7246 107.924C61.664 107.13 63.3646 106.008 64.8147 104.558L63.0189 102.762ZM58.7784 105.567C57.1546 106.207 55.3506 106.535 53.3517 106.535V109.075C55.6331 109.075 57.7571 108.699 59.7092 107.93L58.7784 105.567ZM53.3517 106.535C50.9797 106.535 48.877 106.128 47.0234 105.337L46.0267 107.673C48.2367 108.616 50.6851 109.075 53.3517 109.075V106.535ZM47.0291 105.339C45.206 104.551 43.6917 103.413 42.4684 101.921L40.5043 103.531C41.99 105.343 43.8349 106.725 46.0211 107.67L47.0291 105.339ZM42.3521 103.655L46.5375 99.7536L44.806 97.8958L40.6206 101.797L42.3521 103.655ZM44.7189 99.6641C45.8222 100.916 47.0702 101.884 48.4668 102.535L49.5408 100.234C48.4993 99.748 47.5259 99.0084 46.6246 97.9853L44.7189 99.6641ZM48.4881 102.545C49.8846 103.166 51.4034 103.467 53.0267 103.467V100.928C51.7242 100.928 50.5611 100.687 49.5195 100.224L48.4881 102.545ZM53.0267 103.467C54.3994 103.467 55.693 103.222 56.8921 102.718L55.9066 100.377C55.0469 100.739 54.092 100.928 53.0267 100.928V103.467ZM56.9068 102.711C58.111 102.186 59.152 101.466 60.0107 100.543L58.1519 98.8127C57.5477 99.4617 56.8007 99.987 55.892 100.383L56.9068 102.711ZM60.0096 100.544C60.8972 99.5935 61.5558 98.4739 61.9897 97.2033L59.5862 96.3826C59.2616 97.3333 58.7824 98.1372 58.1529 98.8116L60.0096 100.544ZM61.9805 97.2292C62.4448 95.96 62.6673 94.5772 62.6673 93.0952H60.1276C60.1276 94.3221 59.9438 95.4045 59.5954 96.3566L61.9805 97.2292ZM62.6673 93.0952C62.6673 91.6132 62.4448 90.2303 61.9805 88.9611L59.5954 89.8337C59.9438 90.7859 60.1276 91.8682 60.1276 93.0952H62.6673ZM61.9897 88.987C61.5547 87.7133 60.8924 86.6005 59.9948 85.6709L58.1677 87.435C58.7872 88.0766 59.2626 88.8601 59.5862 89.8077L61.9897 88.987ZM60.0251 85.7035C59.1604 84.7427 58.1062 84.0114 56.8813 83.5089L55.9174 85.8585C56.8055 86.2229 57.5393 86.7378 58.1374 87.4024L60.0251 85.7035ZM56.9179 83.5246C55.7125 82.9853 54.4098 82.7231 53.0267 82.7231V85.2628C54.0817 85.2628 55.0274 85.4611 55.8808 85.8429L56.9179 83.5246ZM53.0267 82.7231C51.3947 82.7231 49.8683 83.0415 48.4668 83.6956L49.5408 85.997C50.5774 85.5132 51.7329 85.2628 53.0267 85.2628V82.7231ZM48.4881 83.6859C47.0805 84.3115 45.8256 85.27 44.7189 86.5262L46.6246 88.205C47.5225 87.1857 48.489 86.4647 49.5195 86.0067L48.4881 83.6859ZM46.5375 86.4367L42.3521 82.5358L40.6206 84.3936L44.806 88.2946L46.5375 86.4367ZM42.4684 84.2697C43.6917 82.7773 45.206 81.6395 47.0291 80.8512L46.0211 78.5201C43.8349 79.4655 41.99 80.8471 40.5043 82.6597L42.4684 84.2697ZM47.0234 80.8536C48.877 80.0627 50.9797 79.6552 53.3517 79.6552V77.1155C50.6851 77.1155 48.2367 77.5748 46.0267 78.5177L47.0234 80.8536ZM92.9057 104.392H91.6359V105.662H92.9057V104.392ZM92.9057 84.2367H94.1756V82.9669H92.9057V84.2367ZM83.1533 84.2367V82.9669H81.9203L81.884 84.1994L83.1533 84.2367ZM83.0314 88.3815L84.2999 88.4401L84.3004 88.4295L84.3007 88.4188L83.0314 88.3815ZM82.6657 93.3796L81.4026 93.2489L81.4015 93.2597L81.4006 93.2705L82.6657 93.3796ZM82.0156 97.6869L83.252 97.9763L83.2533 97.9706L82.0156 97.6869ZM80.8371 100.938L79.7224 100.33L79.7152 100.343L79.7083 100.356L80.8371 100.938ZM79.0898 102.848L78.9297 104.107L79.3335 104.159L79.6919 103.966L79.0898 102.848ZM72.06 101.954L72.0953 100.684L71.8998 103.213L72.06 101.954ZM74.4575 100.938L73.5244 100.076L73.5153 100.086L73.5064 100.096L74.4575 100.938ZM76.0016 97.9714L77.2186 98.3339L77.2206 98.3269L76.0016 97.9714ZM76.8143 93.4202L75.552 93.2822L75.5509 93.2919L75.55 93.3017L76.8143 93.4202ZM77.2206 87.772L78.4895 87.8227L78.4896 87.8183L77.2206 87.772ZM77.5457 78.8729V77.6031H76.3214L76.2767 78.8266L77.5457 78.8729ZM99.4073 78.8729H100.677V77.6031H99.4073V78.8729ZM99.4073 104.392V105.662H100.677V104.392H99.4073ZM71.1254 113.209L69.8556 113.205L69.851 114.479H71.1254V113.209ZM71.166 101.954V100.684H69.9008L69.8962 101.949L71.166 101.954ZM103.39 101.954H104.659V100.684H103.39V101.954ZM103.39 113.209V114.479H104.659V113.209H103.39ZM97.2943 113.209H96.0245V114.479H97.2943V113.209ZM97.2943 107.317H98.5641V106.048H97.2943V107.317ZM77.2206 107.317V106.048H75.9508V107.317H77.2206ZM77.2206 113.209V114.479H78.4905V113.209H77.2206ZM94.1756 104.392V84.2367H91.6359V104.392H94.1756ZM92.9057 82.9669H83.1533V85.5066H92.9057V82.9669ZM81.884 84.1994L81.7621 88.3442L84.3007 88.4188L84.4226 84.2741L81.884 84.1994ZM81.7629 88.323C81.6827 90.0624 81.5624 91.7043 81.4026 93.2489L83.9288 93.5103C84.0941 91.9125 84.2177 90.2223 84.2999 88.4401L81.7629 88.323ZM81.4006 93.2705C81.2693 94.7933 81.0605 96.1697 80.7778 97.4033L83.2533 97.9706C83.5666 96.6035 83.7912 95.1084 83.9309 93.4887L81.4006 93.2705ZM80.7791 97.3975C80.5002 98.5893 80.1423 99.5597 79.7224 100.33L81.9519 101.546C82.5072 100.528 82.9349 99.3309 83.252 97.9763L80.7791 97.3975ZM79.7083 100.356C79.3349 101.081 78.9145 101.5 78.4878 101.729L79.6919 103.966C80.6739 103.437 81.4183 102.582 81.966 101.519L79.7083 100.356ZM79.25 101.588L72.2202 100.694L71.8998 103.213L78.9297 104.107L79.25 101.588ZM72.0247 103.223C73.3597 103.26 74.5258 102.777 75.4086 101.779L73.5064 100.096C73.143 100.507 72.7108 100.701 72.0953 100.684L72.0247 103.223ZM75.3905 101.799C76.2128 100.908 76.8041 99.7253 77.2186 98.3339L74.7846 97.6088C74.4406 98.7638 74.0024 99.5585 73.5244 100.076L75.3905 101.799ZM77.2206 98.3269C77.6278 96.9309 77.9105 95.3313 78.0786 93.5388L75.55 93.3017C75.393 94.9767 75.1339 96.4111 74.7825 97.6158L77.2206 98.3269ZM78.0766 93.5583C78.2699 91.7912 78.4072 89.879 78.4895 87.8227L75.9518 87.7212C75.8715 89.7284 75.738 91.5817 75.552 93.2822L78.0766 93.5583ZM78.4896 87.8183L78.8147 78.9193L76.2767 78.8266L75.9516 87.7256L78.4896 87.8183ZM77.5457 80.1428H99.4073V77.6031H77.5457V80.1428ZM98.1375 78.8729V104.392H100.677V78.8729H98.1375ZM99.4073 103.122H92.9057V105.662H99.4073V103.122ZM72.3952 113.214L72.4359 101.958L69.8962 101.949L69.8556 113.205L72.3952 113.214ZM71.166 103.223H103.39V100.684H71.166V103.223ZM102.12 101.954V113.209H104.659V101.954H102.12ZM103.39 111.94H97.2943V114.479H103.39V111.94ZM98.5641 113.209V107.317H96.0245V113.209H98.5641ZM97.2943 106.048H77.2206V108.587H97.2943V106.048ZM75.9508 107.317V113.209H78.4905V107.317H75.9508ZM77.2206 111.94H71.1254V114.479H77.2206V111.94ZM114.772 95.452H113.502V96.7218H114.772V95.452ZM114.772 90.4133V89.1434H113.502V90.4133H114.772ZM128.832 90.4133H130.102V89.1434H128.832V90.4133ZM128.832 95.452V96.7218H130.102V95.452H128.832ZM124.403 79.4825L123.922 80.6578L123.929 80.6609L123.937 80.6639L124.403 79.4825ZM132.164 98.9872L133.339 99.468L133.339 99.468L132.164 98.9872ZM129.076 103.66L129.973 104.558L129.973 104.558L129.076 103.66ZM124.403 106.748L124.868 107.93L124.876 107.927L124.883 107.924L124.403 106.748ZM111.684 106.505L111.18 107.67L111.185 107.673L111.684 106.505ZM106.645 102.726L105.779 101.797L104.908 102.609L105.663 103.531L106.645 102.726ZM110.83 98.8247L111.783 97.9853L110.92 97.0053L109.965 97.8958L110.83 98.8247ZM114.163 101.385L113.626 102.535L113.636 102.54L113.647 102.545L114.163 101.385ZM121.558 101.547L122.051 102.718L122.058 102.714L122.066 102.711L121.558 101.547ZM124.24 99.678L123.312 98.8116L123.311 98.8127L124.24 99.678ZM125.947 96.7929L124.754 96.3566L124.749 96.3696L124.745 96.3826L125.947 96.7929ZM125.947 89.3974L124.745 89.8077L124.749 89.8207L124.754 89.8337L125.947 89.3974ZM124.24 86.5529L123.296 87.4024L123.311 87.419L123.326 87.435L124.24 86.5529ZM121.558 84.6837L121.04 85.8429L121.058 85.851L121.076 85.8585L121.558 84.6837ZM114.163 84.8463L114.678 86.0067L114.689 86.0019L114.7 85.997L114.163 84.8463ZM110.83 87.3656L109.965 88.2946L110.92 89.185L111.783 88.205L110.83 87.3656ZM106.645 83.4647L105.663 82.6597L104.908 83.5812L105.779 84.3936L106.645 83.4647ZM111.684 79.6856L111.185 78.5176L111.18 78.5201L111.684 79.6856ZM116.042 95.452V90.4133H113.502V95.452H116.042ZM114.772 91.6831H128.832V89.1434H114.772V91.6831ZM127.562 90.4133V95.452H130.102V90.4133H127.562ZM128.832 94.1821H114.772V96.7218H128.832V94.1821ZM118.51 79.6552C120.504 79.6552 122.302 79.9952 123.922 80.6578L124.883 78.3072C122.927 77.5069 120.798 77.1155 118.51 77.1155V79.6552ZM123.937 80.6639C125.567 81.306 126.976 82.2267 128.178 83.428L129.973 81.6322C128.52 80.1786 126.814 79.0676 124.868 78.301L123.937 80.6639ZM128.178 83.428C129.382 84.6327 130.319 86.0474 130.989 87.6839L133.339 86.7223C132.546 84.7829 131.424 83.0823 129.973 81.6322L128.178 83.428ZM130.989 87.6839C131.651 89.3036 131.991 91.1021 131.991 93.0952H134.531C134.531 90.808 134.139 88.6785 133.339 86.7223L130.989 87.6839ZM131.991 93.0952C131.991 95.0882 131.651 96.8867 130.989 98.5064L133.339 99.468C134.139 97.5118 134.531 95.3823 134.531 93.0952H131.991ZM130.989 98.5064C130.319 100.143 129.382 101.558 128.178 102.762L129.973 104.558C131.424 103.108 132.546 101.407 133.339 99.468L130.989 98.5064ZM128.178 102.762C126.973 103.967 125.558 104.904 123.922 105.573L124.883 107.924C126.823 107.13 128.523 106.008 129.973 104.558L128.178 102.762ZM123.937 105.567C122.313 106.207 120.509 106.535 118.51 106.535V109.075C120.792 109.075 122.916 108.699 124.868 107.93L123.937 105.567ZM118.51 106.535C116.138 106.535 114.036 106.128 112.182 105.337L111.185 107.673C113.395 108.616 115.844 109.075 118.51 109.075V106.535ZM112.188 105.339C110.365 104.551 108.85 103.413 107.627 101.921L105.663 103.531C107.149 105.343 108.994 106.725 111.18 107.67L112.188 105.339ZM107.511 103.655L111.696 99.7536L109.965 97.8958L105.779 101.797L107.511 103.655ZM109.878 99.6641C110.981 100.916 112.229 101.884 113.626 102.535L114.7 100.234C113.658 99.748 112.685 99.0084 111.783 97.9853L109.878 99.6641ZM113.647 102.545C115.043 103.166 116.562 103.467 118.185 103.467V100.928C116.883 100.928 115.72 100.687 114.678 100.224L113.647 102.545ZM118.185 103.467C119.558 103.467 120.852 103.222 122.051 102.718L121.065 100.377C120.206 100.739 119.251 100.928 118.185 100.928V103.467ZM122.066 102.711C123.27 102.186 124.311 101.466 125.169 100.543L123.311 98.8127C122.706 99.4617 121.959 99.987 121.051 100.383L122.066 102.711ZM125.168 100.544C126.056 99.5935 126.714 98.4739 127.148 97.2033L124.745 96.3826C124.42 97.3333 123.941 98.1372 123.312 98.8116L125.168 100.544ZM127.139 97.2292C127.604 95.96 127.826 94.5772 127.826 93.0952H125.286C125.286 94.3221 125.102 95.4045 124.754 96.3566L127.139 97.2292ZM127.826 93.0952C127.826 91.6132 127.604 90.2303 127.139 88.9611L124.754 89.8337C125.102 90.7859 125.286 91.8682 125.286 93.0952H127.826ZM127.148 88.987C126.713 87.7133 126.051 86.6005 125.154 85.6709L123.326 87.435C123.946 88.0766 124.421 88.8601 124.745 89.8077L127.148 88.987ZM125.184 85.7035C124.319 84.7427 123.265 84.0114 122.04 83.5089L121.076 85.8585C121.964 86.2229 122.698 86.7378 123.296 87.4024L125.184 85.7035ZM122.077 83.5246C120.871 82.9853 119.569 82.7231 118.185 82.7231V85.2628C119.24 85.2628 120.186 85.4611 121.04 85.8429L122.077 83.5246ZM118.185 82.7231C116.553 82.7231 115.027 83.0415 113.626 83.6956L114.7 85.997C115.736 85.5132 116.892 85.2628 118.185 85.2628V82.7231ZM113.647 83.6859C112.239 84.3115 110.984 85.27 109.878 86.5262L111.783 88.205C112.681 87.1857 113.648 86.4647 114.678 86.0067L113.647 83.6859ZM111.696 86.4367L107.511 82.5358L105.779 84.3936L109.965 88.2946L111.696 86.4367ZM107.627 84.2697C108.85 82.7773 110.365 81.6395 112.188 80.8512L111.18 78.5201C108.994 79.4655 107.149 80.8471 105.663 82.6597L107.627 84.2697ZM112.182 80.8536C114.036 80.0627 116.138 79.6552 118.51 79.6552V77.1155C115.844 77.1155 113.395 77.5748 111.185 78.5177L112.182 80.8536ZM140.004 107.317H138.734V108.587H140.004V107.317ZM140.004 78.8729V77.6031H138.734V78.8729H140.004ZM146.546 78.8729H147.816V77.6031H146.546V78.8729ZM146.546 101.954H145.276V103.223H146.546V101.954ZM159.224 101.954V103.223H160.494V101.954H159.224ZM159.224 78.8729V77.6031H157.954V78.8729H159.224ZM165.766 78.8729H167.036V77.6031H165.766V78.8729ZM165.766 107.317V108.587H167.036V107.317H165.766ZM163.775 113.331H162.505V114.601H163.775V113.331ZM163.775 105.773L164.709 104.913L162.505 102.52V105.773H163.775ZM165.197 107.317V108.587H168.093L166.131 106.457L165.197 107.317ZM159.224 107.317H157.954V108.587H159.224V107.317ZM159.224 101.954V100.684H157.954V101.954H159.224ZM169.83 101.954H171.099V100.684H169.83V101.954ZM169.83 113.331V114.601H171.099V113.331H169.83ZM141.273 107.317V78.8729H138.734V107.317H141.273ZM140.004 80.1428H146.546V77.6031H140.004V80.1428ZM145.276 78.8729V101.954H147.816V78.8729H145.276ZM146.546 103.223H159.224V100.684H146.546V103.223ZM160.494 101.954V78.8729H157.954V101.954H160.494ZM159.224 80.1428H165.766V77.6031H159.224V80.1428ZM164.496 78.8729V107.317H167.036V78.8729H164.496ZM165.766 106.048H140.004V108.587H165.766V106.048ZM165.045 113.331V105.773H162.505V113.331H165.045ZM162.841 106.634L164.263 108.178L166.131 106.457L164.709 104.913L162.841 106.634ZM165.197 106.048H159.224V108.587H165.197V106.048ZM160.494 107.317V101.954H157.954V107.317H160.494ZM159.224 103.223H169.83V100.684H159.224V103.223ZM168.56 101.954V113.331H171.099V101.954H168.56ZM169.83 112.062H163.775V114.601H169.83V112.062ZM175.757 107.317H174.488V108.587H175.757V107.317ZM175.757 78.8729V77.6031H174.488V78.8729H175.757ZM195.831 78.8729L197.101 78.8826L197.111 77.6031H195.831V78.8729ZM195.79 84.2367V85.5066H197.051L197.06 84.2464L195.79 84.2367ZM180.756 84.2367L179.858 83.3388L177.69 85.5066H180.756V84.2367ZM182.259 82.7333L183.529 82.7312L183.524 79.6726L181.361 81.8353L182.259 82.7333ZM182.3 107.317V108.587H183.572L183.57 107.315L182.3 107.317ZM177.027 107.317V78.8729H174.488V107.317H177.027ZM175.757 80.1428H195.831V77.6031H175.757V80.1428ZM194.561 78.8633L194.521 84.2271L197.06 84.2464L197.101 78.8826L194.561 78.8633ZM195.79 82.9669H180.756V85.5066H195.79V82.9669ZM181.653 85.1347L183.157 83.6312L181.361 81.8353L179.858 83.3388L181.653 85.1347ZM180.989 82.7354L181.03 107.319L183.57 107.315L183.529 82.7312L180.989 82.7354ZM182.3 106.048H175.757V108.587H182.3V106.048ZM206.796 95.452H205.526V96.7218H206.796V95.452ZM206.796 90.4133V89.1434H205.526V90.4133H206.796ZM220.856 90.4133H222.125V89.1434H220.856V90.4133ZM220.856 95.452V96.7218H222.125V95.452H220.856ZM216.426 79.4825L215.946 80.6578L215.953 80.6609L215.961 80.6639L216.426 79.4825ZM224.188 98.9872L225.363 99.468L225.363 99.468L224.188 98.9872ZM221.099 103.66L221.997 104.558L221.997 104.558L221.099 103.66ZM216.426 106.748L216.892 107.93L216.899 107.927L216.907 107.924L216.426 106.748ZM203.708 106.505L203.204 107.67L203.209 107.673L203.708 106.505ZM198.669 102.726L197.803 101.797L196.931 102.609L197.687 103.531L198.669 102.726ZM202.854 98.8247L203.807 97.9853L202.944 97.0053L201.989 97.8958L202.854 98.8247ZM206.186 101.385L205.649 102.535L205.66 102.54L205.671 102.545L206.186 101.385ZM213.582 101.547L214.075 102.718L214.082 102.714L214.089 102.711L213.582 101.547ZM216.264 99.678L215.335 98.8116L215.334 98.8127L216.264 99.678ZM217.97 96.7929L216.778 96.3566L216.773 96.3696L216.769 96.3826L217.97 96.7929ZM217.97 89.3974L216.769 89.8077L216.773 89.8207L216.778 89.8337L217.97 89.3974ZM216.264 86.5529L215.32 87.4024L215.335 87.419L215.35 87.435L216.264 86.5529ZM213.582 84.6837L213.063 85.8429L213.082 85.851L213.1 85.8585L213.582 84.6837ZM206.186 84.8463L206.702 86.0067L206.713 86.0019L206.723 85.997L206.186 84.8463ZM202.854 87.3656L201.989 88.2946L202.944 89.185L203.807 88.205L202.854 87.3656ZM198.669 83.4647L197.687 82.6597L196.931 83.5812L197.803 84.3936L198.669 83.4647ZM203.708 79.6856L203.209 78.5176L203.204 78.5201L203.708 79.6856ZM208.066 95.452V90.4133H205.526V95.452H208.066ZM206.796 91.6831H220.856V89.1434H206.796V91.6831ZM219.586 90.4133V95.452H222.125V90.4133H219.586ZM220.856 94.1821H206.796V96.7218H220.856V94.1821ZM210.534 79.6552C212.527 79.6552 214.326 79.9952 215.946 80.6578L216.907 78.3072C214.951 77.5069 212.821 77.1155 210.534 77.1155V79.6552ZM215.961 80.6639C217.591 81.306 219 82.2267 220.201 83.428L221.997 81.6322C220.544 80.1786 218.838 79.0676 216.892 78.301L215.961 80.6639ZM220.201 83.428C221.406 84.6327 222.343 86.0474 223.012 87.6839L225.363 86.7223C224.57 84.7829 223.447 83.0823 221.997 81.6322L220.201 83.428ZM223.012 87.6839C223.675 89.3036 224.015 91.1021 224.015 93.0952H226.555C226.555 90.808 226.163 88.6785 225.363 86.7223L223.012 87.6839ZM224.015 93.0952C224.015 95.0882 223.675 96.8867 223.012 98.5064L225.363 99.468C226.163 97.5118 226.555 95.3823 226.555 93.0952H224.015ZM223.012 98.5064C222.343 100.143 221.406 101.558 220.201 102.762L221.997 104.558C223.447 103.108 224.57 101.407 225.363 99.468L223.012 98.5064ZM220.201 102.762C218.997 103.967 217.582 104.904 215.946 105.573L216.907 107.924C218.847 107.13 220.547 106.008 221.997 104.558L220.201 102.762ZM215.961 105.567C214.337 106.207 212.533 106.535 210.534 106.535V109.075C212.816 109.075 214.94 108.699 216.892 107.93L215.961 105.567ZM210.534 106.535C208.162 106.535 206.06 106.128 204.206 105.337L203.209 107.673C205.419 108.616 207.868 109.075 210.534 109.075V106.535ZM204.212 105.339C202.389 104.551 200.874 103.413 199.651 101.921L197.687 103.531C199.173 105.343 201.017 106.725 203.204 107.67L204.212 105.339ZM199.535 103.655L203.72 99.7536L201.989 97.8958L197.803 101.797L199.535 103.655ZM201.901 99.6641C203.005 100.916 204.253 101.884 205.649 102.535L206.723 100.234C205.682 99.748 204.708 99.0084 203.807 97.9853L201.901 99.6641ZM205.671 102.545C207.067 103.166 208.586 103.467 210.209 103.467V100.928C208.907 100.928 207.744 100.687 206.702 100.224L205.671 102.545ZM210.209 103.467C211.582 103.467 212.876 103.222 214.075 102.718L213.089 100.377C212.229 100.739 211.275 100.928 210.209 100.928V103.467ZM214.089 102.711C215.294 102.186 216.335 101.466 217.193 100.543L215.334 98.8127C214.73 99.4617 213.983 99.987 213.075 100.383L214.089 102.711ZM217.192 100.544C218.08 99.5935 218.738 98.4739 219.172 97.2033L216.769 96.3826C216.444 97.3333 215.965 98.1372 215.335 98.8116L217.192 100.544ZM219.163 97.2292C219.627 95.96 219.85 94.5772 219.85 93.0952H217.31C217.31 94.3221 217.126 95.4045 216.778 96.3566L219.163 97.2292ZM219.85 93.0952C219.85 91.6132 219.627 90.2303 219.163 88.9611L216.778 89.8337C217.126 90.7859 217.31 91.8682 217.31 93.0952H219.85ZM219.172 88.987C218.737 87.7133 218.075 86.6005 217.177 85.6709L215.35 87.435C215.97 88.0766 216.445 88.8601 216.769 89.8077L219.172 88.987ZM217.208 85.7035C216.343 84.7427 215.289 84.0114 214.064 83.5089L213.1 85.8585C213.988 86.2229 214.722 86.7378 215.32 87.4024L217.208 85.7035ZM214.1 83.5246C212.895 82.9853 211.592 82.7231 210.209 82.7231V85.2628C211.264 85.2628 212.21 85.4611 213.063 85.8429L214.1 83.5246ZM210.209 82.7231C208.577 82.7231 207.051 83.0415 205.649 83.6956L206.723 85.997C207.76 85.5132 208.915 85.2628 210.209 85.2628V82.7231ZM205.671 83.6859C204.263 84.3115 203.008 85.27 201.901 86.5262L203.807 88.205C204.705 87.1857 205.672 86.4647 206.702 86.0067L205.671 83.6859ZM203.72 86.4367L199.535 82.5358L197.803 84.3936L201.989 88.2946L203.72 86.4367ZM199.651 84.2697C200.874 82.7773 202.389 81.6395 204.212 80.8512L203.204 78.5201C201.017 79.4655 199.173 80.8471 197.687 82.6597L199.651 84.2697ZM204.206 80.8536C206.06 80.0627 208.162 79.6552 210.534 79.6552V77.1155C207.868 77.1155 205.419 77.5748 203.209 78.5177L204.206 80.8536ZM236.597 95.452H235.328V96.7218H236.597V95.452ZM236.597 90.4133V89.1434H235.328V90.4133H236.597ZM250.657 90.4133H251.927V89.1434H250.657V90.4133ZM250.657 95.452V96.7218H251.927V95.452H250.657ZM246.228 79.4825L245.747 80.6578L245.755 80.6609L245.763 80.6639L246.228 79.4825ZM253.989 98.9872L255.165 99.468L255.165 99.468L253.989 98.9872ZM250.901 103.66L251.799 104.558L251.799 104.558L250.901 103.66ZM246.228 106.748L246.693 107.93L246.701 107.927L246.709 107.924L246.228 106.748ZM233.509 106.505L233.005 107.67L233.011 107.673L233.509 106.505ZM228.47 102.726L227.605 101.797L226.733 102.609L227.488 103.531L228.47 102.726ZM232.656 98.8247L233.609 97.9853L232.745 97.0053L231.79 97.8958L232.656 98.8247ZM235.988 101.385L235.451 102.535L235.462 102.54L235.472 102.545L235.988 101.385ZM243.384 101.547L243.876 102.718L243.884 102.714L243.891 102.711L243.384 101.547ZM246.065 99.678L245.137 98.8116L245.136 98.8127L246.065 99.678ZM247.772 96.7929L246.58 96.3566L246.575 96.3696L246.57 96.3826L247.772 96.7929ZM247.772 89.3974L246.57 89.8077L246.575 89.8207L246.58 89.8337L247.772 89.3974ZM246.065 86.5529L245.122 87.4024L245.136 87.419L245.152 87.435L246.065 86.5529ZM243.384 84.6837L242.865 85.8429L242.883 85.851L242.902 85.8585L243.384 84.6837ZM235.988 84.8463L236.504 86.0067L236.514 86.0019L236.525 85.997L235.988 84.8463ZM232.656 87.3656L231.79 88.2946L232.745 89.185L233.609 88.205L232.656 87.3656ZM228.47 83.4647L227.488 82.6597L226.733 83.5812L227.605 84.3936L228.47 83.4647ZM233.509 79.6856L233.011 78.5176L233.005 78.5201L233.509 79.6856ZM237.867 95.452V90.4133H235.328V95.452H237.867ZM236.597 91.6831H250.657V89.1434H236.597V91.6831ZM249.387 90.4133V95.452H251.927V90.4133H249.387ZM250.657 94.1821H236.597V96.7218H250.657V94.1821ZM240.336 79.6552C242.329 79.6552 244.127 79.9952 245.747 80.6578L246.709 78.3072C244.753 77.5069 242.623 77.1155 240.336 77.1155V79.6552ZM245.763 80.6639C247.392 81.306 248.802 82.2267 250.003 83.428L251.799 81.6322C250.345 80.1786 248.639 79.0676 246.693 78.301L245.763 80.6639ZM250.003 83.428C251.208 84.6327 252.144 86.0474 252.814 87.6839L255.165 86.7223C254.371 84.7829 253.249 83.0823 251.799 81.6322L250.003 83.428ZM252.814 87.6839C253.477 89.3036 253.817 91.1021 253.817 93.0952H256.356C256.356 90.808 255.965 88.6785 255.165 86.7223L252.814 87.6839ZM253.817 93.0952C253.817 95.0882 253.477 96.8867 252.814 98.5064L255.165 99.468C255.965 97.5118 256.356 95.3823 256.356 93.0952H253.817ZM252.814 98.5064C252.144 100.143 251.208 101.558 250.003 102.762L251.799 104.558C253.249 103.108 254.371 101.407 255.165 99.468L252.814 98.5064ZM250.003 102.762C248.798 103.967 247.384 104.904 245.747 105.573L246.709 107.924C248.648 107.13 250.349 106.008 251.799 104.558L250.003 102.762ZM245.763 105.567C244.139 106.207 242.335 106.535 240.336 106.535V109.075C242.617 109.075 244.741 108.699 246.693 107.93L245.763 105.567ZM240.336 106.535C237.964 106.535 235.861 106.128 234.008 105.337L233.011 107.673C235.221 108.616 237.669 109.075 240.336 109.075V106.535ZM234.013 105.339C232.19 104.551 230.676 103.413 229.453 101.921L227.488 103.531C228.974 105.343 230.819 106.725 233.005 107.67L234.013 105.339ZM229.336 103.655L233.522 99.7536L231.79 97.8958L227.605 101.797L229.336 103.655ZM231.703 99.6641C232.806 100.916 234.054 101.884 235.451 102.535L236.525 100.234C235.483 99.748 234.51 99.0084 233.609 97.9853L231.703 99.6641ZM235.472 102.545C236.869 103.166 238.388 103.467 240.011 103.467V100.928C238.708 100.928 237.545 100.687 236.504 100.224L235.472 102.545ZM240.011 103.467C241.384 103.467 242.677 103.222 243.876 102.718L242.891 100.377C242.031 100.739 241.076 100.928 240.011 100.928V103.467ZM243.891 102.711C245.095 102.186 246.136 101.466 246.995 100.543L245.136 98.8127C244.532 99.4617 243.785 99.987 242.876 100.383L243.891 102.711ZM246.994 100.544C247.881 99.5935 248.54 98.4739 248.974 97.2033L246.57 96.3826C246.246 97.3333 245.767 98.1372 245.137 98.8116L246.994 100.544ZM248.965 97.2292C249.429 95.96 249.651 94.5772 249.651 93.0952H247.112C247.112 94.3221 246.928 95.4045 246.58 96.3566L248.965 97.2292ZM249.651 93.0952C249.651 91.6132 249.429 90.2303 248.965 88.9611L246.58 89.8337C246.928 90.7859 247.112 91.8682 247.112 93.0952H249.651ZM248.974 88.987C248.539 87.7133 247.876 86.6005 246.979 85.6709L245.152 87.435C245.771 88.0766 246.247 88.8601 246.57 89.8077L248.974 88.987ZM247.009 85.7035C246.145 84.7427 245.09 84.0114 243.865 83.5089L242.902 85.8585C243.79 86.2229 244.523 86.7378 245.122 87.4024L247.009 85.7035ZM243.902 83.5246C242.697 82.9853 241.394 82.7231 240.011 82.7231V85.2628C241.066 85.2628 242.012 85.4611 242.865 85.8429L243.902 83.5246ZM240.011 82.7231C238.379 82.7231 236.852 83.0415 235.451 83.6956L236.525 85.997C237.562 85.5132 238.717 85.2628 240.011 85.2628V82.7231ZM235.472 83.6859C234.065 84.3115 232.81 85.27 231.703 86.5262L233.609 88.205C234.507 87.1857 235.473 86.4647 236.504 86.0067L235.472 83.6859ZM233.522 86.4367L229.336 82.5358L227.605 84.3936L231.79 88.2946L233.522 86.4367ZM229.453 84.2697C230.676 82.7773 232.19 81.6395 234.013 80.8512L233.005 78.5201C230.819 79.4655 228.974 80.8471 227.488 82.6597L229.453 84.2697ZM234.008 80.8536C235.861 80.0627 237.964 79.6552 240.336 79.6552V77.1155C237.669 77.1155 235.221 77.5748 233.011 78.5177L234.008 80.8536ZM267.884 90.332V89.0621H266.614V90.332H267.884ZM281.577 90.332H282.847V89.0621H281.577V90.332ZM281.577 95.452V96.7218H282.847V95.452H281.577ZM267.884 95.452H266.614V96.7218H267.884V95.452ZM268.371 102.035H267.101V103.305H268.371V102.035ZM283.853 102.035H285.123V100.765H283.853V102.035ZM283.853 107.317V108.587H285.123V107.317H283.853ZM261.829 107.317H260.559V108.587H261.829V107.317ZM261.829 78.8729V77.6031H260.559V78.8729H261.829ZM283.325 78.8729H284.595V77.6031H283.325V78.8729ZM283.325 84.1555V85.4253H284.595V84.1555H283.325ZM268.371 84.1555V82.8856H267.101V84.1555H268.371ZM267.884 91.6018H281.577V89.0621H267.884V91.6018ZM280.308 90.332V95.452H282.847V90.332H280.308ZM281.577 94.1821H267.884V96.7218H281.577V94.1821ZM269.153 95.452V90.332H266.614V95.452H269.153ZM268.371 103.305H283.853V100.765H268.371V103.305ZM282.583 102.035V107.317H285.123V102.035H282.583ZM283.853 106.048H261.829V108.587H283.853V106.048ZM263.099 107.317V78.8729H260.559V107.317H263.099ZM261.829 80.1428H283.325V77.6031H261.829V80.1428ZM282.055 78.8729V84.1555H284.595V78.8729H282.055ZM283.325 82.8856H268.371V85.4253H283.325V82.8856ZM267.101 84.1555V102.035H269.641V84.1555H267.101ZM290.595 97.4431L289.328 97.529L289.408 98.7129H290.595V97.4431ZM289.335 78.8729V77.6031H287.976L288.068 78.9589L289.335 78.8729ZM296.893 78.8729L298.16 78.9589L298.252 77.6031H296.893V78.8729ZM295.634 97.4431V98.7129H296.82L296.901 97.529L295.634 97.4431ZM290.31 106.545L289.413 107.443L290.31 106.545ZM290.31 101.385L291.173 102.316L291.182 102.308L291.191 102.299L290.31 101.385ZM295.918 101.385L295.02 102.283L295.037 102.3L295.055 102.316L295.918 101.385ZM295.918 106.545L295.02 105.647L295.012 105.656L295.003 105.665L295.918 106.545ZM291.862 97.3572L290.602 78.787L288.068 78.9589L289.328 97.529L291.862 97.3572ZM289.335 80.1428H296.893V77.6031H289.335V80.1428ZM295.626 78.787L294.367 97.3572L296.901 97.529L298.16 78.9589L295.626 78.787ZM295.634 96.1733H290.595V98.7129H295.634V96.1733ZM293.114 106.373C292.276 106.373 291.677 106.116 291.208 105.647L289.413 107.443C290.407 108.438 291.677 108.912 293.114 108.912V106.373ZM291.208 105.647C290.707 105.146 290.483 104.598 290.483 103.945H287.943C287.943 105.296 288.452 106.482 289.413 107.443L291.208 105.647ZM290.483 103.945C290.483 103.256 290.711 102.745 291.173 102.316L289.448 100.453C288.447 101.379 287.943 102.575 287.943 103.945H290.483ZM291.191 102.299C291.657 101.851 292.262 101.598 293.114 101.598V99.0583C291.691 99.0583 290.427 99.5096 289.43 100.47L291.191 102.299ZM293.114 101.598C294.004 101.598 294.594 101.857 295.02 102.283L296.816 100.487C295.833 99.504 294.554 99.0583 293.114 99.0583V101.598ZM295.055 102.316C295.518 102.745 295.745 103.256 295.745 103.945H298.285C298.285 102.575 297.781 101.379 296.781 100.453L295.055 102.316ZM295.745 103.945C295.745 104.598 295.522 105.146 295.02 105.647L296.816 107.443C297.777 106.482 298.285 105.296 298.285 103.945H295.745ZM295.003 105.665C294.574 106.11 293.99 106.373 293.114 106.373V108.912C294.569 108.912 295.853 108.443 296.833 107.426L295.003 105.665Z" fill="black"/>
</g>
<defs>
<filter id="filter0_d_221_7344" x="0.609375" y="0.746094" width="518.101" height="115.125" filterUnits="userSpaceOnUse" color-interpolation-filters="sRGB">
<feFlood flood-opacity="0" result="BackgroundImageFix"/>
<feColorMatrix in="SourceAlpha" type="matrix" values="0 0 0 0 0 0 0 0 0 0 0 0 0 0 0 0 0 0 127 0" result="hardAlpha"/>
<feOffset dx="2.53968" dy="2.53968"/>
<feComposite in2="hardAlpha" operator="out"/>
<feColorMatrix type="matrix" values="0 0 0 0 1 0 0 0 0 0.787333 0 0 0 0 0.0333334 0 0 0 1 0"/>
<feBlend mode="normal" in2="BackgroundImageFix" result="effect1_dropShadow_221_7344"/>
<feBlend mode="normal" in="SourceGraphic" in2="effect1_dropShadow_221_7344" result="shape"/>
</filter>
</defs>
</svg>
