<svg width="190" height="48" viewBox="0 0 190 48" fill="none" xmlns="http://www.w3.org/2000/svg">
<path d="M72.536 13.512C72.44 14.616 72.368 15.696 72.32 16.752C72.296 17.784 72.284 18.576 72.284 19.128C72.284 19.68 72.296 20.196 72.32 20.676C72.344 21.156 72.368 21.576 72.392 21.936H71.564C71.228 20.016 70.82 18.516 70.34 17.436C69.86 16.332 69.224 15.54 68.432 15.06C67.664 14.58 66.644 14.34 65.372 14.34H64.22V34.86C64.22 35.844 64.304 36.576 64.472 37.056C64.664 37.536 65.036 37.86 65.588 38.028C66.14 38.172 66.944 38.256 68 38.28V39C67.28 38.952 66.344 38.928 65.192 38.928C64.04 38.904 62.864 38.892 61.664 38.892C60.416 38.892 59.24 38.904 58.136 38.928C57.056 38.928 56.18 38.952 55.508 39V38.28C56.54 38.256 57.332 38.172 57.884 38.028C58.436 37.86 58.808 37.536 59 37.056C59.192 36.576 59.288 35.844 59.288 34.86V14.34H58.1C56.852 14.34 55.832 14.58 55.04 15.06C54.248 15.54 53.612 16.332 53.132 17.436C52.652 18.516 52.256 20.016 51.944 21.936H51.116C51.164 21.576 51.188 21.156 51.188 20.676C51.212 20.196 51.224 19.68 51.224 19.128C51.224 18.576 51.2 17.784 51.152 16.752C51.128 15.696 51.068 14.616 50.972 13.512C52.028 13.536 53.192 13.56 54.464 13.584C55.736 13.608 57.008 13.62 58.28 13.62C59.552 13.62 60.716 13.62 61.772 13.62C62.804 13.62 63.956 13.62 65.228 13.62C66.5 13.62 67.772 13.608 69.044 13.584C70.316 13.56 71.48 13.536 72.536 13.512ZM97.5324 13.512V14.232C97.0524 14.4 96.5484 14.784 96.0204 15.384C95.5164 15.984 94.9404 16.884 94.2924 18.084L86.2644 34.14L85.5444 34.248L75.5004 16.392C75.0444 15.576 74.6244 15.024 74.2404 14.736C73.8804 14.448 73.5444 14.292 73.2324 14.268V13.512C73.5444 13.536 73.9404 13.56 74.4204 13.584C74.9244 13.584 75.4404 13.596 75.9684 13.62C76.4964 13.62 76.9884 13.62 77.4444 13.62C77.9964 13.62 78.6084 13.62 79.2804 13.62C79.9764 13.62 80.6484 13.608 81.2964 13.584C81.9684 13.56 82.5324 13.536 82.9884 13.512V14.268C82.4844 14.268 82.0404 14.352 81.6564 14.52C81.2724 14.688 81.0204 14.976 80.9004 15.384C80.8044 15.768 80.9364 16.32 81.2964 17.04L88.1364 29.424L86.9844 31.08L92.3124 20.46C93.1044 18.852 93.5124 17.604 93.5364 16.716C93.5604 15.828 93.2964 15.204 92.7444 14.844C92.1924 14.46 91.4244 14.256 90.4404 14.232V13.512C91.2324 13.536 91.9764 13.56 92.6724 13.584C93.3924 13.608 94.1124 13.62 94.8324 13.62C95.3844 13.62 95.8764 13.608 96.3084 13.584C96.7644 13.56 97.1724 13.536 97.5324 13.512ZM86.3724 32.376L87.0204 32.628L85.3284 36.048C85.0164 36.672 84.7404 37.164 84.5004 37.524C84.2604 37.884 84.0084 38.196 83.7444 38.46C83.3604 38.844 82.9044 39.108 82.3764 39.252C81.8724 39.42 81.3684 39.504 80.8644 39.504C79.7844 39.504 78.9324 39.252 78.3084 38.748C77.6844 38.244 77.3724 37.584 77.3724 36.768C77.3724 36 77.6364 35.4 78.1644 34.968C78.7164 34.512 79.3644 34.284 80.1084 34.284C80.9004 34.284 81.5364 34.464 82.0164 34.824C82.5204 35.184 82.7724 35.688 82.7724 36.336C82.7724 36.936 82.5804 37.428 82.1964 37.812C81.8364 38.196 81.3924 38.484 80.8644 38.676C80.9364 38.724 81.0204 38.76 81.1164 38.784C81.2124 38.784 81.3084 38.784 81.4044 38.784C82.1004 38.784 82.7004 38.544 83.2044 38.064C83.7084 37.584 84.1764 36.9 84.6084 36.012L86.3724 32.376ZM121.122 13.512V14.232C120.642 14.4 120.138 14.784 119.61 15.384C119.106 15.984 118.53 16.884 117.882 18.084L109.854 34.14L109.134 34.248L99.0902 16.392C98.6342 15.576 98.2142 15.024 97.8302 14.736C97.4702 14.448 97.1342 14.292 96.8222 14.268V13.512C97.1342 13.536 97.5302 13.56 98.0102 13.584C98.5142 13.584 99.0302 13.596 99.5582 13.62C100.086 13.62 100.578 13.62 101.034 13.62C101.586 13.62 102.198 13.62 102.87 13.62C103.566 13.62 104.238 13.608 104.886 13.584C105.558 13.56 106.122 13.536 106.578 13.512V14.268C106.074 14.268 105.63 14.352 105.246 14.52C104.862 14.688 104.61 14.976 104.49 15.384C104.394 15.768 104.526 16.32 104.886 17.04L111.726 29.424L110.574 31.08L115.902 20.46C116.694 18.852 117.102 17.604 117.126 16.716C117.15 15.828 116.886 15.204 116.334 14.844C115.782 14.46 115.014 14.256 114.03 14.232V13.512C114.822 13.536 115.566 13.56 116.262 13.584C116.982 13.608 117.702 13.62 118.422 13.62C118.974 13.62 119.466 13.608 119.898 13.584C120.354 13.56 120.762 13.536 121.122 13.512ZM109.962 32.376L110.61 32.628L108.918 36.048C108.606 36.672 108.33 37.164 108.09 37.524C107.85 37.884 107.598 38.196 107.334 38.46C106.95 38.844 106.494 39.108 105.966 39.252C105.462 39.42 104.958 39.504 104.454 39.504C103.374 39.504 102.522 39.252 101.898 38.748C101.274 38.244 100.962 37.584 100.962 36.768C100.962 36 101.226 35.4 101.754 34.968C102.306 34.512 102.954 34.284 103.698 34.284C104.49 34.284 105.126 34.464 105.606 34.824C106.11 35.184 106.362 35.688 106.362 36.336C106.362 36.936 106.17 37.428 105.786 37.812C105.426 38.196 104.982 38.484 104.454 38.676C104.526 38.724 104.61 38.76 104.706 38.784C104.802 38.784 104.898 38.784 104.994 38.784C105.69 38.784 106.29 38.544 106.794 38.064C107.298 37.584 107.766 36.9 108.198 36.012L109.962 32.376ZM121.96 13.512C122.56 13.536 123.328 13.56 124.264 13.584C125.2 13.608 126.136 13.62 127.072 13.62C128.248 13.62 129.364 13.608 130.42 13.584C131.476 13.56 132.22 13.548 132.652 13.548C135.868 13.548 138.256 14.208 139.816 15.528C141.4 16.848 142.192 18.552 142.192 20.64C142.192 21.504 142.036 22.416 141.724 23.376C141.412 24.312 140.872 25.188 140.104 26.004C139.336 26.796 138.28 27.444 136.936 27.948C135.616 28.452 133.924 28.704 131.86 28.704H128.26V27.984H131.5C133.012 27.984 134.164 27.66 134.956 27.012C135.772 26.364 136.312 25.512 136.576 24.456C136.864 23.4 137.008 22.26 137.008 21.036C137.008 18.756 136.636 17.052 135.892 15.924C135.148 14.796 133.864 14.232 132.04 14.232C131.056 14.232 130.408 14.436 130.096 14.844C129.808 15.252 129.664 16.08 129.664 17.328V35.04C129.664 35.952 129.76 36.636 129.952 37.092C130.144 37.548 130.516 37.848 131.068 37.992C131.62 38.136 132.412 38.22 133.444 38.244V39C132.748 38.952 131.848 38.928 130.744 38.928C129.64 38.904 128.5 38.892 127.324 38.892C126.316 38.892 125.344 38.904 124.408 38.928C123.472 38.928 122.656 38.952 121.96 39V38.28C122.752 38.232 123.34 38.136 123.724 37.992C124.132 37.848 124.396 37.56 124.516 37.128C124.66 36.696 124.732 36.048 124.732 35.184V17.328C124.732 16.44 124.66 15.792 124.516 15.384C124.396 14.952 124.132 14.664 123.724 14.52C123.34 14.352 122.752 14.256 121.96 14.232V13.512ZM155.157 13.512V14.232C154.269 14.256 153.585 14.352 153.105 14.52C152.649 14.664 152.337 14.952 152.169 15.384C152.025 15.792 151.953 16.44 151.953 17.328V35.184C151.953 36.024 152.013 36.672 152.133 37.128C152.253 37.56 152.469 37.86 152.781 38.028C153.093 38.196 153.573 38.28 154.221 38.28C155.541 38.28 156.549 37.992 157.245 37.416C157.965 36.84 158.457 36.048 158.721 35.04C159.009 34.008 159.153 32.844 159.153 31.548C159.153 30.108 158.985 28.86 158.649 27.804C158.337 26.748 157.797 25.944 157.029 25.392C156.261 24.816 155.181 24.528 153.789 24.528C153.333 24.528 152.853 24.54 152.349 24.564C151.845 24.564 151.365 24.564 150.909 24.564C150.453 24.564 150.069 24.564 149.757 24.564L149.685 23.88C150.621 23.88 151.521 23.88 152.385 23.88C153.273 23.856 153.969 23.844 154.473 23.844C156.273 23.844 157.797 24.036 159.045 24.42C160.293 24.78 161.301 25.284 162.069 25.932C162.861 26.58 163.437 27.348 163.797 28.236C164.157 29.1 164.337 30.048 164.337 31.08C164.337 32.064 164.157 33.024 163.797 33.96C163.461 34.896 162.897 35.748 162.105 36.516C161.337 37.26 160.317 37.86 159.045 38.316C157.773 38.772 156.201 39 154.329 39C153.777 39 153.081 38.988 152.241 38.964C151.425 38.916 150.489 38.892 149.433 38.892C148.449 38.892 147.489 38.904 146.553 38.928C145.617 38.928 144.849 38.952 144.249 39V38.28C145.041 38.232 145.629 38.136 146.013 37.992C146.421 37.848 146.685 37.56 146.805 37.128C146.949 36.696 147.021 36.048 147.021 35.184V17.328C147.021 16.44 146.949 15.792 146.805 15.384C146.685 14.952 146.421 14.664 146.013 14.52C145.629 14.352 145.041 14.256 144.249 14.232V13.512C144.849 13.536 145.617 13.56 146.553 13.584C147.489 13.608 148.497 13.62 149.577 13.62C150.633 13.62 151.665 13.608 152.673 13.584C153.681 13.56 154.509 13.536 155.157 13.512Z" fill="#2F2A2E"/>
<g clip-path="url(#clip0_409_509)">
<path d="M17.3844 5.18963C13.7559 5.53262 10.0732 7.02193 7.23899 9.28749L6.58008 9.82003L11.2285 14.4685L15.877 19.1169L16.4998 18.8191C18.1064 18.0789 20.0019 18.097 21.6266 18.8642L22.1321 19.1079L26.7806 14.4685L31.42 9.82906L31.0319 9.48607C30.5806 9.08892 29.2627 8.1502 28.7663 7.86136L28.4233 7.67181L23.7568 12.3383C21.1934 14.9017 19.0452 17.0048 19 17.0048C18.8466 17.0048 12.4561 10.5602 12.4561 10.4158C12.4561 10.1269 14.7397 9.3597 16.4637 9.06184C17.6912 8.85424 18.3231 8.82716 18.3231 8.98963C18.3231 9.05281 17.8988 9.5312 17.3753 10.0547L16.4276 11.0025L17.7183 12.2932L19 13.5749L22.5202 10.0547C24.4518 8.12312 26.0133 6.51647 25.9772 6.48939C25.8779 6.3901 24.3977 5.91172 23.5131 5.68607C21.6357 5.21671 19.1806 5.01813 17.3844 5.18963Z" fill="url(#paint0_linear_409_509)"/>
<path d="M4.28745 12.2389C2.64469 14.2969 1.39006 16.8062 0.722129 19.3876C3.91901e-05 22.2128 -0.0360653 25.4442 0.631868 28.2693C0.848495 29.181 1.44422 30.9952 1.52545 30.9952C1.55253 30.9952 3.15016 29.4247 5.08175 27.4931L8.57486 24L7.28412 22.7092L6.00241 21.4275L5.05467 22.3753C4.53115 22.8988 4.05277 23.323 3.98056 23.323C3.7188 23.323 4.07985 20.8769 4.56726 19.3244C4.88317 18.3316 5.28935 17.456 5.43377 17.456C5.56916 17.456 12.0048 23.8646 12.0048 24C12.0048 24.0451 9.9017 26.1933 7.33828 28.7567L2.67177 33.4232L2.96963 33.9016C3.33971 34.5064 4.15206 35.6256 4.54018 36.0769L4.82902 36.4199L9.46844 31.7715L14.1169 27.123L13.819 26.5002C13.3948 25.5795 13.2414 24.713 13.3045 23.6841C13.3587 22.6912 13.449 22.3392 13.8371 21.4907L14.1169 20.8769L9.46844 16.2285L4.81999 11.58L4.28745 12.2389Z" fill="url(#paint1_linear_409_509)"/>
<path d="M28.5316 16.2195L23.9012 20.8589L24.1811 21.4456C24.9302 23.0252 24.9122 25.1463 24.145 26.6717L23.9012 27.1411L28.5407 31.7805L33.1711 36.4199L33.5592 35.9867C34.1549 35.3278 35.3373 33.5225 35.8699 32.4484C38.1716 27.8541 38.5145 22.7814 36.8537 17.8803L36.5198 16.9054L32.9725 20.4527L29.4252 24L30.7069 25.2817L31.9977 26.5724L32.9454 25.6247C33.4689 25.1012 33.9473 24.6769 34.0105 24.6769C34.173 24.6769 34.1459 25.4803 33.9473 26.6807C33.6585 28.3506 32.8913 30.5439 32.6024 30.5439C32.3768 30.5439 26.0856 24.2256 26.0856 24C26.0856 23.8826 27.7012 22.2038 30.7069 19.1981L35.3373 14.5677L35.1749 14.2788C34.9583 13.8727 33.9744 12.5097 33.5321 11.9952L33.1711 11.58L28.5316 16.2195Z" fill="url(#paint2_linear_409_509)"/>
<path d="M18.3231 20.3807C16.5811 20.7598 15.3354 22.2672 15.3354 23.9911C15.3354 25.8144 16.6533 27.3398 18.4946 27.6648C20.345 27.9987 22.3036 26.5455 22.6647 24.5688C22.8633 23.5037 22.4932 22.3574 21.6718 21.4909C21.1122 20.8952 20.5074 20.5612 19.7041 20.3897C18.991 20.2363 18.973 20.2363 18.3231 20.3807Z" fill="url(#paint3_linear_409_509)"/>
<path d="M11.2105 33.5497L6.58008 38.1892L7.21191 38.7037C7.90692 39.2633 9.41428 40.2923 9.54065 40.2923C9.57675 40.2923 11.7069 38.1982 14.2613 35.6438C16.8157 33.0894 18.9459 30.9953 19 30.9953C19.1535 30.9953 25.544 37.44 25.544 37.6025C25.544 37.9094 22.8722 38.7849 21.1663 39.0286C20.2817 39.155 19.677 39.1459 19.677 39.0105C19.677 38.9474 20.1012 38.469 20.6247 37.9455L21.5725 36.9977L20.2817 35.707L19 34.4253L15.4798 37.9455C13.5482 39.8771 11.9867 41.4837 12.0228 41.5108C12.1131 41.6101 13.5934 42.0885 14.496 42.3231C18.7563 43.3972 23.2243 42.9189 27.2228 40.9782C28.4594 40.3735 30.2556 39.2181 30.9867 38.5592L31.42 38.1711L26.7896 33.5407L22.1502 28.9103L21.5454 29.1901C20.5706 29.6324 19.8756 29.7588 18.7292 29.7046C17.7183 29.6595 17.1497 29.5151 16.3554 29.1089C16.1568 29.0096 15.9492 28.9193 15.9131 28.9193C15.868 28.9193 13.7559 31.0044 11.2105 33.5497Z" fill="url(#paint4_linear_409_509)"/>
</g>
<defs>
<linearGradient id="paint0_linear_409_509" x1="19" y1="19.1169" x2="19" y2="5.12873" gradientUnits="userSpaceOnUse">
<stop stop-color="#FFC909"/>
</linearGradient>
<linearGradient id="paint1_linear_409_509" x1="7.13578" y1="36.4199" x2="7.13578" y2="11.58" gradientUnits="userSpaceOnUse">
<stop stop-color="#FFC909"/>
</linearGradient>
<linearGradient id="paint2_linear_409_509" x1="30.8953" y1="36.4199" x2="30.8953" y2="11.58" gradientUnits="userSpaceOnUse">
<stop stop-color="#FFC909"/>
</linearGradient>
<linearGradient id="paint3_linear_409_509" x1="19.0264" y1="27.7126" x2="19.0264" y2="20.2735" gradientUnits="userSpaceOnUse">
<stop stop-color="#FFC909"/>
</linearGradient>
<linearGradient id="paint4_linear_409_509" x1="19" y1="42.8843" x2="19" y2="28.9103" gradientUnits="userSpaceOnUse">
<stop stop-color="#FFC909"/>
</linearGradient>
<clipPath id="clip0_409_509">
<rect width="38" height="38" fill="white" transform="translate(0 5)"/>
</clipPath>
</defs>
</svg>
